{"glyphs":{"0":{"ha":814,"x_min":44,"x_max":770,"o":"m 407 866 q 277 775 330 866 q 227 509 227 691 q 235 377 227 435 l 530 787 q 407 866 480 866 m 407 -14 q 119 153 214 -14 q 44 509 44 286 q 119 864 44 731 q 407 1031 214 1031 q 694 863 602 1031 q 770 509 770 727 q 694 155 770 292 q 407 -14 602 -13 m 580 631 l 284 230 q 407 151 337 151 q 537 242 485 151 q 587 509 587 328 q 580 631 587 576 z "},"1":{"ha":814,"x_min":130,"x_max":753,"o":"m 130 0 l 130 170 l 357 170 l 357 821 l 130 576 l 130 780 l 350 1017 l 533 1017 l 533 170 l 753 170 l 753 0 l 130 0 z "},"2":{"ha":814,"x_min":71,"x_max":743,"o":"m 71 0 l 71 130 q 212 353 73 243 l 456 545 q 559 704 559 626 q 524 816 559 772 q 407 866 482 866 q 292 811 336 866 q 254 692 254 764 l 71 692 q 158 926 71 833 q 407 1031 258 1031 q 658 933 567 1031 q 743 715 743 842 q 585 443 743 566 l 312 229 q 260 170 274 199 l 743 170 l 743 0 l 71 0 z "},"3":{"ha":814,"x_min":71,"x_max":743,"o":"m 71 325 l 254 325 q 290 206 254 252 q 407 151 335 151 q 524 200 484 151 q 559 310 559 245 q 513 425 559 375 q 364 472 468 472 l 364 638 q 484 663 452 638 q 522 750 522 693 q 485 835 522 800 q 401 865 454 865 q 313 830 349 865 q 279 745 279 799 l 104 745 q 186 949 104 870 q 399 1031 271 1031 q 613 954 528 1031 q 698 760 698 877 q 596 559 698 632 q 743 306 743 471 q 654 85 743 180 q 407 -14 561 -14 q 156 91 253 -14 q 71 325 71 183 z "},"4":{"ha":814,"x_min":47,"x_max":712,"o":"m 529 0 l 529 187 l 47 187 q 529 1017 179 662 l 712 1017 l 712 0 l 529 0 m 529 791 q 278 357 379 597 l 529 357 l 529 791 z "},"5":{"ha":814,"x_min":71,"x_max":743,"o":"m 71 325 l 254 325 q 288 207 254 248 q 407 151 333 152 q 522 211 477 151 q 559 349 559 262 q 520 475 559 422 q 407 536 476 536 q 289 463 335 536 l 129 551 l 205 1017 l 680 1017 l 680 848 l 355 848 l 327 686 q 411 701 367 701 q 650 604 564 701 q 743 348 743 500 q 661 100 743 201 q 407 -14 570 -14 q 152 94 250 -14 q 71 325 71 182 z "},"6":{"ha":814,"x_min":58,"x_max":756,"o":"m 420 151 q 534 213 492 151 q 573 346 573 270 q 527 484 573 429 q 420 536 482 536 q 314 484 358 536 q 268 346 268 429 q 306 213 268 266 q 420 151 351 151 m 743 770 l 551 770 q 420 867 499 867 q 290 783 335 867 q 244 597 252 711 q 437 700 327 700 q 660 600 567 699 q 756 348 756 498 q 672 100 756 205 q 420 -14 580 -14 q 133 154 236 -14 q 58 509 58 276 q 133 864 58 735 q 420 1031 231 1031 q 708 854 610 1031 q 743 770 728 817 z "},"7":{"ha":814,"x_min":71,"x_max":743,"o":"m 146 0 q 424 529 339 298 q 524 848 490 708 l 71 848 l 71 1017 l 743 1017 q 599 495 708 758 q 341 0 481 210 l 146 0 z "},"8":{"ha":814,"x_min":71,"x_max":743,"o":"m 408 466 q 291 416 332 466 q 254 308 254 372 q 290 201 254 243 q 408 151 333 151 q 524 201 480 151 q 560 309 560 243 q 522 418 560 373 q 408 466 480 466 m 407 865 q 326 836 355 865 q 292 749 292 802 q 327 662 292 696 q 407 630 361 630 q 489 663 456 630 q 522 749 522 696 q 490 832 522 799 q 407 865 457 865 m 658 86 q 406 -14 562 -14 q 157 85 249 -14 q 71 306 71 178 q 231 559 71 477 q 116 760 116 620 q 201 954 116 877 q 407 1031 286 1031 q 613 954 528 1031 q 698 760 698 877 q 583 559 698 631 q 743 306 743 483 q 658 86 743 174 z "},"9":{"ha":814,"x_min":58,"x_max":756,"o":"m 393 866 q 279 804 321 866 q 241 671 241 747 q 287 534 241 588 q 393 481 332 481 q 500 534 456 481 q 546 671 546 588 q 508 804 546 751 q 393 866 463 866 m 71 248 l 263 248 q 393 151 315 151 q 524 235 479 151 q 570 420 562 307 q 377 317 487 317 q 154 417 247 318 q 58 669 58 519 q 142 917 58 812 q 393 1031 234 1031 q 681 863 578 1031 q 756 509 756 741 q 681 153 756 282 q 393 -14 583 -14 q 106 163 204 -14 q 71 248 85 200 z "}," ":{"ha":814,"x_min":0,"x_max":0,"o":""},"!":{"ha":814,"x_min":286,"x_max":528,"o":"m 407 -14 q 322 20 357 -14 q 286 106 286 55 q 322 193 286 158 q 407 227 358 227 q 492 193 459 227 q 528 106 528 156 q 492 21 528 56 q 407 -14 456 -14 m 302 1017 l 512 1017 l 485 251 l 329 251 l 302 1017 z "},"\"":{"ha":814,"x_min":186,"x_max":627,"o":"m 439 1017 l 627 1017 l 607 628 l 459 628 l 439 1017 m 186 1017 l 375 1017 l 355 628 l 207 628 l 186 1017 z "},"#":{"ha":814,"x_min":65,"x_max":749,"o":"m 190 53 l 190 288 l 65 288 l 65 451 l 190 451 l 190 566 l 65 566 l 65 729 l 190 729 l 190 964 l 353 964 l 353 729 l 468 729 l 468 964 l 631 964 l 631 729 l 749 729 l 749 566 l 631 566 l 631 451 l 749 451 l 749 288 l 631 288 l 631 53 l 468 53 l 468 288 l 353 288 l 353 53 l 190 53 m 353 451 l 468 451 l 468 566 l 353 566 l 353 451 z "},"$":{"ha":814,"x_min":71,"x_max":743,"o":"m 458 -176 l 356 -174 l 356 -11 q 153 87 229 3 q 71 325 71 178 l 254 325 q 290 203 254 248 q 356 158 316 170 l 356 474 l 250 524 q 104 763 104 593 q 189 954 104 878 q 356 1028 258 1017 l 356 1194 l 458 1194 l 458 1027 q 616 949 549 1013 q 698 745 698 871 l 523 745 q 489 830 522 798 q 458 852 475 844 l 458 627 l 553 583 q 743 303 743 494 q 654 85 743 178 q 458 -11 577 3 l 458 -176 m 356 674 l 356 858 q 315 835 334 850 q 282 769 282 808 q 335 684 282 708 l 356 674 m 458 426 l 458 159 q 524 203 498 172 q 559 301 559 246 q 488 412 559 378 l 458 426 z "},"%":{"ha":814,"x_min":14,"x_max":800,"o":"m 284 881 q 274 892 284 881 q 231 903 264 903 q 179 884 199 903 q 158 830 158 863 q 178 779 158 800 q 231 758 200 758 q 284 781 261 758 q 304 830 304 800 q 284 881 304 859 m 231 629 q 86 689 145 629 q 27 833 27 749 q 86 971 27 912 q 231 1031 145 1031 q 376 972 315 1031 q 435 830 435 915 q 377 687 435 743 q 231 629 317 629 m 635 239 q 625 250 635 239 q 583 260 615 260 q 530 241 550 260 q 509 188 509 221 q 530 137 509 158 q 582 115 551 115 q 635 138 612 115 q 655 188 655 158 q 635 239 655 217 m 583 -14 q 437 47 496 -14 q 378 191 378 107 q 437 329 378 270 q 583 389 496 389 q 728 330 667 389 q 787 188 787 273 q 728 45 787 101 q 583 -14 668 -14 m 668 951 l 800 838 l 146 58 l 14 172 l 668 951 z "},"&":{"ha":814,"x_min":16,"x_max":814,"o":"m 814 0 l 621 0 l 570 84 q 351 -14 468 -14 q 101 84 193 -14 q 16 306 16 175 q 53 452 16 387 q 162 559 90 516 q 60 760 60 632 q 145 954 60 877 q 359 1031 231 1031 q 572 949 487 1031 q 654 745 654 870 l 479 745 q 446 830 479 799 q 357 865 410 865 q 274 834 312 865 q 236 743 236 804 q 274 651 236 686 q 425 625 304 625 l 576 363 q 591 503 591 422 q 583 625 591 530 l 774 625 q 681 210 774 359 l 814 0 m 321 494 q 245 450 272 481 q 199 326 199 397 q 234 209 199 256 q 351 151 277 151 q 486 223 420 151 l 321 494 z "},"'":{"ha":814,"x_min":313,"x_max":501,"o":"m 313 1017 l 501 1017 l 481 628 l 333 628 l 313 1017 z "},"(":{"ha":814,"x_min":210,"x_max":604,"o":"m 430 1194 q 604 1194 430 1194 q 437 849 493 1036 q 387 509 387 686 q 437 168 387 330 q 604 -176 492 -14 l 430 -176 q 262 176 313 13 q 210 509 210 342 q 262 842 210 682 q 430 1194 317 1010 z "},")":{"ha":814,"x_min":210,"x_max":604,"o":"m 210 1194 l 384 1194 q 552 842 497 1010 q 604 509 604 682 q 552 176 604 342 q 384 -176 500 13 l 210 -176 q 377 168 319 -18 q 427 509 427 325 q 377 849 427 686 q 210 1194 320 1036 z "},"*":{"ha":814,"x_min":95,"x_max":719,"o":"m 322 1017 l 492 1017 l 492 840 l 634 935 l 719 788 l 563 706 l 719 624 l 634 477 l 492 572 l 492 395 l 322 395 l 322 572 l 180 477 l 95 624 l 251 706 l 95 788 l 180 935 l 322 840 l 322 1017 z "},"+":{"ha":814,"x_min":96,"x_max":718,"o":"m 322 820 l 492 820 l 492 593 l 718 593 l 718 424 l 492 424 l 492 197 l 322 197 l 322 424 l 96 424 l 96 593 l 322 593 l 322 820 z "},",":{"ha":814,"x_min":291,"x_max":523,"o":"m 460 250 q 523 77 523 172 q 291 -169 523 -107 l 291 -90 q 353 58 353 -21 q 300 180 353 134 l 460 250 z "},"-":{"ha":814,"x_min":96,"x_max":718,"o":"m 96 593 l 718 593 l 718 424 l 96 424 l 96 593 z "},".":{"ha":814,"x_min":286,"x_max":528,"o":"m 407 -14 q 322 20 357 -14 q 286 106 286 55 q 322 193 286 158 q 407 227 358 227 q 492 193 459 227 q 528 106 528 156 q 493 20 528 54 q 407 -14 458 -14 z "},"/":{"ha":814,"x_min":0,"x_max":814,"o":"m 633 1194 l 814 1194 l 182 -176 l 0 -176 l 633 1194 z "},":":{"ha":814,"x_min":286,"x_max":528,"o":"m 407 627 q 492 593 459 627 q 528 507 528 557 q 493 421 528 455 q 407 387 458 387 q 322 420 357 387 q 286 507 286 456 q 322 593 286 559 q 407 627 358 627 m 407 -14 q 322 20 357 -14 q 286 106 286 55 q 322 193 286 158 q 407 227 358 227 q 492 193 459 227 q 528 106 528 156 q 493 20 528 54 q 407 -14 458 -14 z "},";":{"ha":814,"x_min":286,"x_max":528,"o":"m 460 250 q 523 77 523 172 q 291 -169 523 -107 l 291 -90 q 353 58 353 -21 q 300 180 353 134 l 460 250 m 407 627 q 492 593 459 627 q 528 507 528 557 q 493 421 528 455 q 407 387 458 387 q 322 420 357 387 q 286 507 286 456 q 322 593 286 559 q 407 627 358 627 z "},"<":{"ha":814,"x_min":105,"x_max":709,"o":"m 105 583 l 622 882 l 709 726 l 330 509 l 709 290 l 622 135 l 105 434 l 105 583 z "},"=":{"ha":814,"x_min":96,"x_max":718,"o":"m 96 441 l 718 441 l 718 271 l 96 271 l 96 441 m 96 746 l 718 746 l 718 576 l 96 576 l 96 746 z "},">":{"ha":814,"x_min":105,"x_max":709,"o":"m 709 583 l 709 434 l 192 135 l 105 290 l 484 509 l 105 726 l 192 882 l 709 583 z "},"?":{"ha":814,"x_min":71,"x_max":743,"o":"m 407 -14 q 322 20 357 -14 q 286 106 286 55 q 322 193 286 158 q 407 227 358 227 q 492 193 459 227 q 528 106 528 156 q 493 20 528 54 q 407 -14 458 -14 m 71 692 q 158 926 71 833 q 407 1031 258 1031 q 659 925 566 1031 q 743 699 743 829 q 580 420 743 535 q 494 260 494 359 l 320 260 q 455 531 320 425 q 559 699 559 612 q 524 810 559 766 q 407 866 477 866 q 292 811 336 866 q 254 692 254 764 l 71 692 z "},"@":{"ha":814,"x_min":44,"x_max":770,"o":"m 770 0 l 587 0 l 587 8 q 510 -14 555 -14 q 342 52 400 -14 q 279 233 279 123 q 347 400 279 328 q 509 464 408 464 q 587 444 551 464 q 545 559 587 516 q 447 595 511 595 q 283 509 350 595 q 221 238 221 428 q 273 -30 221 57 q 407 -120 326 -120 q 494 -82 456 -120 l 608 -218 q 407 -285 526 -285 q 117 -116 210 -285 q 44 239 44 15 q 150 614 44 471 q 447 760 258 760 q 694 654 602 760 q 770 446 770 567 l 770 0 m 587 317 q 546 324 568 324 q 479 300 504 324 q 452 230 452 272 q 479 159 452 188 q 547 132 503 132 q 587 141 568 132 l 587 317 z "},"A":{"ha":814,"x_min":3,"x_max":810,"o":"m 3 0 q 315 1017 94 488 l 498 1017 q 810 0 728 488 l 627 0 q 534 424 591 216 l 281 424 q 186 0 224 218 l 3 0 m 497 580 q 407 865 464 711 q 317 580 351 711 l 497 580 z "},"B":{"ha":814,"x_min":71,"x_max":743,"o":"m 254 852 l 254 641 l 336 641 q 458 671 422 641 q 493 747 493 700 q 454 825 493 793 q 336 852 418 852 l 254 852 m 254 476 l 254 165 l 370 165 q 522 211 467 165 q 566 321 566 249 q 520 431 566 386 q 370 476 475 476 l 254 476 m 71 0 l 71 1017 l 336 1017 q 583 940 496 1017 q 667 764 667 865 q 556 578 667 642 q 743 317 743 498 q 637 83 743 170 q 370 0 536 0 l 71 0 z "},"C":{"ha":814,"x_min":44,"x_max":737,"o":"m 737 258 q 694 154 720 201 q 407 -14 602 -14 q 119 153 214 -14 q 44 509 44 288 q 119 864 44 729 q 407 1031 214 1031 q 694 863 602 1031 q 737 760 720 817 l 546 760 q 537 775 544 764 q 407 866 484 866 q 277 775 330 866 q 227 509 227 691 q 276 243 227 323 q 407 151 332 151 q 537 242 479 151 q 546 258 542 250 l 737 258 z "},"D":{"ha":814,"x_min":71,"x_max":770,"o":"m 254 852 l 254 165 l 374 165 q 538 255 488 165 q 587 509 587 344 q 537 762 587 678 q 373 852 484 852 l 254 852 m 71 0 l 71 1017 l 373 1017 q 694 850 601 1017 q 770 509 770 715 q 695 167 770 292 q 374 0 595 0 l 71 0 z "},"E":{"ha":814,"x_min":96,"x_max":718,"o":"m 718 0 l 96 0 l 96 1017 l 672 1017 l 672 848 l 279 848 l 279 593 l 587 593 l 587 424 l 279 424 l 279 170 l 718 170 l 718 0 z "},"F":{"ha":814,"x_min":119,"x_max":695,"o":"m 302 0 l 119 0 l 119 1017 l 695 1017 l 695 848 l 302 848 l 302 593 l 610 593 l 610 424 l 302 424 l 302 0 z "},"G":{"ha":814,"x_min":44,"x_max":769,"o":"m 769 593 l 769 509 q 694 154 769 290 q 407 -14 603 -14 q 119 153 214 -14 q 44 509 44 288 q 119 864 44 729 q 407 1031 214 1031 q 694 863 602 1031 q 737 760 720 817 l 546 760 q 537 775 542 768 q 407 866 484 866 q 277 775 330 866 q 227 509 227 691 q 276 243 227 323 q 407 151 332 151 q 537 242 485 151 q 584 424 575 306 l 372 424 l 372 593 l 769 593 z "},"H":{"ha":814,"x_min":71,"x_max":743,"o":"m 71 0 l 71 1017 l 254 1017 l 254 593 l 559 593 l 559 1017 l 743 1017 l 743 0 l 559 0 l 559 424 l 254 424 l 254 0 l 71 0 z "},"I":{"ha":814,"x_min":96,"x_max":718,"o":"m 718 0 l 96 0 l 96 170 l 315 170 l 315 848 l 96 848 l 96 1017 l 718 1017 l 718 848 l 498 848 l 498 170 l 718 170 l 718 0 z "},"J":{"ha":814,"x_min":37,"x_max":709,"o":"m 37 325 l 220 325 q 254 205 220 249 q 373 151 297 151 q 488 202 446 151 q 526 325 526 248 l 526 848 l 159 848 l 159 1017 l 709 1017 l 709 306 q 619 83 709 180 q 373 -14 530 -14 q 121 91 220 -14 q 37 325 37 183 z "},"K":{"ha":814,"x_min":71,"x_max":743,"o":"m 71 0 l 71 1017 l 254 1017 l 254 500 q 536 1017 445 743 l 719 1017 q 456 510 616 731 q 743 0 634 282 l 558 0 q 352 380 469 210 q 254 269 307 324 l 254 0 l 71 0 z "},"L":{"ha":814,"x_min":96,"x_max":718,"o":"m 718 0 l 96 0 l 96 1017 l 279 1017 l 279 170 l 718 170 l 718 0 z "},"M":{"ha":814,"x_min":71,"x_max":743,"o":"m 71 0 l 71 1017 l 254 1017 q 409 595 385 793 q 559 1017 437 793 l 743 1017 l 743 0 l 573 0 l 573 750 q 485 311 485 551 l 329 311 q 241 750 329 549 l 241 0 l 71 0 z "},"N":{"ha":814,"x_min":71,"x_max":743,"o":"m 71 0 l 71 1017 l 254 1017 q 573 441 470 761 l 573 1017 l 743 1017 l 743 0 l 573 0 q 241 774 429 495 l 241 0 l 71 0 z "},"O":{"ha":814,"x_min":44,"x_max":770,"o":"m 407 -14 q 119 153 214 -14 q 44 509 44 286 q 119 864 44 731 q 407 1031 214 1031 q 694 863 602 1031 q 770 509 770 727 q 694 154 770 291 q 407 -14 602 -14 m 407 866 q 277 775 330 866 q 227 509 227 691 q 276 243 227 323 q 407 151 332 151 q 537 242 484 151 q 587 509 587 328 q 537 776 587 690 q 407 866 485 866 z "},"P":{"ha":814,"x_min":71,"x_max":743,"o":"m 71 0 l 71 1017 l 370 1017 q 621 932 519 1017 q 743 663 743 830 q 619 391 743 493 q 370 309 519 309 l 254 309 l 254 0 l 71 0 m 370 852 l 254 852 l 254 473 l 370 473 q 503 519 457 473 q 559 663 559 574 q 502 805 559 752 q 370 852 450 852 z "},"Q":{"ha":814,"x_min":44,"x_max":798,"o":"m 307 414 l 441 503 l 570 330 q 587 509 587 404 q 537 775 587 689 q 407 866 485 866 q 277 775 330 866 q 227 509 227 691 q 276 243 227 323 q 407 151 332 151 q 481 176 447 151 l 307 414 m 407 -14 q 119 153 214 -14 q 44 509 44 288 q 119 864 44 731 q 407 1031 214 1031 q 694 863 602 1031 q 770 509 770 727 q 697 159 770 295 l 798 23 l 663 -74 l 585 33 q 407 -14 511 -14 z "},"R":{"ha":814,"x_min":71,"x_max":800,"o":"m 254 852 l 254 473 l 370 473 q 503 519 457 473 q 559 663 559 574 q 501 805 559 751 q 370 852 450 852 l 254 852 m 71 0 l 71 1017 l 370 1017 q 621 934 519 1017 q 743 669 743 833 q 619 401 743 500 q 570 368 595 382 l 800 0 l 579 0 l 386 309 q 370 309 378 309 l 254 309 l 254 0 l 71 0 z "},"S":{"ha":814,"x_min":71,"x_max":743,"o":"m 71 325 l 254 325 q 290 203 254 248 q 407 151 331 151 q 523 204 478 151 q 559 301 559 248 q 488 412 559 378 l 250 524 q 104 763 104 593 q 189 954 104 879 q 402 1031 274 1031 q 616 949 530 1031 q 698 745 698 870 l 523 745 q 489 830 522 799 q 401 865 453 865 q 315 836 350 865 q 282 769 282 810 q 335 684 282 708 l 553 583 q 743 303 743 494 q 654 85 743 178 q 407 -14 561 -14 q 153 87 243 -14 q 71 325 71 178 z "},"T":{"ha":814,"x_min":71,"x_max":743,"o":"m 315 0 l 315 848 l 71 848 l 71 1017 l 743 1017 l 743 848 l 498 848 l 498 0 l 315 0 z "},"U":{"ha":814,"x_min":71,"x_max":743,"o":"m 71 1017 l 254 1017 l 254 313 q 292 203 254 247 q 407 151 335 151 q 522 204 475 151 q 559 313 559 246 l 559 1017 l 743 1017 l 743 306 q 654 85 743 178 q 407 -14 559 -14 q 158 85 257 -14 q 71 306 71 172 l 71 1017 z "},"V":{"ha":814,"x_min":3,"x_max":810,"o":"m 315 0 q 3 1017 94 529 l 186 1017 q 407 206 258 597 q 627 1017 553 590 l 810 1017 q 498 0 720 529 l 315 0 z "},"W":{"ha":814,"x_min":7,"x_max":807,"o":"m 170 0 q 7 1017 41 503 l 190 1017 q 249 289 190 646 q 323 703 323 512 l 481 703 q 566 273 481 507 q 624 1017 624 639 l 807 1017 q 644 0 769 506 l 505 0 q 401 420 431 221 q 309 0 374 225 l 170 0 z "},"X":{"ha":814,"x_min":37,"x_max":777,"o":"m 37 0 q 309 413 177 181 q 37 1017 147 726 l 220 1017 q 407 587 309 784 q 593 1017 503 782 l 777 1017 q 505 413 671 726 q 777 0 637 181 l 576 0 q 407 245 489 112 q 238 0 326 111 l 37 0 z "},"Y":{"ha":814,"x_min":37,"x_max":777,"o":"m 315 0 l 315 401 q 37 1017 139 726 l 220 1017 q 408 577 306 779 q 593 1017 514 778 l 777 1017 q 498 401 679 726 l 498 0 l 315 0 z "},"Z":{"ha":814,"x_min":71,"x_max":743,"o":"m 71 0 l 71 170 q 498 848 370 487 l 117 848 l 117 1017 l 741 1017 q 301 170 608 547 l 743 171 l 743 0 l 71 0 z "},"[":{"ha":814,"x_min":205,"x_max":608,"o":"m 205 1194 l 608 1194 l 608 1024 l 382 1024 l 382 -7 l 608 -7 l 608 -176 l 205 -176 l 205 1194 z "},"\\":{"ha":814,"x_min":0,"x_max":814,"o":"m 0 1194 l 181 1194 l 814 -176 l 631 -176 l 0 1194 z "},"]":{"ha":814,"x_min":205,"x_max":608,"o":"m 205 1194 l 608 1194 l 608 -176 l 205 -176 l 205 -7 l 432 -7 l 432 1024 l 205 1024 l 205 1194 z "},"^":{"ha":814,"x_min":95,"x_max":719,"o":"m 95 801 l 391 1017 l 423 1017 l 719 801 l 618 656 l 408 840 l 195 656 l 95 801 z "},"_":{"ha":814,"x_min":96,"x_max":718,"o":"m 96 -22 l 718 -22 l 718 -191 l 96 -191 l 96 -22 z "},"`":{"ha":814,"x_min":244,"x_max":570,"o":"m 244 943 l 423 1031 l 570 675 l 426 608 l 244 943 z "},"a":{"ha":814,"x_min":92,"x_max":710,"o":"m 710 0 l 527 0 l 527 68 q 348 -14 459 -14 q 153 62 222 -14 q 92 219 92 131 q 198 418 92 347 q 394 473 281 473 l 523 473 q 506 545 520 524 q 415 593 474 593 q 280 522 338 593 l 151 639 q 419 760 260 760 q 656 646 573 760 q 710 439 710 572 l 710 0 m 526 313 l 396 313 q 298 286 334 313 q 269 225 269 264 q 299 171 269 194 q 372 151 325 151 q 468 191 432 151 q 526 313 517 245 z "},"b":{"ha":814,"x_min":96,"x_max":729,"o":"m 414 592 q 307 528 343 592 q 277 373 277 475 q 309 216 277 267 q 412 154 347 154 q 515 216 478 154 q 546 373 546 269 q 515 528 546 473 q 414 592 479 592 m 96 0 l 96 1017 l 279 1017 l 279 689 q 435 760 341 760 q 644 648 553 760 q 729 373 729 544 q 644 98 729 202 q 435 -14 553 -14 q 279 54 342 -14 l 279 0 l 96 0 z "},"c":{"ha":814,"x_min":85,"x_max":715,"o":"m 715 247 q 644 98 695 161 q 407 -14 553 -14 q 170 98 261 -14 q 85 373 85 202 q 170 648 85 544 q 407 760 261 760 q 644 648 553 760 q 715 499 695 585 l 528 499 q 515 528 522 515 q 407 592 477 592 q 299 530 333 592 q 268 373 268 474 q 299 216 268 266 q 409 154 338 154 q 515 216 477 154 q 529 247 523 229 l 715 247 z "},"d":{"ha":814,"x_min":85,"x_max":718,"o":"m 399 592 q 298 528 335 592 q 268 373 268 473 q 299 216 268 269 q 402 154 336 154 q 505 216 467 154 q 536 373 536 267 q 507 528 536 475 q 399 592 471 592 m 718 0 l 535 0 l 535 54 q 378 -14 472 -14 q 170 98 261 -14 q 85 373 85 202 q 170 648 85 544 q 378 760 261 760 q 535 689 473 760 l 535 1017 l 718 1017 l 718 0 z "},"e":{"ha":814,"x_min":85,"x_max":729,"o":"m 715 247 q 644 98 695 161 q 407 -14 553 -14 q 170 98 261 -14 q 85 373 85 202 q 170 648 85 544 q 407 760 261 760 q 644 648 553 760 q 729 382 729 544 l 278 268 q 299 216 286 237 q 409 154 337 154 q 515 216 477 154 q 529 247 523 229 l 715 247 m 269 408 l 533 477 q 515 528 526 505 q 407 592 481 592 q 299 530 333 592 q 269 408 273 484 z "},"f":{"ha":814,"x_min":96,"x_max":803,"o":"m 315 0 l 315 505 l 96 505 l 96 663 l 315 663 l 315 736 q 381 951 315 881 q 593 1031 455 1031 q 803 941 726 1031 l 707 811 q 600 866 660 866 q 524 834 551 866 q 498 725 498 804 l 498 663 l 718 663 l 718 505 l 498 505 l 498 0 l 315 0 z "},"g":{"ha":814,"x_min":85,"x_max":718,"o":"m 399 592 q 298 528 335 592 q 268 373 268 473 q 299 216 268 269 q 402 154 336 154 q 505 216 467 154 q 536 373 536 267 q 507 528 536 475 q 399 592 471 592 m 718 746 l 718 114 q 640 -166 718 -64 q 392 -285 549 -285 q 125 -133 235 -285 l 271 -38 q 404 -117 320 -117 q 515 -50 482 -117 q 533 54 533 -14 q 378 -14 463 -14 q 170 98 261 -14 q 85 373 85 202 q 170 648 85 544 q 378 760 261 760 q 535 689 473 760 l 535 746 l 718 746 z "},"h":{"ha":814,"x_min":96,"x_max":718,"o":"m 96 0 l 96 1017 l 279 1017 l 279 677 q 463 760 348 760 q 649 680 574 760 q 718 467 718 606 l 718 0 l 535 0 l 535 458 q 508 560 535 528 q 433 595 479 595 q 330 549 374 595 q 279 392 279 495 l 279 0 l 96 0 z "},"i":{"ha":814,"x_min":96,"x_max":803,"o":"m 803 77 q 593 -14 726 -14 q 381 66 455 -14 q 315 281 315 136 l 315 576 l 96 576 l 96 746 l 498 746 l 498 292 q 524 183 498 213 q 600 151 551 151 q 707 206 660 151 l 803 77 m 380 1031 q 465 997 433 1031 q 501 911 501 960 q 466 825 501 860 q 380 791 431 791 q 295 824 329 791 q 258 911 258 859 q 295 997 258 962 q 380 1031 331 1031 z "},"j":{"ha":814,"x_min":85,"x_max":575,"o":"m 454 1031 q 539 997 507 1031 q 575 911 575 960 q 540 825 575 860 q 454 791 505 791 q 369 824 403 791 q 332 911 332 859 q 369 997 332 962 q 454 1031 405 1031 m 170 746 l 572 746 l 572 10 q 507 -205 572 -135 q 295 -285 433 -285 q 85 -195 161 -285 l 180 -65 q 288 -120 228 -120 q 364 -88 337 -120 q 389 21 389 -60 l 389 576 l 170 576 l 170 746 z "},"k":{"ha":814,"x_min":96,"x_max":718,"o":"m 96 0 l 96 1017 l 279 1017 l 279 304 q 522 746 457 483 l 705 746 q 538 374 657 548 q 718 0 645 212 l 534 0 q 424 237 487 134 q 279 106 362 172 l 279 0 l 96 0 z "},"l":{"ha":814,"x_min":96,"x_max":803,"o":"m 803 77 q 593 -14 726 -14 q 381 66 455 -14 q 315 281 315 136 l 315 848 l 96 848 l 96 1017 l 498 1017 l 498 292 q 524 183 498 213 q 600 151 551 151 q 707 206 660 151 l 803 77 z "},"m":{"ha":814,"x_min":74,"x_max":740,"o":"m 74 0 l 74 746 l 230 746 l 230 677 q 361 760 273 760 q 470 673 438 760 q 595 760 503 760 q 715 681 675 760 q 740 519 740 633 l 740 0 l 584 0 l 584 509 q 578 560 584 545 q 535 594 564 594 q 492 562 504 594 q 484 509 484 541 l 484 0 l 330 0 l 330 509 q 323 560 330 545 q 281 594 310 594 q 237 562 250 594 q 230 509 230 541 l 230 0 l 74 0 z "},"n":{"ha":814,"x_min":96,"x_max":718,"o":"m 96 0 l 96 746 l 279 746 l 279 677 q 463 760 348 760 q 649 680 574 760 q 718 467 718 606 l 718 0 l 535 0 l 535 458 q 508 560 535 528 q 433 595 479 595 q 330 549 374 595 q 279 392 279 495 l 279 0 l 96 0 z "},"o":{"ha":814,"x_min":85,"x_max":729,"o":"m 407 592 q 299 530 334 592 q 268 373 268 474 q 299 216 268 266 q 409 154 338 154 q 515 216 476 154 q 546 373 546 267 q 515 528 546 475 q 407 592 477 592 m 644 98 q 407 -14 553 -14 q 170 98 261 -14 q 85 373 85 202 q 170 648 85 544 q 407 760 261 760 q 644 648 553 760 q 729 373 729 544 q 644 98 729 202 z "},"p":{"ha":814,"x_min":96,"x_max":729,"o":"m 414 154 q 515 218 479 154 q 546 373 546 273 q 515 530 546 477 q 412 592 478 592 q 309 530 347 592 q 277 373 277 479 q 307 218 277 271 q 414 154 343 154 m 96 746 l 279 746 l 279 692 q 435 760 342 760 q 644 648 553 760 q 729 373 729 544 q 644 98 729 202 q 435 -14 553 -14 q 279 57 341 -14 l 279 -271 l 96 -271 l 96 746 z "},"q":{"ha":814,"x_min":85,"x_max":814,"o":"m 399 154 q 507 218 471 154 q 536 373 536 271 q 505 530 536 479 q 402 592 467 592 q 299 530 336 592 q 268 373 268 477 q 298 218 268 273 q 399 154 335 154 m 718 746 l 718 -57 q 814 54 770 -34 l 814 -163 q 535 -271 713 -271 l 535 57 q 378 -14 473 -14 q 170 98 261 -14 q 85 373 85 202 q 170 648 85 544 q 378 760 261 760 q 535 692 472 760 l 535 746 l 718 746 z "},"r":{"ha":814,"x_min":96,"x_max":718,"o":"m 96 0 l 96 746 l 279 746 l 279 677 q 463 760 348 760 q 649 680 574 760 q 718 458 718 606 l 535 458 q 508 560 535 528 q 433 595 479 595 q 330 549 374 595 q 279 392 279 495 l 279 0 l 96 0 z "},"s":{"ha":814,"x_min":110,"x_max":704,"o":"m 110 273 l 285 273 q 319 187 285 218 q 410 153 357 153 q 490 177 461 153 q 522 235 522 202 q 463 297 522 278 l 299 350 q 134 545 134 404 q 229 713 134 647 q 398 760 296 760 q 595 675 522 760 q 656 508 656 606 l 480 508 q 458 570 480 545 q 393 600 431 600 q 331 586 355 600 q 308 549 308 573 q 376 494 308 516 l 516 449 q 704 238 704 388 q 618 58 704 133 q 406 -14 538 -14 q 187 66 268 -14 q 110 273 110 143 z "},"t":{"ha":814,"x_min":96,"x_max":803,"o":"m 803 77 q 593 -14 726 -14 q 381 66 455 -14 q 315 281 315 136 l 315 576 l 96 576 l 96 746 l 315 746 l 315 1017 l 498 1017 l 498 746 l 718 746 l 718 576 l 498 576 l 498 292 q 524 183 498 213 q 600 151 551 151 q 707 206 660 151 l 803 77 z "},"u":{"ha":814,"x_min":96,"x_max":718,"o":"m 718 0 l 535 0 l 535 69 q 351 -14 466 -14 q 165 66 240 -14 q 96 279 96 140 l 96 746 l 279 746 l 279 288 q 306 186 279 218 q 380 151 335 151 q 484 197 440 151 q 535 354 535 251 l 535 746 l 718 746 l 718 0 z "},"v":{"ha":814,"x_min":37,"x_max":777,"o":"m 315 0 q 37 746 144 255 l 220 746 q 409 182 312 356 q 593 746 512 357 l 777 746 q 498 0 669 255 l 315 0 z "},"w":{"ha":814,"x_min":13,"x_max":801,"o":"m 180 0 q 13 746 59 368 l 196 746 q 267 200 208 439 q 329 567 329 383 l 486 567 q 547 200 486 382 q 618 746 604 422 l 801 746 q 635 0 754 368 l 465 0 q 408 254 433 106 q 349 0 383 109 l 180 0 z "},"x":{"ha":814,"x_min":58,"x_max":756,"o":"m 58 0 q 303 266 189 119 q 58 746 142 479 l 252 746 q 407 394 304 566 q 562 746 509 562 l 756 746 q 511 266 671 490 q 756 0 619 122 l 543 0 q 406 139 467 62 q 271 0 342 63 l 58 0 z "},"y":{"ha":814,"x_min":96,"x_max":718,"o":"m 96 746 l 279 746 l 279 288 q 306 186 279 218 q 380 151 335 151 q 484 197 440 151 q 535 354 535 251 l 535 746 l 718 746 l 718 114 q 640 -166 718 -64 q 392 -285 549 -285 q 125 -133 235 -285 l 271 -38 q 404 -117 319 -117 q 515 -50 477 -117 q 534 67 534 -14 q 351 -14 466 -14 q 165 66 240 -14 q 96 279 96 140 l 96 746 z "},"z":{"ha":814,"x_min":96,"x_max":718,"o":"m 96 0 l 96 170 q 463 576 352 364 l 120 576 l 120 746 l 718 746 q 346 170 639 429 l 718 170 l 718 0 l 96 0 z "},"{":{"ha":814,"x_min":96,"x_max":718,"o":"m 718 1194 l 718 1024 l 554 1024 q 492 963 492 1024 l 492 685 q 395 509 492 559 q 492 332 492 467 l 492 54 q 554 -7 492 -7 l 718 -7 l 718 -176 l 554 -176 q 315 54 315 -176 l 315 332 q 199 424 315 424 l 96 424 l 96 593 l 199 593 q 315 685 315 593 l 315 963 q 554 1194 315 1194 l 718 1194 z "},"|":{"ha":814,"x_min":322,"x_max":492,"o":"m 322 1194 l 492 1194 l 492 -176 l 322 -176 l 322 1194 z "},"}":{"ha":814,"x_min":96,"x_max":718,"o":"m 96 1194 l 260 1194 q 498 963 498 1194 l 498 685 q 615 593 498 593 l 718 593 l 718 424 l 615 424 q 498 332 498 424 l 498 54 q 260 -176 498 -176 l 96 -176 l 96 -7 l 260 -7 q 322 54 322 -7 l 322 332 q 418 509 322 467 q 322 685 322 559 l 322 963 q 260 1024 322 1024 l 96 1024 l 96 1194 z "},"~":{"ha":814,"x_min":96,"x_max":718,"o":"m 96 358 q 284 633 129 633 q 429 561 358 633 q 531 495 492 495 q 589 595 570 495 l 718 595 q 538 319 685 320 q 385 406 476 319 q 288 458 331 458 q 222 358 241 458 l 96 358 z "}," ":{"ha":814,"x_min":0,"x_max":0,"o":""},"¡":{"ha":814,"x_min":286,"x_max":528,"o":"m 407 760 q 492 726 457 760 q 528 640 528 691 q 492 553 528 588 q 407 519 456 519 q 321 553 355 519 q 286 640 286 590 q 322 725 286 690 q 407 760 357 760 m 512 -271 l 302 -271 l 329 495 l 485 495 l 512 -271 z "},"¢":{"ha":814,"x_min":85,"x_max":715,"o":"m 458 -176 l 356 -176 l 356 -10 q 170 98 245 7 q 85 373 85 202 q 170 648 85 545 q 356 756 245 739 l 356 914 l 458 914 l 458 756 q 644 648 569 739 q 715 499 695 586 l 528 499 q 515 528 522 515 q 458 582 492 566 l 458 163 q 515 216 492 178 q 529 247 523 229 l 715 247 q 644 98 695 161 q 458 -10 570 7 l 458 -176 m 356 164 l 356 583 q 299 530 320 568 q 268 373 268 474 q 299 216 268 264 q 356 164 322 180 z "},"£":{"ha":814,"x_min":46,"x_max":743,"o":"m 46 0 l 46 170 l 118 170 l 118 420 l 46 420 l 46 589 l 118 589 l 118 763 q 203 954 118 878 q 416 1031 288 1031 q 630 949 545 1031 q 712 745 712 871 l 537 745 q 503 830 536 798 q 415 865 467 865 q 334 835 366 865 q 301 747 301 804 l 301 589 l 531 589 l 531 420 l 301 420 l 301 170 l 743 170 l 743 0 l 46 0 z "},"¤":{"ha":814,"x_min":82,"x_max":732,"o":"m 307 491 q 332 423 307 450 q 399 396 358 396 q 469 422 444 396 q 494 491 494 448 q 470 557 494 532 q 401 585 443 585 q 333 561 357 585 q 307 491 307 534 m 202 827 l 295 726 q 401 749 344 749 q 515 723 463 749 l 612 827 l 732 705 l 636 607 q 661 493 661 556 q 638 382 661 433 l 732 287 l 612 161 l 519 259 q 401 232 467 232 q 291 255 342 232 l 202 161 l 82 287 l 169 375 q 142 493 142 429 q 170 614 142 559 l 82 705 l 202 827 z "},"¥":{"ha":814,"x_min":37,"x_max":777,"o":"m 315 0 l 315 271 l 96 271 l 96 414 l 309 414 l 266 495 l 96 495 l 96 637 l 195 637 q 37 1017 101 833 l 220 1017 q 378 637 293 814 l 439 637 q 593 1017 526 813 l 777 1017 q 621 637 715 833 l 718 637 l 718 495 l 549 495 l 505 414 l 718 414 l 718 271 l 498 271 l 498 0 l 315 0 z "},"¦":{"ha":814,"x_min":322,"x_max":492,"o":"m 322 1194 l 492 1194 l 492 563 l 322 563 l 322 1194 m 322 454 l 492 454 l 492 -176 l 322 -176 l 322 454 z "},"§":{"ha":814,"x_min":110,"x_max":704,"o":"m 158 238 l 334 238 q 355 176 334 201 q 421 146 383 146 q 483 160 459 146 q 506 197 506 173 q 437 252 506 230 l 298 297 q 110 508 110 358 q 146 632 110 576 l 310 557 q 292 511 292 536 q 351 449 292 468 l 515 396 q 680 201 680 342 q 585 33 680 99 q 416 -14 518 -14 q 219 71 292 -14 q 158 238 158 140 m 656 779 l 480 779 q 458 841 480 817 q 393 871 431 871 q 331 858 355 871 q 308 821 308 844 q 376 765 308 787 l 516 720 q 704 509 704 659 q 667 385 704 441 l 504 460 q 522 506 522 481 q 463 568 522 549 l 299 621 q 134 816 134 675 q 229 984 134 918 q 398 1031 296 1031 q 595 947 522 1031 q 656 779 656 877 z "},"¨":{"ha":814,"x_min":140,"x_max":674,"o":"m 553 1031 q 638 997 605 1031 q 674 911 674 960 q 639 825 674 859 q 553 791 604 791 q 468 824 503 791 q 431 911 431 859 q 468 997 431 962 q 553 1031 504 1031 m 261 1031 q 347 997 313 1031 q 382 911 382 960 q 347 825 382 859 q 261 791 312 791 q 176 824 211 791 q 140 911 140 859 q 176 997 140 962 q 261 1031 212 1031 z "},"©":{"ha":814,"x_min":101,"x_max":712,"o":"m 407 986 q 228 911 300 986 q 154 725 154 834 q 229 540 154 616 q 409 465 304 465 q 586 541 513 465 q 660 725 660 617 q 585 909 660 833 q 407 986 510 986 m 407 417 q 193 505 283 417 q 101 723 101 593 q 191 941 101 851 q 407 1031 281 1031 q 623 941 533 1031 q 712 724 712 852 q 623 507 712 597 q 407 417 533 417 m 578 673 q 537 576 568 620 q 408 511 492 511 q 278 576 328 511 q 233 732 233 635 q 278 878 233 825 q 408 940 329 940 q 537 874 483 940 q 578 776 572 832 l 458 776 q 449 805 456 794 q 408 829 434 829 q 366 805 379 829 q 351 732 351 781 q 366 649 351 680 q 408 621 378 621 q 448 646 433 621 q 456 673 454 656 l 578 673 z "},"ª":{"ha":814,"x_min":145,"x_max":669,"o":"m 262 965 q 407 1031 311 1031 q 537 963 491 1031 q 566 844 566 921 l 566 593 l 448 593 l 448 610 q 372 587 415 587 q 264 633 302 587 q 229 724 229 675 q 290 841 229 800 q 395 872 336 872 l 444 872 q 438 898 443 890 q 399 920 425 920 q 349 892 363 920 l 262 965 m 445 772 l 395 772 q 356 758 370 772 q 343 727 343 745 q 352 705 343 712 q 383 693 364 693 q 429 719 412 693 q 445 772 439 736 m 669 439 l 145 439 l 145 564 l 669 564 l 669 439 z "},"«":{"ha":814,"x_min":75,"x_max":739,"o":"m 594 167 l 376 492 l 376 526 l 594 852 l 739 751 l 555 510 l 739 267 l 594 167 m 294 167 l 75 492 l 75 526 l 294 852 l 438 751 l 255 510 l 438 267 l 294 167 z "},"¬":{"ha":814,"x_min":96,"x_max":718,"o":"m 96 593 l 718 593 l 718 179 l 549 179 l 549 424 l 96 424 l 96 593 z "},"­":{"ha":814,"x_min":96,"x_max":718,"o":"m 96 593 l 718 593 l 718 424 l 96 424 l 96 593 z "},"®":{"ha":814,"x_min":101,"x_max":712,"o":"m 263 515 l 263 937 l 420 937 q 530 899 486 937 q 578 788 578 857 q 533 684 578 730 q 513 668 524 675 l 597 553 q 660 725 660 626 q 585 909 660 833 q 407 986 510 986 q 228 911 300 986 q 154 725 154 833 q 229 540 154 616 q 409 465 304 465 q 558 515 494 465 l 480 515 l 399 634 l 383 634 l 383 515 l 263 515 m 382 840 l 382 734 l 420 734 q 453 752 439 734 q 463 788 462 763 q 452 823 463 808 q 420 840 439 840 l 382 840 m 407 417 q 193 505 283 417 q 101 723 101 593 q 191 941 101 851 q 407 1031 281 1031 q 623 941 533 1031 q 712 724 712 852 q 623 507 712 597 q 407 417 533 417 z "},"¯":{"ha":814,"x_min":96,"x_max":718,"o":"m 96 1208 l 718 1208 l 718 1039 l 96 1039 l 96 1208 z "},"°":{"ha":814,"x_min":203,"x_max":611,"o":"m 459 881 q 449 892 459 881 q 407 903 439 903 q 355 884 374 903 q 334 830 334 863 q 354 779 334 800 q 406 758 376 758 q 460 781 437 758 q 479 830 479 800 q 459 881 479 859 m 407 629 q 262 689 321 629 q 203 833 203 749 q 262 971 203 912 q 407 1031 321 1031 q 552 972 491 1031 q 611 830 611 915 q 553 687 611 743 q 407 629 492 629 z "},"±":{"ha":814,"x_min":96,"x_max":718,"o":"m 96 279 l 718 279 l 718 109 l 96 109 l 96 279 m 322 929 l 492 929 l 492 703 l 718 703 l 718 533 l 492 533 l 492 307 l 322 307 l 322 533 l 96 533 l 96 703 l 322 703 l 322 929 z "},"²":{"ha":814,"x_min":222,"x_max":591,"o":"m 222 838 q 271 966 222 915 q 407 1024 324 1024 q 546 970 497 1024 q 591 854 591 921 q 507 709 591 780 l 370 595 l 368 593 l 591 593 l 591 475 l 222 475 l 222 562 q 299 694 222 631 l 421 784 q 467 846 467 818 q 450 889 467 871 q 407 908 433 908 q 363 886 381 908 q 347 838 347 868 l 222 838 z "},"³":{"ha":814,"x_min":221,"x_max":593,"o":"m 221 654 l 346 654 q 359 605 346 621 q 406 584 377 584 q 452 606 437 584 q 465 653 465 625 q 446 705 465 682 q 384 726 429 726 l 384 825 q 429 832 419 825 q 446 864 446 844 q 435 893 446 881 q 403 907 422 907 q 370 895 385 907 q 358 864 358 884 l 237 864 q 283 979 237 933 q 401 1024 330 1024 q 521 982 473 1024 q 568 876 568 941 q 513 779 568 811 q 593 640 593 734 q 543 522 593 574 q 406 468 490 468 q 269 526 321 468 q 221 654 221 577 z "},"´":{"ha":814,"x_min":244,"x_max":570,"o":"m 570 943 l 388 608 l 244 675 l 391 1031 l 570 943 z "},"µ":{"ha":814,"x_min":96,"x_max":718,"o":"m 718 0 l 535 0 l 535 69 q 351 -14 466 -14 q 279 -4 313 -14 l 279 -271 l 96 -271 l 96 746 l 279 746 l 279 288 q 306 186 279 218 q 380 151 335 151 q 484 197 440 151 q 535 354 535 251 l 535 746 l 718 746 l 718 0 z "},"¶":{"ha":814,"x_min":70,"x_max":718,"o":"m 345 0 l 345 404 q 159 494 233 420 q 70 711 70 583 q 159 928 70 838 q 375 1017 250 1017 l 718 1017 l 718 0 l 569 0 l 569 861 l 500 861 l 500 0 l 345 0 z "},"·":{"ha":814,"x_min":286,"x_max":528,"o":"m 407 627 q 492 593 459 627 q 528 507 528 557 q 493 421 528 455 q 407 387 458 387 q 322 420 357 387 q 286 507 286 456 q 322 593 286 559 q 407 627 358 627 z "},"¸":{"ha":814,"x_min":298,"x_max":516,"o":"m 298 108 q 516 -114 516 50 q 309 -278 516 -278 l 309 -144 q 376 -67 376 -144 q 298 29 376 -9 l 298 108 z "},"¹":{"ha":814,"x_min":235,"x_max":579,"o":"m 362 1017 l 469 1017 l 469 593 l 579 593 l 579 475 l 235 475 l 235 593 l 345 593 l 345 862 l 235 743 l 235 893 l 362 1017 z "},"º":{"ha":814,"x_min":144,"x_max":669,"o":"m 449 892 q 407 920 435 920 q 365 892 378 920 q 351 809 351 862 q 365 725 351 755 q 407 697 378 697 q 449 725 436 697 q 463 808 463 755 q 449 892 463 863 m 277 965 q 407 1031 328 1031 q 536 965 486 1031 q 582 809 582 906 q 536 652 582 711 q 407 587 486 587 q 277 652 328 587 q 232 809 232 711 q 277 965 232 906 m 669 439 l 145 439 l 145 564 l 669 564 l 669 439 z "},"»":{"ha":814,"x_min":75,"x_max":739,"o":"m 220 167 l 75 267 l 258 510 l 75 751 l 220 852 l 438 526 l 438 492 l 220 167 m 520 167 l 376 267 l 559 510 l 376 751 l 520 852 l 739 526 l 739 492 l 520 167 z "},"¼":{"ha":814,"x_min":31,"x_max":774,"o":"m 648 0 l 648 109 l 397 109 q 667 543 448 358 l 774 543 l 774 0 l 648 0 m 665 975 l 756 924 l 248 43 l 157 94 l 665 975 m 159 1017 l 266 1017 l 266 593 l 349 593 l 349 475 l 58 475 l 58 593 l 141 593 l 141 862 l 31 743 l 31 893 l 159 1017 m 561 212 l 648 212 l 648 378 q 561 212 587 304 z "},"½":{"ha":814,"x_min":0,"x_max":814,"o":"m 618 975 l 709 924 l 200 43 l 109 94 l 618 975 m 445 0 l 445 87 q 522 219 445 156 l 644 309 q 689 372 689 343 q 672 414 689 396 q 629 433 655 433 q 585 412 604 433 q 570 363 570 393 l 445 363 q 493 492 445 440 q 629 549 547 549 q 768 496 720 549 q 814 380 814 446 q 729 235 814 305 l 593 121 l 591 119 l 814 119 l 814 0 l 445 0 m 127 1017 l 235 1017 l 235 593 l 311 593 l 311 475 l 34 475 l 34 593 l 110 593 l 110 862 l 0 743 l 0 893 l 127 1017 z "},"¾":{"ha":814,"x_min":22,"x_max":774,"o":"m 648 0 l 648 109 l 397 109 q 667 543 448 358 l 774 543 l 774 0 l 648 0 m 665 975 l 756 924 l 248 43 l 157 94 l 665 975 m 22 654 l 146 654 q 160 605 146 622 q 206 584 178 584 q 252 606 237 584 q 266 654 266 625 q 247 705 266 684 q 184 726 229 726 l 184 825 q 229 832 219 825 q 247 864 247 843 q 236 893 247 882 q 203 907 222 907 q 170 895 184 907 q 159 864 159 884 l 38 864 q 83 979 38 934 q 202 1024 130 1024 q 321 982 273 1024 q 368 876 368 941 q 313 779 368 811 q 393 640 393 735 q 343 522 393 573 q 206 468 290 468 q 68 526 121 468 q 22 654 22 577 m 561 212 l 648 212 l 648 378 q 561 212 587 304 z "},"¿":{"ha":814,"x_min":71,"x_max":743,"o":"m 407 760 q 492 726 457 760 q 528 640 528 691 q 492 553 528 588 q 407 519 456 519 q 321 553 355 519 q 286 640 286 590 q 321 726 286 692 q 407 760 356 760 m 743 54 q 656 -180 743 -87 q 407 -285 556 -285 q 155 -179 248 -285 q 71 47 71 -83 q 234 326 71 211 q 319 486 319 387 l 494 486 q 359 215 494 321 q 254 47 254 134 q 290 -64 254 -20 q 407 -120 336 -120 q 522 -65 478 -120 q 559 54 559 -18 l 743 54 z "},"À":{"ha":814,"x_min":3,"x_max":810,"o":"m 374 1309 l 463 1108 l 334 1044 l 202 1228 l 374 1309 m 497 580 q 407 865 464 711 q 317 580 351 711 l 497 580 m 3 0 q 315 1017 94 488 l 498 1017 q 810 0 728 488 l 627 0 q 534 424 591 216 l 281 424 q 186 0 224 218 l 3 0 z "},"Á":{"ha":814,"x_min":3,"x_max":810,"o":"m 422 1309 l 594 1228 l 463 1044 l 333 1108 l 422 1309 m 497 580 q 407 865 464 711 q 317 580 351 711 l 497 580 m 3 0 q 315 1017 94 488 l 498 1017 q 810 0 728 488 l 627 0 q 534 424 591 216 l 281 424 q 186 0 224 218 l 3 0 z "},"Â":{"ha":814,"x_min":3,"x_max":810,"o":"m 497 580 q 407 865 464 711 q 317 580 351 711 l 497 580 m 353 1309 l 459 1309 l 603 1116 l 494 1051 l 406 1177 l 317 1051 l 210 1116 l 353 1309 m 3 0 q 315 1017 94 488 l 498 1017 q 810 0 728 488 l 627 0 q 534 424 591 216 l 281 424 q 186 0 224 218 l 3 0 z "},"Ã":{"ha":814,"x_min":3,"x_max":810,"o":"m 497 580 q 407 865 464 711 q 317 580 351 711 l 497 580 m 203 1090 q 347 1278 229 1278 q 428 1230 399 1278 q 465 1190 452 1190 q 511 1250 502 1190 l 608 1250 q 464 1062 583 1062 q 382 1114 412 1062 q 347 1153 361 1153 q 300 1090 311 1153 l 203 1090 m 3 0 q 315 1017 94 488 l 498 1017 q 810 0 728 488 l 627 0 q 534 424 591 216 l 281 424 q 186 0 224 218 l 3 0 z "},"Ä":{"ha":814,"x_min":3,"x_max":810,"o":"m 497 580 q 407 865 464 711 q 317 580 351 711 l 497 580 m 541 1289 q 617 1258 587 1289 q 650 1181 650 1225 q 618 1103 650 1135 q 541 1072 585 1072 q 464 1103 495 1072 q 431 1181 431 1134 q 464 1258 431 1227 q 541 1289 496 1289 m 278 1289 q 355 1258 324 1289 q 387 1181 387 1225 q 355 1104 387 1135 q 278 1072 323 1072 q 202 1103 234 1072 q 169 1181 169 1134 q 202 1258 169 1227 q 278 1289 234 1289 m 3 0 q 315 1017 94 488 l 498 1017 q 810 0 728 488 l 627 0 q 534 424 591 216 l 281 424 q 186 0 224 218 l 3 0 z "},"Å":{"ha":814,"x_min":3,"x_max":810,"o":"m 497 580 q 407 865 464 711 q 317 580 351 711 l 497 580 m 405 1226 q 366 1211 382 1226 q 348 1171 348 1194 q 366 1130 348 1147 q 405 1114 382 1114 q 445 1131 427 1114 q 462 1171 462 1147 q 446 1211 462 1194 q 405 1226 431 1226 m 405 1309 q 504 1270 466 1309 q 545 1171 545 1226 q 505 1072 545 1111 q 405 1031 464 1031 q 307 1070 347 1031 q 264 1171 264 1112 q 306 1270 264 1230 q 405 1309 348 1309 m 3 0 q 315 1017 94 488 l 498 1017 q 810 0 728 488 l 627 0 q 534 424 591 216 l 281 424 q 186 0 224 218 l 3 0 z "},"Æ":{"ha":814,"x_min":7,"x_max":807,"o":"m 7 0 q 319 1017 106 549 l 764 1017 l 764 848 l 609 848 l 609 593 l 716 593 l 716 424 l 609 424 l 609 170 l 807 170 l 807 0 l 446 0 l 446 424 l 273 424 q 183 0 221 218 l 7 0 m 319 593 l 446 593 l 446 909 q 319 593 361 768 z "},"Ç":{"ha":814,"x_min":44,"x_max":737,"o":"m 737 258 q 694 154 720 201 q 485 -6 622 22 q 516 -114 516 -53 q 309 -278 516 -278 l 309 -144 q 376 -67 376 -144 q 353 -10 376 -36 q 119 153 200 11 q 44 509 44 286 q 119 864 44 729 q 407 1031 214 1031 q 694 863 602 1031 q 737 760 720 817 l 546 760 q 537 775 544 764 q 407 866 484 866 q 277 775 330 866 q 227 509 227 691 q 276 243 227 323 q 407 151 332 151 q 537 242 479 151 q 546 258 542 250 l 737 258 z "},"È":{"ha":814,"x_min":96,"x_max":718,"o":"m 374 1309 l 463 1108 l 334 1044 l 202 1228 l 374 1309 m 718 0 l 96 0 l 96 1017 l 672 1017 l 672 848 l 279 848 l 279 593 l 587 593 l 587 424 l 279 424 l 279 170 l 718 170 l 718 0 z "},"É":{"ha":814,"x_min":96,"x_max":718,"o":"m 422 1309 l 594 1228 l 463 1044 l 333 1108 l 422 1309 m 718 0 l 96 0 l 96 1017 l 672 1017 l 672 848 l 279 848 l 279 593 l 587 593 l 587 424 l 279 424 l 279 170 l 718 170 l 718 0 z "},"Ê":{"ha":814,"x_min":96,"x_max":718,"o":"m 353 1309 l 459 1309 l 603 1116 l 494 1051 l 406 1177 l 317 1051 l 210 1116 l 353 1309 m 718 0 l 96 0 l 96 1017 l 672 1017 l 672 848 l 279 848 l 279 593 l 587 593 l 587 424 l 279 424 l 279 170 l 718 170 l 718 0 z "},"Ë":{"ha":814,"x_min":96,"x_max":718,"o":"m 541 1289 q 617 1258 587 1289 q 650 1181 650 1225 q 618 1103 650 1135 q 541 1072 585 1072 q 464 1103 495 1072 q 431 1181 431 1134 q 464 1258 431 1227 q 541 1289 496 1289 m 278 1289 q 355 1258 324 1289 q 387 1181 387 1225 q 355 1104 387 1135 q 278 1072 323 1072 q 202 1103 234 1072 q 169 1181 169 1134 q 202 1258 169 1227 q 278 1289 234 1289 m 718 0 l 96 0 l 96 1017 l 672 1017 l 672 848 l 279 848 l 279 593 l 587 593 l 587 424 l 279 424 l 279 170 l 718 170 l 718 0 z "},"Ì":{"ha":814,"x_min":96,"x_max":718,"o":"m 374 1309 l 463 1108 l 334 1044 l 202 1228 l 374 1309 m 718 0 l 96 0 l 96 170 l 315 170 l 315 848 l 96 848 l 96 1017 l 718 1017 l 718 848 l 498 848 l 498 170 l 718 170 l 718 0 z "},"Í":{"ha":814,"x_min":96,"x_max":718,"o":"m 422 1309 l 594 1228 l 463 1044 l 333 1108 l 422 1309 m 718 0 l 96 0 l 96 170 l 315 170 l 315 848 l 96 848 l 96 1017 l 718 1017 l 718 848 l 498 848 l 498 170 l 718 170 l 718 0 z "},"Î":{"ha":814,"x_min":96,"x_max":718,"o":"m 353 1309 l 459 1309 l 603 1116 l 494 1051 l 406 1177 l 317 1051 l 210 1116 l 353 1309 m 718 0 l 96 0 l 96 170 l 315 170 l 315 848 l 96 848 l 96 1017 l 718 1017 l 718 848 l 498 848 l 498 170 l 718 170 l 718 0 z "},"Ï":{"ha":814,"x_min":96,"x_max":718,"o":"m 541 1289 q 617 1258 587 1289 q 650 1181 650 1225 q 618 1103 650 1135 q 541 1072 585 1072 q 464 1103 495 1072 q 431 1181 431 1134 q 464 1258 431 1227 q 541 1289 496 1289 m 278 1289 q 355 1258 324 1289 q 387 1181 387 1225 q 355 1104 387 1135 q 278 1072 323 1072 q 202 1103 234 1072 q 169 1181 169 1134 q 202 1258 169 1227 q 278 1289 234 1289 m 718 0 l 96 0 l 96 170 l 315 170 l 315 848 l 96 848 l 96 1017 l 718 1017 l 718 848 l 498 848 l 498 170 l 718 170 l 718 0 z "},"Ð":{"ha":814,"x_min":14,"x_max":770,"o":"m 71 0 l 71 438 l 14 438 l 14 581 l 71 581 l 71 1017 l 373 1017 q 694 850 602 1017 q 770 509 770 715 q 695 167 770 292 q 374 0 595 0 l 71 0 m 254 438 l 254 165 l 374 165 q 538 255 488 165 q 587 509 587 344 q 537 762 587 678 q 373 852 484 852 l 254 852 l 254 581 l 467 581 l 467 438 l 254 438 z "},"Ñ":{"ha":814,"x_min":71,"x_max":743,"o":"m 71 0 l 71 1017 l 254 1017 q 573 441 470 761 l 573 1017 l 743 1017 l 743 0 l 573 0 q 241 774 429 495 l 241 0 l 71 0 m 203 1090 q 347 1278 229 1278 q 428 1230 399 1278 q 465 1190 452 1190 q 511 1250 502 1190 l 608 1250 q 464 1062 583 1062 q 382 1114 412 1062 q 347 1153 361 1153 q 300 1090 311 1153 l 203 1090 z "},"Ò":{"ha":814,"x_min":44,"x_max":770,"o":"m 374 1309 l 463 1108 l 334 1044 l 202 1228 l 374 1309 m 407 -14 q 119 153 214 -14 q 44 509 44 286 q 119 864 44 731 q 407 1031 214 1031 q 694 863 602 1031 q 770 509 770 727 q 694 154 770 291 q 407 -14 602 -14 m 407 866 q 277 775 330 866 q 227 509 227 691 q 276 243 227 323 q 407 151 332 151 q 537 242 484 151 q 587 509 587 328 q 537 776 587 690 q 407 866 485 866 z "},"Ó":{"ha":814,"x_min":44,"x_max":770,"o":"m 422 1309 l 594 1228 l 463 1044 l 333 1108 l 422 1309 m 407 -14 q 119 153 214 -14 q 44 509 44 286 q 119 864 44 731 q 407 1031 214 1031 q 694 863 602 1031 q 770 509 770 727 q 694 154 770 291 q 407 -14 602 -14 m 407 866 q 277 775 330 866 q 227 509 227 691 q 276 243 227 323 q 407 151 332 151 q 537 242 484 151 q 587 509 587 328 q 537 776 587 690 q 407 866 485 866 z "},"Ô":{"ha":814,"x_min":44,"x_max":770,"o":"m 353 1309 l 459 1309 l 603 1116 l 494 1051 l 406 1177 l 317 1051 l 210 1116 l 353 1309 m 407 -14 q 119 153 214 -14 q 44 509 44 286 q 119 864 44 731 q 407 1031 214 1031 q 694 863 602 1031 q 770 509 770 727 q 694 154 770 291 q 407 -14 602 -14 m 407 866 q 277 775 330 866 q 227 509 227 691 q 276 243 227 323 q 407 151 332 151 q 537 242 484 151 q 587 509 587 328 q 537 776 587 690 q 407 866 485 866 z "},"Õ":{"ha":814,"x_min":44,"x_max":770,"o":"m 203 1090 q 347 1278 229 1278 q 428 1230 399 1278 q 465 1190 452 1190 q 511 1250 502 1190 l 608 1250 q 464 1062 583 1062 q 382 1114 412 1062 q 347 1153 361 1153 q 300 1090 311 1153 l 203 1090 m 407 -14 q 119 153 214 -14 q 44 509 44 286 q 119 864 44 731 q 407 1031 214 1031 q 694 863 602 1031 q 770 509 770 727 q 694 154 770 291 q 407 -14 602 -14 m 407 866 q 277 775 330 866 q 227 509 227 691 q 276 243 227 323 q 407 151 332 151 q 537 242 484 151 q 587 509 587 328 q 537 776 587 690 q 407 866 485 866 z "},"Ö":{"ha":814,"x_min":44,"x_max":770,"o":"m 541 1289 q 617 1258 587 1289 q 650 1181 650 1225 q 618 1103 650 1135 q 541 1072 585 1072 q 464 1103 495 1072 q 431 1181 431 1134 q 464 1258 431 1227 q 541 1289 496 1289 m 278 1289 q 355 1258 324 1289 q 387 1181 387 1225 q 355 1104 387 1135 q 278 1072 323 1072 q 202 1103 234 1072 q 169 1181 169 1134 q 202 1258 169 1227 q 278 1289 234 1289 m 407 -14 q 119 153 214 -14 q 44 509 44 286 q 119 864 44 731 q 407 1031 214 1031 q 694 863 602 1031 q 770 509 770 727 q 694 154 770 291 q 407 -14 602 -14 m 407 866 q 277 775 330 866 q 227 509 227 691 q 276 243 227 323 q 407 151 332 151 q 537 242 484 151 q 587 509 587 328 q 537 776 587 690 q 407 866 485 866 z "},"×":{"ha":814,"x_min":127,"x_max":687,"o":"m 247 789 l 407 629 l 567 789 l 687 669 l 527 509 l 687 349 l 567 229 l 407 389 l 247 229 l 127 349 l 287 509 l 127 669 l 247 789 z "},"Ø":{"ha":814,"x_min":44,"x_max":770,"o":"m 519 804 q 407 866 471 866 q 277 775 330 866 q 227 509 227 691 q 243 328 227 401 l 519 804 m 142 -51 l 55 1 l 132 134 q 119 153 125 143 q 44 509 44 279 q 119 864 44 731 q 407 1031 214 1031 q 612 965 530 1031 l 671 1069 l 760 1018 l 682 884 q 694 863 688 874 q 770 509 770 730 q 694 154 770 291 q 407 -14 602 -14 q 202 53 285 -14 l 142 -51 m 296 214 q 407 151 345 151 q 537 242 484 151 q 587 509 587 328 q 570 689 587 615 l 296 214 z "},"Ù":{"ha":814,"x_min":71,"x_max":743,"o":"m 374 1309 l 463 1108 l 334 1044 l 202 1228 l 374 1309 m 71 1017 l 254 1017 l 254 313 q 292 203 254 247 q 407 151 335 151 q 522 204 475 151 q 559 313 559 246 l 559 1017 l 743 1017 l 743 306 q 654 85 743 178 q 407 -14 559 -14 q 158 85 257 -14 q 71 306 71 172 l 71 1017 z "},"Ú":{"ha":814,"x_min":71,"x_max":743,"o":"m 422 1309 l 594 1228 l 463 1044 l 333 1108 l 422 1309 m 71 1017 l 254 1017 l 254 313 q 292 203 254 247 q 407 151 335 151 q 522 204 475 151 q 559 313 559 246 l 559 1017 l 743 1017 l 743 306 q 654 85 743 178 q 407 -14 559 -14 q 158 85 257 -14 q 71 306 71 172 l 71 1017 z "},"Û":{"ha":814,"x_min":71,"x_max":743,"o":"m 353 1309 l 459 1309 l 603 1116 l 494 1051 l 406 1177 l 317 1051 l 210 1116 l 353 1309 m 71 1017 l 254 1017 l 254 313 q 292 203 254 247 q 407 151 335 151 q 522 204 475 151 q 559 313 559 246 l 559 1017 l 743 1017 l 743 306 q 654 85 743 178 q 407 -14 559 -14 q 158 85 257 -14 q 71 306 71 172 l 71 1017 z "},"Ü":{"ha":814,"x_min":71,"x_max":743,"o":"m 541 1289 q 617 1258 587 1289 q 650 1181 650 1225 q 618 1103 650 1135 q 541 1072 585 1072 q 464 1103 495 1072 q 431 1181 431 1134 q 464 1258 431 1227 q 541 1289 496 1289 m 278 1289 q 355 1258 324 1289 q 387 1181 387 1225 q 355 1104 387 1135 q 278 1072 323 1072 q 202 1103 234 1072 q 169 1181 169 1134 q 202 1258 169 1227 q 278 1289 234 1289 m 71 1017 l 254 1017 l 254 313 q 292 203 254 247 q 407 151 335 151 q 522 204 475 151 q 559 313 559 246 l 559 1017 l 743 1017 l 743 306 q 654 85 743 178 q 407 -14 559 -14 q 158 85 257 -14 q 71 306 71 172 l 71 1017 z "},"Ý":{"ha":814,"x_min":37,"x_max":777,"o":"m 422 1309 l 594 1228 l 463 1044 l 333 1108 l 422 1309 m 315 0 l 315 401 q 37 1017 139 726 l 220 1017 q 408 577 306 779 q 593 1017 514 778 l 777 1017 q 498 401 679 726 l 498 0 l 315 0 z "},"Þ":{"ha":814,"x_min":71,"x_max":743,"o":"m 254 311 l 370 311 q 503 357 457 311 q 559 500 559 412 q 502 643 559 590 q 370 690 450 690 l 254 690 l 254 311 m 71 0 l 71 1017 l 254 1017 l 254 855 l 370 855 q 621 770 519 855 q 743 501 743 668 q 619 229 743 332 q 370 146 519 146 l 254 146 l 254 0 l 71 0 z "},"ß":{"ha":814,"x_min":104,"x_max":743,"o":"m 104 0 l 104 745 q 186 949 104 870 q 399 1031 271 1031 q 613 949 528 1031 q 698 745 698 868 q 590 547 698 618 q 743 300 743 456 q 654 83 743 174 q 376 -14 560 -14 l 376 151 q 522 201 475 151 q 559 309 559 242 q 513 422 559 372 q 364 469 468 469 l 364 620 q 478 644 448 620 q 522 734 522 683 q 491 826 522 793 q 401 865 454 865 q 315 832 344 865 q 287 745 287 802 l 287 0 l 104 0 z "},"à":{"ha":814,"x_min":92,"x_max":710,"o":"m 384 1031 l 473 830 l 343 766 l 212 950 l 384 1031 m 710 0 l 527 0 l 527 68 q 348 -14 459 -14 q 153 62 222 -14 q 92 219 92 131 q 198 418 92 347 q 394 473 281 473 l 523 473 q 506 545 520 524 q 415 593 474 593 q 280 522 338 593 l 151 639 q 419 760 260 760 q 656 646 573 760 q 710 439 710 572 l 710 0 m 526 313 l 396 313 q 298 286 334 313 q 269 225 269 264 q 299 171 269 194 q 372 151 325 151 q 468 191 432 151 q 526 313 517 245 z "},"á":{"ha":814,"x_min":92,"x_max":710,"o":"m 414 1031 l 587 950 l 455 766 l 326 830 l 414 1031 m 710 0 l 527 0 l 527 68 q 348 -14 459 -14 q 153 62 222 -14 q 92 219 92 131 q 198 418 92 347 q 394 473 281 473 l 523 473 q 506 545 520 524 q 415 593 474 593 q 280 522 338 593 l 151 639 q 419 760 260 760 q 656 646 573 760 q 710 439 710 572 l 710 0 m 526 313 l 396 313 q 298 286 334 313 q 269 225 269 264 q 299 171 269 194 q 372 151 325 151 q 468 191 432 151 q 526 313 517 245 z "},"â":{"ha":814,"x_min":92,"x_max":710,"o":"m 354 1031 l 460 1031 l 604 838 l 494 773 l 407 899 l 318 773 l 210 838 l 354 1031 m 710 0 l 527 0 l 527 68 q 348 -14 459 -14 q 153 62 222 -14 q 92 219 92 131 q 198 418 92 347 q 394 473 281 473 l 523 473 q 506 545 520 524 q 415 593 474 593 q 280 522 338 593 l 151 639 q 419 760 260 760 q 656 646 573 760 q 710 439 710 572 l 710 0 m 526 313 l 396 313 q 298 286 334 313 q 269 225 269 264 q 299 171 269 194 q 372 151 325 151 q 468 191 432 151 q 526 313 517 245 z "},"ã":{"ha":814,"x_min":92,"x_max":710,"o":"m 203 821 q 347 1009 229 1009 q 428 962 399 1009 q 465 921 452 921 q 511 981 502 921 l 608 981 q 464 793 583 793 q 382 846 412 793 q 347 884 361 884 q 300 821 311 884 l 203 821 m 710 0 l 527 0 l 527 68 q 348 -14 459 -14 q 153 62 222 -14 q 92 219 92 131 q 198 418 92 347 q 394 473 281 473 l 523 473 q 506 545 520 524 q 415 593 474 593 q 280 522 338 593 l 151 639 q 419 760 260 760 q 656 646 573 760 q 710 439 710 572 l 710 0 m 526 313 l 396 313 q 298 286 334 313 q 269 225 269 264 q 299 171 269 194 q 372 151 325 151 q 468 191 432 151 q 526 313 517 245 z "},"ä":{"ha":814,"x_min":92,"x_max":710,"o":"m 710 0 l 527 0 l 527 68 q 348 -14 459 -14 q 153 62 222 -14 q 92 219 92 131 q 198 418 92 347 q 394 473 281 473 l 523 473 q 506 545 520 524 q 415 593 474 593 q 280 522 338 593 l 151 639 q 419 760 260 760 q 656 646 573 760 q 710 439 710 572 l 710 0 m 526 313 l 396 313 q 298 286 334 313 q 269 225 269 264 q 299 171 269 194 q 372 151 325 151 q 468 191 432 151 q 526 313 517 245 m 538 1016 q 615 985 585 1016 q 648 908 648 953 q 616 831 648 862 q 538 800 583 800 q 462 830 493 800 q 429 908 429 861 q 462 985 429 954 q 538 1016 494 1016 m 276 1016 q 353 985 322 1016 q 385 908 385 953 q 353 831 385 863 q 276 800 321 800 q 200 830 232 800 q 167 908 167 861 q 200 985 167 954 q 276 1016 232 1016 z "},"å":{"ha":814,"x_min":92,"x_max":710,"o":"m 407 968 q 368 953 385 968 q 350 913 350 937 q 368 872 350 889 q 407 857 384 857 q 447 873 429 857 q 464 913 464 889 q 448 953 464 936 q 407 968 433 968 m 407 1051 q 506 1012 468 1051 q 547 913 547 968 q 507 814 547 853 q 407 774 466 774 q 309 812 349 774 q 267 913 267 854 q 308 1012 267 972 q 407 1051 350 1051 m 710 0 l 527 0 l 527 68 q 348 -14 459 -14 q 153 62 222 -14 q 92 219 92 131 q 198 418 92 347 q 394 473 281 473 l 523 473 q 506 545 520 524 q 415 593 474 593 q 280 522 338 593 l 151 639 q 419 760 260 760 q 656 646 573 760 q 710 439 710 572 l 710 0 m 526 313 l 396 313 q 298 286 334 313 q 269 225 269 264 q 299 171 269 194 q 372 151 325 151 q 468 191 432 151 q 526 313 517 245 z "},"æ":{"ha":814,"x_min":28,"x_max":786,"o":"m 786 257 q 724 60 786 132 q 553 -14 661 -14 q 457 0 494 -14 l 321 0 q 261 -14 295 -14 q 90 56 149 -14 q 28 243 28 127 q 95 427 28 351 q 275 498 159 498 l 332 498 l 332 517 q 317 571 332 548 q 256 606 294 606 q 193 583 218 606 q 157 541 168 560 l 33 631 q 77 696 50 669 q 261 760 139 760 q 408 699 347 760 q 553 760 467 760 q 724 693 663 760 q 786 513 786 625 l 786 382 l 485 262 l 485 248 q 499 172 485 195 q 553 144 516 144 q 612 177 589 144 q 632 257 632 209 l 786 257 m 485 414 l 632 467 l 632 488 q 615 566 632 541 q 557 602 591 602 q 503 572 522 602 q 485 488 485 546 l 485 414 m 332 334 l 275 334 q 204 304 224 334 q 187 243 187 279 q 204 180 187 203 q 267 144 230 144 q 319 171 296 144 q 332 231 332 186 l 332 334 z "},"ç":{"ha":814,"x_min":85,"x_max":715,"o":"m 715 247 q 644 98 695 161 q 484 -5 578 18 q 516 -114 516 -52 q 309 -278 516 -278 l 309 -144 q 376 -67 376 -144 q 353 -9 376 -35 q 170 98 243 8 q 85 373 85 202 q 170 648 85 544 q 407 760 261 760 q 644 648 553 760 q 715 499 695 585 l 528 499 q 515 528 522 515 q 407 592 477 592 q 299 530 333 592 q 268 373 268 474 q 299 216 268 266 q 409 154 338 154 q 515 216 477 154 q 529 247 523 229 l 715 247 z "},"è":{"ha":814,"x_min":85,"x_max":729,"o":"m 384 1031 l 473 830 l 343 766 l 212 950 l 384 1031 m 715 247 q 644 98 695 161 q 407 -14 553 -14 q 170 98 261 -14 q 85 373 85 202 q 170 648 85 544 q 407 760 261 760 q 644 648 553 760 q 729 382 729 544 l 278 268 q 299 216 286 237 q 409 154 337 154 q 515 216 477 154 q 529 247 523 229 l 715 247 m 269 408 l 533 477 q 515 528 526 505 q 407 592 481 592 q 299 530 333 592 q 269 408 273 484 z "},"é":{"ha":814,"x_min":85,"x_max":729,"o":"m 414 1031 l 587 950 l 455 766 l 326 830 l 414 1031 m 715 247 q 644 98 695 161 q 407 -14 553 -14 q 170 98 261 -14 q 85 373 85 202 q 170 648 85 544 q 407 760 261 760 q 644 648 553 760 q 729 382 729 544 l 278 268 q 299 216 286 237 q 409 154 337 154 q 515 216 477 154 q 529 247 523 229 l 715 247 m 269 408 l 533 477 q 515 528 526 505 q 407 592 481 592 q 299 530 333 592 q 269 408 273 484 z "},"ê":{"ha":814,"x_min":85,"x_max":729,"o":"m 354 1031 l 460 1031 l 604 838 l 494 773 l 407 899 l 318 773 l 210 838 l 354 1031 m 715 247 q 644 98 695 161 q 407 -14 553 -14 q 170 98 261 -14 q 85 373 85 202 q 170 648 85 544 q 407 760 261 760 q 644 648 553 760 q 729 382 729 544 l 278 268 q 299 216 286 237 q 409 154 337 154 q 515 216 477 154 q 529 247 523 229 l 715 247 m 269 408 l 533 477 q 515 528 526 505 q 407 592 481 592 q 299 530 333 592 q 269 408 273 484 z "},"ë":{"ha":814,"x_min":85,"x_max":729,"o":"m 538 1016 q 615 985 585 1016 q 648 908 648 953 q 616 831 648 862 q 538 800 583 800 q 462 830 493 800 q 429 908 429 861 q 462 985 429 954 q 538 1016 494 1016 m 276 1016 q 353 985 322 1016 q 385 908 385 953 q 353 831 385 863 q 276 800 321 800 q 200 830 232 800 q 167 908 167 861 q 200 985 167 954 q 276 1016 232 1016 m 715 247 q 644 98 695 161 q 407 -14 553 -14 q 170 98 261 -14 q 85 373 85 202 q 170 648 85 544 q 407 760 261 760 q 644 648 553 760 q 729 382 729 544 l 278 268 q 299 216 286 237 q 409 154 337 154 q 515 216 477 154 q 529 247 523 229 l 715 247 m 269 408 l 533 477 q 515 528 526 505 q 407 592 481 592 q 299 530 333 592 q 269 408 273 484 z "},"ì":{"ha":814,"x_min":96,"x_max":803,"o":"m 384 1031 l 473 830 l 343 766 l 212 950 l 384 1031 m 803 77 q 593 -14 726 -14 q 381 66 455 -14 q 315 281 315 136 l 315 576 l 96 576 l 96 746 l 498 746 l 498 292 q 524 183 498 213 q 600 151 551 151 q 707 206 660 151 l 803 77 z "},"í":{"ha":814,"x_min":96,"x_max":803,"o":"m 414 1031 l 587 950 l 455 766 l 326 830 l 414 1031 m 803 77 q 593 -14 726 -14 q 381 66 455 -14 q 315 281 315 136 l 315 576 l 96 576 l 96 746 l 498 746 l 498 292 q 524 183 498 213 q 600 151 551 151 q 707 206 660 151 l 803 77 z "},"î":{"ha":814,"x_min":96,"x_max":803,"o":"m 354 1031 l 460 1031 l 604 838 l 494 773 l 407 899 l 318 773 l 210 838 l 354 1031 m 803 77 q 593 -14 726 -14 q 381 66 455 -14 q 315 281 315 136 l 315 576 l 96 576 l 96 746 l 498 746 l 498 292 q 524 183 498 213 q 600 151 551 151 q 707 206 660 151 l 803 77 z "},"ï":{"ha":814,"x_min":96,"x_max":803,"o":"m 508 1016 q 585 985 554 1016 q 617 908 617 953 q 585 831 617 862 q 508 800 553 800 q 431 830 463 800 q 399 908 399 861 q 431 985 399 954 q 508 1016 464 1016 m 245 1016 q 322 985 292 1016 q 355 908 355 953 q 323 831 355 863 q 245 800 291 800 q 170 830 201 800 q 136 908 136 861 q 170 985 136 954 q 245 1016 201 1016 m 803 77 q 593 -14 726 -14 q 381 66 455 -14 q 315 281 315 136 l 315 576 l 96 576 l 96 746 l 498 746 l 498 292 q 524 183 498 213 q 600 151 551 151 q 707 206 660 151 l 803 77 z "},"ð":{"ha":814,"x_min":58,"x_max":798,"o":"m 196 968 q 390 1031 282 1031 q 575 977 498 1031 l 693 1072 l 798 958 l 677 861 q 756 503 756 732 q 681 152 756 267 q 393 -14 572 -14 q 142 97 233 -14 q 58 336 58 199 q 154 581 58 481 q 391 677 248 677 q 577 574 495 677 q 546 755 570 696 l 465 690 l 366 808 l 439 868 q 396 875 419 875 q 287 828 341 875 l 196 968 m 546 324 q 513 435 546 389 q 395 496 470 496 q 279 439 323 496 q 241 325 241 389 q 279 208 241 258 q 395 152 323 152 q 513 213 470 152 q 546 324 546 258 z "},"ñ":{"ha":814,"x_min":96,"x_max":718,"o":"m 203 821 q 347 1009 229 1009 q 428 962 399 1009 q 465 921 452 921 q 511 981 502 921 l 608 981 q 464 793 583 793 q 382 846 412 793 q 347 884 361 884 q 300 821 311 884 l 203 821 m 96 0 l 96 746 l 279 746 l 279 677 q 463 760 348 760 q 649 680 574 760 q 718 467 718 606 l 718 0 l 535 0 l 535 458 q 508 560 535 528 q 433 595 479 595 q 330 549 374 595 q 279 392 279 495 l 279 0 l 96 0 z "},"ò":{"ha":814,"x_min":85,"x_max":729,"o":"m 384 1031 l 473 830 l 343 766 l 212 950 l 384 1031 m 407 592 q 299 530 334 592 q 268 373 268 474 q 299 216 268 266 q 409 154 338 154 q 515 216 476 154 q 546 373 546 267 q 515 528 546 475 q 407 592 477 592 m 644 98 q 407 -14 553 -14 q 170 98 261 -14 q 85 373 85 202 q 170 648 85 544 q 407 760 261 760 q 644 648 553 760 q 729 373 729 544 q 644 98 729 202 z "},"ó":{"ha":814,"x_min":85,"x_max":729,"o":"m 414 1031 l 587 950 l 455 766 l 326 830 l 414 1031 m 407 592 q 299 530 334 592 q 268 373 268 474 q 299 216 268 266 q 409 154 338 154 q 515 216 476 154 q 546 373 546 267 q 515 528 546 475 q 407 592 477 592 m 644 98 q 407 -14 553 -14 q 170 98 261 -14 q 85 373 85 202 q 170 648 85 544 q 407 760 261 760 q 644 648 553 760 q 729 373 729 544 q 644 98 729 202 z "},"ô":{"ha":814,"x_min":85,"x_max":729,"o":"m 354 1031 l 460 1031 l 604 838 l 494 773 l 407 899 l 318 773 l 210 838 l 354 1031 m 407 592 q 299 530 334 592 q 268 373 268 474 q 299 216 268 266 q 409 154 338 154 q 515 216 476 154 q 546 373 546 267 q 515 528 546 475 q 407 592 477 592 m 644 98 q 407 -14 553 -14 q 170 98 261 -14 q 85 373 85 202 q 170 648 85 544 q 407 760 261 760 q 644 648 553 760 q 729 373 729 544 q 644 98 729 202 z "},"õ":{"ha":814,"x_min":85,"x_max":729,"o":"m 203 821 q 347 1009 229 1009 q 428 962 399 1009 q 465 921 452 921 q 511 981 502 921 l 608 981 q 464 793 583 793 q 382 846 412 793 q 347 884 361 884 q 300 821 311 884 l 203 821 m 407 592 q 299 530 334 592 q 268 373 268 474 q 299 216 268 266 q 409 154 338 154 q 515 216 476 154 q 546 373 546 267 q 515 528 546 475 q 407 592 477 592 m 644 98 q 407 -14 553 -14 q 170 98 261 -14 q 85 373 85 202 q 170 648 85 544 q 407 760 261 760 q 644 648 553 760 q 729 373 729 544 q 644 98 729 202 z "},"ö":{"ha":814,"x_min":85,"x_max":729,"o":"m 538 1016 q 615 985 585 1016 q 648 908 648 953 q 616 831 648 862 q 538 800 583 800 q 462 830 493 800 q 429 908 429 861 q 462 985 429 954 q 538 1016 494 1016 m 276 1016 q 353 985 322 1016 q 385 908 385 953 q 353 831 385 863 q 276 800 321 800 q 200 830 232 800 q 167 908 167 861 q 200 985 167 954 q 276 1016 232 1016 m 407 592 q 299 530 334 592 q 268 373 268 474 q 299 216 268 266 q 409 154 338 154 q 515 216 476 154 q 546 373 546 267 q 515 528 546 475 q 407 592 477 592 m 644 98 q 407 -14 553 -14 q 170 98 261 -14 q 85 373 85 202 q 170 648 85 544 q 407 760 261 760 q 644 648 553 760 q 729 373 729 544 q 644 98 729 202 z "},"÷":{"ha":814,"x_min":96,"x_max":718,"o":"m 407 897 q 492 863 459 897 q 528 777 528 827 q 493 691 528 725 q 407 657 458 657 q 322 690 357 657 q 286 777 286 726 q 322 863 286 829 q 407 897 358 897 m 407 118 q 322 151 357 118 q 286 238 286 186 q 322 324 286 290 q 407 358 358 358 q 492 324 459 358 q 528 238 528 288 q 493 152 528 186 q 407 118 458 118 m 96 593 l 718 593 l 718 424 l 96 424 l 96 593 z "},"ø":{"ha":814,"x_min":85,"x_max":729,"o":"m 464 578 q 407 592 439 592 q 299 530 333 592 q 268 373 268 474 q 280 260 268 305 l 464 578 m 218 -51 l 131 1 l 180 86 l 170 98 q 85 373 85 202 q 170 648 85 544 q 407 760 261 760 q 549 726 486 760 l 593 803 l 682 752 l 631 663 q 644 648 637 656 q 729 373 729 546 q 644 98 729 202 q 407 -14 553 -14 q 260 22 325 -14 l 218 -51 m 346 170 q 409 154 373 154 q 515 216 477 154 q 546 373 546 267 q 531 491 546 444 l 346 170 z "},"ù":{"ha":814,"x_min":96,"x_max":718,"o":"m 384 1031 l 473 830 l 343 766 l 212 950 l 384 1031 m 718 0 l 535 0 l 535 69 q 351 -14 466 -14 q 165 66 240 -14 q 96 279 96 140 l 96 746 l 279 746 l 279 288 q 306 186 279 218 q 380 151 335 151 q 484 197 440 151 q 535 354 535 251 l 535 746 l 718 746 l 718 0 z "},"ú":{"ha":814,"x_min":96,"x_max":718,"o":"m 414 1031 l 587 950 l 455 766 l 326 830 l 414 1031 m 718 0 l 535 0 l 535 69 q 351 -14 466 -14 q 165 66 240 -14 q 96 279 96 140 l 96 746 l 279 746 l 279 288 q 306 186 279 218 q 380 151 335 151 q 484 197 440 151 q 535 354 535 251 l 535 746 l 718 746 l 718 0 z "},"û":{"ha":814,"x_min":96,"x_max":718,"o":"m 354 1031 l 460 1031 l 604 838 l 494 773 l 407 899 l 318 773 l 210 838 l 354 1031 m 718 0 l 535 0 l 535 69 q 351 -14 466 -14 q 165 66 240 -14 q 96 279 96 140 l 96 746 l 279 746 l 279 288 q 306 186 279 218 q 380 151 335 151 q 484 197 440 151 q 535 354 535 251 l 535 746 l 718 746 l 718 0 z "},"ü":{"ha":814,"x_min":96,"x_max":718,"o":"m 538 1016 q 615 985 585 1016 q 648 908 648 953 q 616 831 648 862 q 538 800 583 800 q 462 830 493 800 q 429 908 429 861 q 462 985 429 954 q 538 1016 494 1016 m 276 1016 q 353 985 322 1016 q 385 908 385 953 q 353 831 385 863 q 276 800 321 800 q 200 830 232 800 q 167 908 167 861 q 200 985 167 954 q 276 1016 232 1016 m 718 0 l 535 0 l 535 69 q 351 -14 466 -14 q 165 66 240 -14 q 96 279 96 140 l 96 746 l 279 746 l 279 288 q 306 186 279 218 q 380 151 335 151 q 484 197 440 151 q 535 354 535 251 l 535 746 l 718 746 l 718 0 z "},"ý":{"ha":814,"x_min":96,"x_max":718,"o":"m 414 1031 l 587 950 l 455 766 l 326 830 l 414 1031 m 96 746 l 279 746 l 279 288 q 306 186 279 218 q 380 151 335 151 q 484 197 440 151 q 535 354 535 251 l 535 746 l 718 746 l 718 114 q 640 -166 718 -64 q 392 -285 549 -285 q 125 -133 235 -285 l 271 -38 q 404 -117 319 -117 q 515 -50 477 -117 q 534 67 534 -14 q 351 -14 466 -14 q 165 66 240 -14 q 96 279 96 140 l 96 746 z "},"þ":{"ha":814,"x_min":96,"x_max":729,"o":"m 414 154 q 515 218 479 154 q 546 373 546 273 q 515 530 546 477 q 412 592 478 592 q 309 530 347 592 q 277 373 277 479 q 307 218 277 271 q 414 154 343 154 m 96 1017 l 279 1017 l 279 692 q 435 760 342 760 q 644 648 553 760 q 729 373 729 544 q 644 98 729 202 q 435 -14 553 -14 q 279 57 341 -14 l 279 -271 l 96 -271 l 96 1017 z "},"ÿ":{"ha":814,"x_min":96,"x_max":718,"o":"m 538 1016 q 615 985 585 1016 q 648 908 648 953 q 616 831 648 862 q 538 800 583 800 q 462 830 493 800 q 429 908 429 861 q 462 985 429 954 q 538 1016 494 1016 m 276 1016 q 353 985 322 1016 q 385 908 385 953 q 353 831 385 863 q 276 800 321 800 q 200 830 232 800 q 167 908 167 861 q 200 985 167 954 q 276 1016 232 1016 m 96 746 l 279 746 l 279 288 q 306 186 279 218 q 380 151 335 151 q 484 197 440 151 q 535 354 535 251 l 535 746 l 718 746 l 718 114 q 640 -166 718 -64 q 392 -285 549 -285 q 125 -133 235 -285 l 271 -38 q 404 -117 319 -117 q 515 -50 477 -117 q 534 67 534 -14 q 351 -14 466 -14 q 165 66 240 -14 q 96 279 96 140 l 96 746 z "},"Ā":{"ha":814,"x_min":3,"x_max":810,"o":"m 497 580 q 407 865 464 711 q 317 580 351 711 l 497 580 m 251 1241 l 568 1241 l 568 1099 l 251 1099 l 251 1241 m 3 0 q 315 1017 94 488 l 498 1017 q 810 0 728 488 l 627 0 q 534 424 591 216 l 281 424 q 186 0 224 218 l 3 0 z "},"ā":{"ha":814,"x_min":92,"x_max":710,"o":"m 251 959 l 568 959 l 568 817 l 251 817 l 251 959 m 710 0 l 527 0 l 527 68 q 348 -14 459 -14 q 153 62 222 -14 q 92 219 92 131 q 198 418 92 347 q 394 473 281 473 l 523 473 q 506 545 520 524 q 415 593 474 593 q 280 522 338 593 l 151 639 q 419 760 260 760 q 656 646 573 760 q 710 439 710 572 l 710 0 m 526 313 l 396 313 q 298 286 334 313 q 269 225 269 264 q 299 171 269 194 q 372 151 325 151 q 468 191 432 151 q 526 313 517 245 z "},"Ă":{"ha":814,"x_min":3,"x_max":810,"o":"m 497 580 q 407 865 464 711 q 317 580 351 711 l 497 580 m 212 1262 l 318 1262 q 406 1210 361 1210 q 496 1262 460 1210 l 601 1262 q 406 1073 561 1073 q 212 1262 244 1073 m 3 0 q 315 1017 94 488 l 498 1017 q 810 0 728 488 l 627 0 q 534 424 591 216 l 281 424 q 186 0 224 218 l 3 0 z "},"ă":{"ha":814,"x_min":92,"x_max":710,"o":"m 212 987 l 318 987 q 406 935 361 935 q 496 987 460 935 l 601 987 q 406 798 561 798 q 212 987 244 798 m 710 0 l 527 0 l 527 68 q 348 -14 459 -14 q 153 62 222 -14 q 92 219 92 131 q 198 418 92 347 q 394 473 281 473 l 523 473 q 506 545 520 524 q 415 593 474 593 q 280 522 338 593 l 151 639 q 419 760 260 760 q 656 646 573 760 q 710 439 710 572 l 710 0 m 526 313 l 396 313 q 298 286 334 313 q 269 225 269 264 q 299 171 269 194 q 372 151 325 151 q 468 191 432 151 q 526 313 517 245 z "},"Ą":{"ha":814,"x_min":3,"x_max":810,"o":"m 497 580 q 407 865 464 711 q 317 580 351 711 l 497 580 m 3 0 q 315 1017 94 488 l 498 1017 q 810 0 728 488 l 703 0 q 670 -67 670 -30 q 738 -144 670 -144 l 738 -278 q 530 -114 530 -278 q 618 52 530 -10 q 534 424 585 241 l 281 424 q 186 0 224 218 l 3 0 z "},"ą":{"ha":814,"x_min":92,"x_max":710,"o":"m 526 313 l 396 313 q 298 286 334 313 q 269 225 269 264 q 299 171 269 194 q 372 151 325 151 q 468 191 432 151 q 526 313 517 245 m 710 0 l 663 0 q 630 -67 630 -30 q 698 -144 630 -144 l 698 -278 q 490 -114 490 -278 q 527 2 490 -47 l 527 68 q 348 -14 459 -14 q 153 62 222 -14 q 92 219 92 131 q 198 418 92 347 q 394 473 281 473 l 523 473 q 506 545 520 524 q 415 593 474 593 q 280 522 338 593 l 151 639 q 419 760 260 760 q 656 646 573 760 q 710 439 710 572 l 710 0 z "},"Ć":{"ha":814,"x_min":44,"x_max":737,"o":"m 422 1309 l 594 1228 l 463 1044 l 333 1108 l 422 1309 m 737 258 q 694 154 720 201 q 407 -14 602 -14 q 119 153 214 -14 q 44 509 44 288 q 119 864 44 729 q 407 1031 214 1031 q 694 863 602 1031 q 737 760 720 817 l 546 760 q 537 775 544 764 q 407 866 484 866 q 277 775 330 866 q 227 509 227 691 q 276 243 227 323 q 407 151 332 151 q 537 242 479 151 q 546 258 542 250 l 737 258 z "},"ć":{"ha":814,"x_min":85,"x_max":715,"o":"m 414 1031 l 587 950 l 455 766 l 326 830 l 414 1031 m 715 247 q 644 98 695 161 q 407 -14 553 -14 q 170 98 261 -14 q 85 373 85 202 q 170 648 85 544 q 407 760 261 760 q 644 648 553 760 q 715 499 695 585 l 528 499 q 515 528 522 515 q 407 592 477 592 q 299 530 333 592 q 268 373 268 474 q 299 216 268 266 q 409 154 338 154 q 515 216 477 154 q 529 247 523 229 l 715 247 z "},"Ĉ":{"ha":814,"x_min":44,"x_max":737,"o":"m 353 1309 l 459 1309 l 603 1116 l 494 1051 l 406 1177 l 317 1051 l 210 1116 l 353 1309 m 737 258 q 694 154 720 201 q 407 -14 602 -14 q 119 153 214 -14 q 44 509 44 288 q 119 864 44 729 q 407 1031 214 1031 q 694 863 602 1031 q 737 760 720 817 l 546 760 q 537 775 544 764 q 407 866 484 866 q 277 775 330 866 q 227 509 227 691 q 276 243 227 323 q 407 151 332 151 q 537 242 479 151 q 546 258 542 250 l 737 258 z "},"ĉ":{"ha":814,"x_min":85,"x_max":715,"o":"m 354 1031 l 460 1031 l 604 838 l 494 773 l 407 899 l 318 773 l 210 838 l 354 1031 m 715 247 q 644 98 695 161 q 407 -14 553 -14 q 170 98 261 -14 q 85 373 85 202 q 170 648 85 544 q 407 760 261 760 q 644 648 553 760 q 715 499 695 585 l 528 499 q 515 528 522 515 q 407 592 477 592 q 299 530 333 592 q 268 373 268 474 q 299 216 268 266 q 409 154 338 154 q 515 216 477 154 q 529 247 523 229 l 715 247 z "},"Ċ":{"ha":814,"x_min":44,"x_max":737,"o":"m 407 1302 q 492 1268 460 1302 q 528 1182 528 1232 q 493 1097 528 1131 q 407 1062 458 1062 q 322 1095 356 1062 q 286 1182 286 1131 q 322 1268 286 1234 q 407 1302 358 1302 m 737 258 q 694 154 720 201 q 407 -14 602 -14 q 119 153 214 -14 q 44 509 44 288 q 119 864 44 729 q 407 1031 214 1031 q 694 863 602 1031 q 737 760 720 817 l 546 760 q 537 775 544 764 q 407 866 484 866 q 277 775 330 866 q 227 509 227 691 q 276 243 227 323 q 407 151 332 151 q 537 242 479 151 q 546 258 542 250 l 737 258 z "},"ċ":{"ha":814,"x_min":85,"x_max":715,"o":"m 407 1031 q 492 997 460 1031 q 528 911 528 960 q 493 825 528 860 q 407 791 458 791 q 322 824 356 791 q 286 911 286 859 q 322 997 286 962 q 407 1031 358 1031 m 715 247 q 644 98 695 161 q 407 -14 553 -14 q 170 98 261 -14 q 85 373 85 202 q 170 648 85 544 q 407 760 261 760 q 644 648 553 760 q 715 499 695 585 l 528 499 q 515 528 522 515 q 407 592 477 592 q 299 530 333 592 q 268 373 268 474 q 299 216 268 266 q 409 154 338 154 q 515 216 477 154 q 529 247 523 229 l 715 247 z "},"Č":{"ha":814,"x_min":44,"x_max":737,"o":"m 318 1309 l 407 1183 l 494 1309 l 604 1244 l 460 1051 l 354 1051 l 210 1244 l 318 1309 m 737 258 q 694 154 720 201 q 407 -14 602 -14 q 119 153 214 -14 q 44 509 44 288 q 119 864 44 729 q 407 1031 214 1031 q 694 863 602 1031 q 737 760 720 817 l 546 760 q 537 775 544 764 q 407 866 484 866 q 277 775 330 866 q 227 509 227 691 q 276 243 227 323 q 407 151 332 151 q 537 242 479 151 q 546 258 542 250 l 737 258 z "},"č":{"ha":814,"x_min":85,"x_max":715,"o":"m 318 1031 l 407 905 l 494 1031 l 604 966 l 460 773 l 354 773 l 210 966 l 318 1031 m 715 247 q 644 98 695 161 q 407 -14 553 -14 q 170 98 261 -14 q 85 373 85 202 q 170 648 85 544 q 407 760 261 760 q 644 648 553 760 q 715 499 695 585 l 528 499 q 515 528 522 515 q 407 592 477 592 q 299 530 333 592 q 268 373 268 474 q 299 216 268 266 q 409 154 338 154 q 515 216 477 154 q 529 247 523 229 l 715 247 z "},"Ď":{"ha":814,"x_min":71,"x_max":770,"o":"m 318 1309 l 407 1183 l 494 1309 l 604 1244 l 460 1051 l 354 1051 l 210 1244 l 318 1309 m 254 852 l 254 165 l 374 165 q 538 255 488 165 q 587 509 587 344 q 537 762 587 678 q 373 852 484 852 l 254 852 m 71 0 l 71 1017 l 373 1017 q 694 850 601 1017 q 770 509 770 715 q 695 167 770 292 q 374 0 595 0 l 71 0 z "},"ď":{"ha":814,"x_min":14,"x_max":834,"o":"m 694 1031 l 834 987 l 758 751 l 658 785 l 694 1031 m 328 592 q 227 528 264 592 q 197 373 197 473 q 228 216 197 269 q 331 154 264 154 q 434 216 395 154 q 465 373 465 267 q 435 528 465 475 q 328 592 399 592 m 647 0 l 464 0 l 464 54 q 307 -14 401 -14 q 98 98 190 -14 q 14 373 14 202 q 98 648 14 544 q 307 760 190 760 q 464 689 401 760 l 464 1017 l 647 1017 l 647 0 z "},"Đ":{"ha":814,"x_min":14,"x_max":770,"o":"m 71 0 l 71 438 l 14 438 l 14 581 l 71 581 l 71 1017 l 373 1017 q 694 850 602 1017 q 770 509 770 715 q 695 167 770 292 q 374 0 595 0 l 71 0 m 254 438 l 254 165 l 374 165 q 538 255 488 165 q 587 509 587 344 q 537 762 587 678 q 373 852 484 852 l 254 852 l 254 581 l 467 581 l 467 438 l 254 438 z "},"đ":{"ha":814,"x_min":85,"x_max":800,"o":"m 718 0 l 535 0 l 535 54 q 378 -14 472 -14 q 170 98 261 -14 q 85 373 85 202 q 170 648 85 544 q 378 760 261 760 q 535 689 473 760 l 535 814 l 347 814 l 347 956 l 535 956 l 535 1017 l 718 1017 l 718 956 l 800 956 l 800 814 l 718 814 l 718 0 m 399 592 q 298 528 335 592 q 268 373 268 474 q 299 216 268 269 q 402 154 336 154 q 505 216 467 154 q 536 373 536 267 q 507 528 536 475 q 399 592 471 592 z "},"Ē":{"ha":814,"x_min":96,"x_max":718,"o":"m 251 1241 l 568 1241 l 568 1099 l 251 1099 l 251 1241 m 718 0 l 96 0 l 96 1017 l 672 1017 l 672 848 l 279 848 l 279 593 l 587 593 l 587 424 l 279 424 l 279 170 l 718 170 l 718 0 z "},"ē":{"ha":814,"x_min":85,"x_max":729,"o":"m 251 959 l 568 959 l 568 817 l 251 817 l 251 959 m 715 247 q 644 98 695 161 q 407 -14 553 -14 q 170 98 261 -14 q 85 373 85 202 q 170 648 85 544 q 407 760 261 760 q 644 648 553 760 q 729 382 729 544 l 278 268 q 299 216 286 237 q 409 154 337 154 q 515 216 477 154 q 529 247 523 229 l 715 247 m 269 408 l 533 477 q 515 528 526 505 q 407 592 481 592 q 299 530 333 592 q 269 408 273 484 z "},"Ĕ":{"ha":814,"x_min":96,"x_max":718,"o":"m 212 1262 l 318 1262 q 406 1210 361 1210 q 496 1262 460 1210 l 601 1262 q 406 1073 561 1073 q 212 1262 244 1073 m 718 0 l 96 0 l 96 1017 l 672 1017 l 672 848 l 279 848 l 279 593 l 587 593 l 587 424 l 279 424 l 279 170 l 718 170 l 718 0 z "},"ĕ":{"ha":814,"x_min":85,"x_max":729,"o":"m 212 987 l 318 987 q 406 935 361 935 q 496 987 460 935 l 601 987 q 406 798 561 798 q 212 987 244 798 m 715 247 q 644 98 695 161 q 407 -14 553 -14 q 170 98 261 -14 q 85 373 85 202 q 170 648 85 544 q 407 760 261 760 q 644 648 553 760 q 729 382 729 544 l 278 268 q 299 216 286 237 q 409 154 337 154 q 515 216 477 154 q 529 247 523 229 l 715 247 m 269 408 l 533 477 q 515 528 526 505 q 407 592 481 592 q 299 530 333 592 q 269 408 273 484 z "},"Ė":{"ha":814,"x_min":96,"x_max":718,"o":"m 407 1302 q 492 1268 460 1302 q 528 1182 528 1232 q 493 1097 528 1131 q 407 1062 458 1062 q 322 1095 356 1062 q 286 1182 286 1131 q 322 1268 286 1234 q 407 1302 358 1302 m 718 0 l 96 0 l 96 1017 l 672 1017 l 672 848 l 279 848 l 279 593 l 587 593 l 587 424 l 279 424 l 279 170 l 718 170 l 718 0 z "},"ė":{"ha":814,"x_min":85,"x_max":729,"o":"m 407 1031 q 492 997 460 1031 q 528 911 528 960 q 493 825 528 860 q 407 791 458 791 q 322 824 356 791 q 286 911 286 859 q 322 997 286 962 q 407 1031 358 1031 m 715 247 q 644 98 695 161 q 407 -14 553 -14 q 170 98 261 -14 q 85 373 85 202 q 170 648 85 544 q 407 760 261 760 q 644 648 553 760 q 729 382 729 544 l 278 268 q 299 216 286 237 q 409 154 337 154 q 515 216 477 154 q 529 247 523 229 l 715 247 m 269 408 l 533 477 q 515 528 526 505 q 407 592 481 592 q 299 530 333 592 q 269 408 273 484 z "},"Ę":{"ha":814,"x_min":96,"x_max":718,"o":"m 96 0 l 96 1017 l 672 1017 l 672 848 l 279 848 l 279 593 l 587 593 l 587 424 l 279 424 l 279 170 l 718 170 l 718 0 l 663 0 q 630 -67 630 -30 q 698 -144 630 -144 l 698 -278 q 490 -114 490 -278 q 526 0 490 -49 l 96 0 z "},"ę":{"ha":814,"x_min":85,"x_max":729,"o":"m 269 408 l 533 477 q 515 528 526 505 q 407 592 481 592 q 299 530 333 592 q 269 408 273 484 m 715 247 q 644 98 695 160 q 538 14 598 42 q 486 -67 486 -20 q 554 -144 486 -144 l 554 -278 q 347 -114 347 -278 q 374 -12 347 -56 q 170 98 250 -1 q 85 373 85 202 q 170 648 85 544 q 407 760 261 760 q 644 648 553 760 q 729 382 729 544 l 278 268 q 299 216 286 237 q 409 154 337 154 q 515 216 477 154 q 529 247 523 229 l 715 247 z "},"Ě":{"ha":814,"x_min":96,"x_max":718,"o":"m 318 1309 l 407 1183 l 494 1309 l 604 1244 l 460 1051 l 354 1051 l 210 1244 l 318 1309 m 718 0 l 96 0 l 96 1017 l 672 1017 l 672 848 l 279 848 l 279 593 l 587 593 l 587 424 l 279 424 l 279 170 l 718 170 l 718 0 z "},"ě":{"ha":814,"x_min":85,"x_max":729,"o":"m 318 1031 l 407 905 l 494 1031 l 604 966 l 460 773 l 354 773 l 210 966 l 318 1031 m 715 247 q 644 98 695 161 q 407 -14 553 -14 q 170 98 261 -14 q 85 373 85 202 q 170 648 85 544 q 407 760 261 760 q 644 648 553 760 q 729 382 729 544 l 278 268 q 299 216 286 237 q 409 154 337 154 q 515 216 477 154 q 529 247 523 229 l 715 247 m 269 408 l 533 477 q 515 528 526 505 q 407 592 481 592 q 299 530 333 592 q 269 408 273 484 z "},"Ĝ":{"ha":814,"x_min":44,"x_max":769,"o":"m 353 1309 l 459 1309 l 603 1116 l 494 1051 l 406 1177 l 317 1051 l 210 1116 l 353 1309 m 769 593 l 769 509 q 694 154 769 290 q 407 -14 603 -14 q 119 153 214 -14 q 44 509 44 288 q 119 864 44 729 q 407 1031 214 1031 q 694 863 602 1031 q 737 760 720 817 l 546 760 q 537 775 542 768 q 407 866 484 866 q 277 775 330 866 q 227 509 227 691 q 276 243 227 323 q 407 151 332 151 q 537 242 485 151 q 584 424 575 306 l 372 424 l 372 593 l 769 593 z "},"ĝ":{"ha":814,"x_min":85,"x_max":718,"o":"m 354 1031 l 460 1031 l 604 838 l 494 773 l 407 899 l 318 773 l 210 838 l 354 1031 m 399 592 q 298 528 335 592 q 268 373 268 473 q 299 216 268 269 q 402 154 336 154 q 505 216 467 154 q 536 373 536 267 q 507 528 536 475 q 399 592 471 592 m 718 746 l 718 114 q 640 -166 718 -64 q 392 -285 549 -285 q 125 -133 235 -285 l 271 -38 q 404 -117 320 -117 q 515 -50 482 -117 q 533 54 533 -14 q 378 -14 463 -14 q 170 98 261 -14 q 85 373 85 202 q 170 648 85 544 q 378 760 261 760 q 535 689 473 760 l 535 746 l 718 746 z "},"Ğ":{"ha":814,"x_min":44,"x_max":769,"o":"m 212 1262 l 318 1262 q 406 1210 361 1210 q 496 1262 460 1210 l 601 1262 q 406 1073 561 1073 q 212 1262 244 1073 m 769 593 l 769 509 q 694 154 769 290 q 407 -14 603 -14 q 119 153 214 -14 q 44 509 44 288 q 119 864 44 729 q 407 1031 214 1031 q 694 863 602 1031 q 737 760 720 817 l 546 760 q 537 775 542 768 q 407 866 484 866 q 277 775 330 866 q 227 509 227 691 q 276 243 227 323 q 407 151 332 151 q 537 242 485 151 q 584 424 575 306 l 372 424 l 372 593 l 769 593 z "},"ğ":{"ha":814,"x_min":85,"x_max":718,"o":"m 212 987 l 318 987 q 406 935 361 935 q 496 987 460 935 l 601 987 q 406 798 561 798 q 212 987 244 798 m 399 592 q 298 528 335 592 q 268 373 268 473 q 299 216 268 269 q 402 154 336 154 q 505 216 467 154 q 536 373 536 267 q 507 528 536 475 q 399 592 471 592 m 718 746 l 718 114 q 640 -166 718 -64 q 392 -285 549 -285 q 125 -133 235 -285 l 271 -38 q 404 -117 320 -117 q 515 -50 482 -117 q 533 54 533 -14 q 378 -14 463 -14 q 170 98 261 -14 q 85 373 85 202 q 170 648 85 544 q 378 760 261 760 q 535 689 473 760 l 535 746 l 718 746 z "},"Ġ":{"ha":814,"x_min":44,"x_max":769,"o":"m 407 1302 q 492 1268 460 1302 q 528 1182 528 1232 q 493 1097 528 1131 q 407 1062 458 1062 q 322 1095 356 1062 q 286 1182 286 1131 q 322 1268 286 1234 q 407 1302 358 1302 m 769 593 l 769 509 q 694 154 769 290 q 407 -14 603 -14 q 119 153 214 -14 q 44 509 44 288 q 119 864 44 729 q 407 1031 214 1031 q 694 863 602 1031 q 737 760 720 817 l 546 760 q 537 775 542 768 q 407 866 484 866 q 277 775 330 866 q 227 509 227 691 q 276 243 227 323 q 407 151 332 151 q 537 242 485 151 q 584 424 575 306 l 372 424 l 372 593 l 769 593 z "},"ġ":{"ha":814,"x_min":85,"x_max":718,"o":"m 407 1031 q 492 997 460 1031 q 528 911 528 960 q 493 825 528 860 q 407 791 458 791 q 322 824 356 791 q 286 911 286 859 q 322 997 286 962 q 407 1031 358 1031 m 399 592 q 298 528 335 592 q 268 373 268 473 q 299 216 268 269 q 402 154 336 154 q 505 216 467 154 q 536 373 536 267 q 507 528 536 475 q 399 592 471 592 m 718 746 l 718 114 q 640 -166 718 -64 q 392 -285 549 -285 q 125 -133 235 -285 l 271 -38 q 404 -117 320 -117 q 515 -50 482 -117 q 533 54 533 -14 q 378 -14 463 -14 q 170 98 261 -14 q 85 373 85 202 q 170 648 85 544 q 378 760 261 760 q 535 689 473 760 l 535 746 l 718 746 z "},"Ģ":{"ha":814,"x_min":44,"x_max":769,"o":"m 378 -285 l 205 -204 l 337 -20 l 467 -84 l 378 -285 m 769 593 l 769 509 q 694 154 769 290 q 407 -14 603 -14 q 119 153 214 -14 q 44 509 44 288 q 119 864 44 729 q 407 1031 214 1031 q 694 863 602 1031 q 737 760 720 817 l 546 760 q 537 775 542 768 q 407 866 484 866 q 277 775 330 866 q 227 509 227 691 q 276 243 227 323 q 407 151 332 151 q 537 242 485 151 q 584 424 575 306 l 372 424 l 372 593 l 769 593 z "},"ģ":{"ha":814,"x_min":85,"x_max":718,"o":"m 414 1031 l 587 950 l 455 766 l 326 830 l 414 1031 m 399 592 q 298 528 335 592 q 268 373 268 473 q 299 216 268 269 q 402 154 336 154 q 505 216 467 154 q 536 373 536 267 q 507 528 536 475 q 399 592 471 592 m 718 746 l 718 114 q 640 -166 718 -64 q 392 -285 549 -285 q 125 -133 235 -285 l 271 -38 q 404 -117 320 -117 q 515 -50 482 -117 q 533 54 533 -14 q 378 -14 463 -14 q 170 98 261 -14 q 85 373 85 202 q 170 648 85 544 q 378 760 261 760 q 535 689 473 760 l 535 746 l 718 746 z "},"Ĥ":{"ha":814,"x_min":71,"x_max":743,"o":"m 353 1309 l 459 1309 l 603 1116 l 494 1051 l 406 1177 l 317 1051 l 210 1116 l 353 1309 m 71 0 l 71 1017 l 254 1017 l 254 593 l 559 593 l 559 1017 l 743 1017 l 743 0 l 559 0 l 559 424 l 254 424 l 254 0 l 71 0 z "},"ĥ":{"ha":814,"x_min":96,"x_max":718,"o":"m 353 1309 l 459 1309 l 603 1116 l 494 1051 l 406 1177 l 317 1051 l 210 1116 l 353 1309 m 96 0 l 96 1017 l 279 1017 l 279 677 q 463 760 348 760 q 649 680 574 760 q 718 467 718 606 l 718 0 l 535 0 l 535 458 q 508 560 535 528 q 433 595 479 595 q 330 549 374 595 q 279 392 279 495 l 279 0 l 96 0 z "},"Ħ":{"ha":814,"x_min":14,"x_max":800,"o":"m 71 0 l 71 814 l 14 814 l 14 956 l 71 956 l 71 1017 l 254 1017 l 254 956 l 559 956 l 559 1017 l 743 1017 l 743 956 l 800 956 l 800 814 l 743 814 l 743 0 l 559 0 l 559 424 l 254 424 l 254 0 l 71 0 m 559 814 l 254 814 l 254 593 l 559 593 l 559 814 z "},"ħ":{"ha":814,"x_min":14,"x_max":718,"o":"m 96 0 l 96 814 l 14 814 l 14 956 l 96 956 l 96 1017 l 279 1017 l 279 956 l 467 956 l 467 814 l 279 814 l 279 677 q 463 760 348 760 q 649 680 574 760 q 718 467 718 606 l 718 0 l 535 0 l 535 458 q 508 560 535 528 q 433 595 479 595 q 330 549 374 595 q 279 392 279 495 l 279 0 l 96 0 z "},"Ĩ":{"ha":814,"x_min":96,"x_max":718,"o":"m 203 1090 q 347 1278 229 1278 q 428 1230 399 1278 q 465 1190 452 1190 q 511 1250 502 1190 l 608 1250 q 464 1062 583 1062 q 382 1114 412 1062 q 347 1153 361 1153 q 300 1090 311 1153 l 203 1090 m 718 0 l 96 0 l 96 170 l 315 170 l 315 848 l 96 848 l 96 1017 l 718 1017 l 718 848 l 498 848 l 498 170 l 718 170 l 718 0 z "},"ĩ":{"ha":814,"x_min":96,"x_max":803,"o":"m 203 821 q 347 1009 229 1009 q 428 962 399 1009 q 465 921 452 921 q 511 981 502 921 l 608 981 q 464 793 583 793 q 382 846 412 793 q 347 884 361 884 q 300 821 311 884 l 203 821 m 803 77 q 593 -14 726 -14 q 381 66 455 -14 q 315 281 315 136 l 315 576 l 96 576 l 96 746 l 498 746 l 498 292 q 524 183 498 213 q 600 151 551 151 q 707 206 660 151 l 803 77 z "},"Ī":{"ha":814,"x_min":96,"x_max":718,"o":"m 251 1241 l 568 1241 l 568 1099 l 251 1099 l 251 1241 m 718 0 l 96 0 l 96 170 l 315 170 l 315 848 l 96 848 l 96 1017 l 718 1017 l 718 848 l 498 848 l 498 170 l 718 170 l 718 0 z "},"ī":{"ha":814,"x_min":96,"x_max":803,"o":"m 251 959 l 568 959 l 568 817 l 251 817 l 251 959 m 803 77 q 593 -14 726 -14 q 381 66 455 -14 q 315 281 315 136 l 315 576 l 96 576 l 96 746 l 498 746 l 498 292 q 524 183 498 213 q 600 151 551 151 q 707 206 660 151 l 803 77 z "},"Ĭ":{"ha":814,"x_min":96,"x_max":718,"o":"m 212 1262 l 318 1262 q 406 1210 361 1210 q 496 1262 460 1210 l 601 1262 q 406 1073 561 1073 q 212 1262 244 1073 m 718 0 l 96 0 l 96 170 l 315 170 l 315 848 l 96 848 l 96 1017 l 718 1017 l 718 848 l 498 848 l 498 170 l 718 170 l 718 0 z "},"ĭ":{"ha":814,"x_min":96,"x_max":803,"o":"m 212 987 l 318 987 q 406 935 361 935 q 496 987 460 935 l 601 987 q 406 798 561 798 q 212 987 244 798 m 803 77 q 593 -14 726 -14 q 381 66 455 -14 q 315 281 315 136 l 315 576 l 96 576 l 96 746 l 498 746 l 498 292 q 524 183 498 213 q 600 151 551 151 q 707 206 660 151 l 803 77 z "},"Į":{"ha":814,"x_min":96,"x_max":718,"o":"m 96 0 l 96 170 l 315 170 l 315 848 l 96 848 l 96 1017 l 718 1017 l 718 848 l 498 848 l 498 170 l 718 170 l 718 0 l 663 0 q 630 -67 630 -30 q 698 -144 630 -144 l 698 -278 q 490 -114 490 -278 q 526 0 490 -49 l 96 0 z "},"į":{"ha":814,"x_min":96,"x_max":803,"o":"m 380 1031 q 465 997 433 1031 q 501 911 501 960 q 466 825 501 860 q 380 791 431 791 q 295 824 329 791 q 258 911 258 859 q 295 997 258 962 q 380 1031 331 1031 m 803 77 q 655 -8 745 9 q 630 -67 630 -35 q 698 -144 630 -144 l 698 -278 q 490 -114 490 -278 q 520 -7 490 -54 q 381 66 434 9 q 315 281 315 136 l 315 576 l 96 576 l 96 746 l 498 746 l 498 292 q 524 183 498 213 q 600 151 551 151 q 707 206 660 151 l 803 77 z "},"İ":{"ha":814,"x_min":96,"x_max":718,"o":"m 407 1302 q 492 1268 460 1302 q 528 1182 528 1232 q 493 1097 528 1131 q 407 1062 458 1062 q 322 1095 356 1062 q 286 1182 286 1131 q 322 1268 286 1234 q 407 1302 358 1302 m 718 0 l 96 0 l 96 170 l 315 170 l 315 848 l 96 848 l 96 1017 l 718 1017 l 718 848 l 498 848 l 498 170 l 718 170 l 718 0 z "},"ı":{"ha":814,"x_min":96,"x_max":803,"o":"m 803 77 q 593 -14 726 -14 q 381 66 455 -14 q 315 281 315 136 l 315 576 l 96 576 l 96 746 l 498 746 l 498 292 q 524 183 498 213 q 600 151 551 151 q 707 206 660 151 l 803 77 z "},"Ĳ":{"ha":814,"x_min":14,"x_max":773,"o":"m 465 1017 l 773 1017 l 773 277 q 721 66 773 131 q 566 -14 655 -14 q 403 75 466 -14 q 347 277 347 154 l 504 277 q 519 188 505 213 q 556 161 534 161 q 594 192 581 161 q 604 277 604 214 l 604 848 l 465 848 l 465 1017 m 352 0 l 14 0 l 14 170 l 111 170 l 111 848 l 14 848 l 14 1017 l 378 1017 l 378 848 l 281 848 l 281 170 l 352 170 l 352 0 z "},"ĳ":{"ha":814,"x_min":20,"x_max":731,"o":"m 610 1031 q 695 997 663 1031 q 731 911 731 960 q 696 825 731 860 q 610 791 661 791 q 525 824 559 791 q 488 911 488 859 q 525 997 488 962 q 610 1031 561 1031 m 427 746 l 728 746 l 728 10 q 663 -205 728 -135 q 451 -285 589 -285 q 241 -195 317 -285 l 336 -65 q 444 -120 384 -120 q 520 -88 493 -120 q 545 21 545 -60 l 545 576 l 427 576 l 427 746 m 409 -14 q 197 66 271 -14 q 138 281 138 136 l 138 576 l 20 576 l 20 746 l 315 746 l 315 292 q 340 183 315 213 q 409 151 368 151 l 409 -14 m 196 1031 q 281 997 249 1031 q 317 911 317 960 q 282 825 317 860 q 196 791 247 791 q 111 824 145 791 q 75 911 75 859 q 111 997 75 962 q 196 1031 147 1031 z "},"Ĵ":{"ha":814,"x_min":37,"x_max":709,"o":"m 387 1309 l 493 1309 l 637 1116 l 528 1051 l 440 1177 l 351 1051 l 243 1116 l 387 1309 m 37 325 l 220 325 q 254 205 220 249 q 373 151 297 151 q 488 202 446 151 q 526 325 526 248 l 526 848 l 159 848 l 159 1017 l 709 1017 l 709 306 q 619 83 709 180 q 373 -14 530 -14 q 121 91 220 -14 q 37 325 37 183 z "},"ĵ":{"ha":814,"x_min":85,"x_max":604,"o":"m 354 1031 l 460 1031 l 604 838 l 494 773 l 407 899 l 318 773 l 210 838 l 354 1031 m 170 746 l 572 746 l 572 10 q 507 -205 572 -135 q 295 -285 433 -285 q 85 -195 161 -285 l 180 -65 q 288 -120 228 -120 q 364 -88 337 -120 q 389 21 389 -60 l 389 576 l 170 576 l 170 746 z "},"Ķ":{"ha":814,"x_min":71,"x_max":743,"o":"m 378 -285 l 205 -204 l 337 -20 l 467 -84 l 378 -285 m 71 0 l 71 1017 l 254 1017 l 254 500 q 536 1017 445 743 l 719 1017 q 456 510 616 731 q 743 0 634 282 l 558 0 q 352 380 469 210 q 254 269 307 324 l 254 0 l 71 0 z "},"ķ":{"ha":814,"x_min":96,"x_max":718,"o":"m 378 -285 l 205 -204 l 337 -20 l 467 -84 l 378 -285 m 96 0 l 96 1017 l 279 1017 l 279 304 q 522 746 457 483 l 705 746 q 538 374 657 548 q 718 0 645 212 l 534 0 q 424 237 487 134 q 279 106 362 172 l 279 0 l 96 0 z "},"ĸ":{"ha":814,"x_min":96,"x_max":718,"o":"m 96 0 l 96 746 l 279 746 l 279 304 q 522 746 457 483 l 705 746 q 538 374 657 548 q 718 0 645 212 l 534 0 q 424 237 487 134 q 279 106 362 172 l 279 0 l 96 0 z "},"Ĺ":{"ha":814,"x_min":96,"x_max":718,"o":"m 243 1309 l 415 1228 l 283 1044 l 154 1108 l 243 1309 m 718 0 l 96 0 l 96 1017 l 279 1017 l 279 170 l 718 170 l 718 0 z "},"ĺ":{"ha":814,"x_min":96,"x_max":803,"o":"m 422 1309 l 594 1228 l 463 1044 l 333 1108 l 422 1309 m 803 77 q 593 -14 726 -14 q 381 66 455 -14 q 315 281 315 136 l 315 848 l 96 848 l 96 1017 l 498 1017 l 498 292 q 524 183 498 213 q 600 151 551 151 q 707 206 660 151 l 803 77 z "},"Ļ":{"ha":814,"x_min":96,"x_max":718,"o":"m 378 -285 l 205 -204 l 337 -20 l 467 -84 l 378 -285 m 718 0 l 96 0 l 96 1017 l 279 1017 l 279 170 l 718 170 l 718 0 z "},"ļ":{"ha":814,"x_min":96,"x_max":803,"o":"m 378 -285 l 205 -204 l 337 -20 l 467 -84 l 378 -285 m 803 77 q 593 -14 726 -14 q 381 66 455 -14 q 315 281 315 136 l 315 848 l 96 848 l 96 1017 l 498 1017 l 498 292 q 524 183 498 213 q 600 151 551 151 q 707 206 660 151 l 803 77 z "},"Ľ":{"ha":814,"x_min":96,"x_max":718,"o":"m 414 1031 l 587 950 l 455 766 l 326 830 l 414 1031 m 718 0 l 96 0 l 96 1017 l 279 1017 l 279 170 l 718 170 l 718 0 z "},"ľ":{"ha":814,"x_min":96,"x_max":803,"o":"m 617 1031 l 789 950 l 658 766 l 528 830 l 617 1031 m 803 77 q 593 -14 726 -14 q 381 66 455 -14 q 315 281 315 136 l 315 848 l 96 848 l 96 1017 l 498 1017 l 498 292 q 524 183 498 213 q 600 151 551 151 q 707 206 660 151 l 803 77 z "},"Ŀ":{"ha":814,"x_min":96,"x_max":718,"o":"m 502 760 q 587 726 555 760 q 623 640 623 689 q 588 554 623 589 q 502 519 553 519 q 417 553 451 519 q 380 640 380 588 q 417 726 380 691 q 502 760 453 760 m 718 0 l 96 0 l 96 1017 l 279 1017 l 279 170 l 718 170 l 718 0 z "},"ŀ":{"ha":814,"x_min":96,"x_max":803,"o":"m 658 760 q 743 726 711 760 q 779 640 779 689 q 744 554 779 589 q 658 519 709 519 q 573 553 607 519 q 536 640 536 588 q 573 726 536 691 q 658 760 609 760 m 803 77 q 593 -14 726 -14 q 381 66 455 -14 q 315 281 315 136 l 315 848 l 96 848 l 96 1017 l 498 1017 l 498 292 q 524 183 498 213 q 600 151 551 151 q 707 206 660 151 l 803 77 z "},"Ł":{"ha":814,"x_min":7,"x_max":718,"o":"m 96 0 l 96 254 l 7 362 l 96 430 l 96 1017 l 279 1017 l 279 570 l 484 728 l 586 608 l 279 370 l 279 170 l 718 170 l 718 0 l 96 0 z "},"ł":{"ha":814,"x_min":96,"x_max":803,"o":"m 96 1017 l 498 1017 l 498 653 l 597 728 l 699 608 l 498 454 l 498 292 q 524 183 498 213 q 600 151 551 151 q 707 206 660 151 l 803 77 q 593 -14 726 -14 q 381 66 455 -14 q 315 281 315 136 l 315 312 l 221 239 l 119 363 l 315 513 l 315 848 l 96 848 l 96 1017 z "},"Ń":{"ha":814,"x_min":71,"x_max":743,"o":"m 422 1309 l 594 1228 l 463 1044 l 333 1108 l 422 1309 m 71 0 l 71 1017 l 254 1017 q 573 441 470 761 l 573 1017 l 743 1017 l 743 0 l 573 0 q 241 774 429 495 l 241 0 l 71 0 z "},"ń":{"ha":814,"x_min":96,"x_max":718,"o":"m 414 1031 l 587 950 l 455 766 l 326 830 l 414 1031 m 96 0 l 96 746 l 279 746 l 279 677 q 463 760 348 760 q 649 680 574 760 q 718 467 718 606 l 718 0 l 535 0 l 535 458 q 508 560 535 528 q 433 595 479 595 q 330 549 374 595 q 279 392 279 495 l 279 0 l 96 0 z "},"Ņ":{"ha":814,"x_min":71,"x_max":743,"o":"m 378 -285 l 205 -204 l 337 -20 l 467 -84 l 378 -285 m 71 0 l 71 1017 l 254 1017 q 573 441 470 761 l 573 1017 l 743 1017 l 743 0 l 573 0 q 241 774 429 495 l 241 0 l 71 0 z "},"ņ":{"ha":814,"x_min":96,"x_max":718,"o":"m 378 -285 l 205 -204 l 337 -20 l 467 -84 l 378 -285 m 96 0 l 96 746 l 279 746 l 279 677 q 463 760 348 760 q 649 680 574 760 q 718 467 718 606 l 718 0 l 535 0 l 535 458 q 508 560 535 528 q 433 595 479 595 q 330 549 374 595 q 279 392 279 495 l 279 0 l 96 0 z "},"Ň":{"ha":814,"x_min":71,"x_max":743,"o":"m 71 0 l 71 1017 l 254 1017 q 573 441 470 761 l 573 1017 l 743 1017 l 743 0 l 573 0 q 241 774 429 495 l 241 0 l 71 0 m 318 1309 l 407 1183 l 494 1309 l 604 1244 l 460 1051 l 354 1051 l 210 1244 l 318 1309 z "},"ň":{"ha":814,"x_min":96,"x_max":718,"o":"m 318 1031 l 407 905 l 494 1031 l 604 966 l 460 773 l 354 773 l 210 966 l 318 1031 m 96 0 l 96 746 l 279 746 l 279 677 q 463 760 348 760 q 649 680 574 760 q 718 467 718 606 l 718 0 l 535 0 l 535 458 q 508 560 535 528 q 433 595 479 595 q 330 549 374 595 q 279 392 279 495 l 279 0 l 96 0 z "},"ŉ":{"ha":814,"x_min":7,"x_max":753,"o":"m 96 1031 l 268 950 l 136 766 l 7 830 l 96 1031 m 130 0 l 130 746 l 313 746 l 313 677 q 498 760 382 760 q 684 680 608 760 q 753 467 753 606 l 753 0 l 570 0 l 570 458 q 543 560 570 528 q 468 595 513 595 q 365 549 408 595 q 313 392 313 495 l 313 0 l 130 0 z "},"Ŋ":{"ha":814,"x_min":71,"x_max":743,"o":"m 71 0 l 71 1017 l 254 1017 q 573 441 468 764 l 573 1017 l 743 1017 l 743 0 q 677 -205 743 -135 q 458 -285 603 -285 l 458 -120 q 534 -88 507 -120 q 559 0 559 -60 q 241 774 559 225 l 241 0 l 71 0 z "},"ŋ":{"ha":814,"x_min":96,"x_max":718,"o":"m 96 0 l 96 746 l 279 746 l 279 677 q 463 760 348 760 q 649 680 574 760 q 718 467 718 606 l 718 0 q 652 -205 718 -135 q 433 -285 578 -285 l 433 -120 q 510 -88 483 -120 q 535 0 535 -60 l 535 458 q 508 560 535 528 q 433 595 479 595 q 330 549 374 595 q 279 392 279 495 l 279 0 l 96 0 z "},"Ō":{"ha":814,"x_min":44,"x_max":770,"o":"m 251 1241 l 568 1241 l 568 1099 l 251 1099 l 251 1241 m 407 -14 q 119 153 214 -14 q 44 509 44 286 q 119 864 44 731 q 407 1031 214 1031 q 694 863 602 1031 q 770 509 770 727 q 694 154 770 291 q 407 -14 602 -14 m 407 866 q 277 775 330 866 q 227 509 227 691 q 276 243 227 323 q 407 151 332 151 q 537 242 484 151 q 587 509 587 328 q 537 776 587 690 q 407 866 485 866 z "},"ō":{"ha":814,"x_min":85,"x_max":729,"o":"m 251 959 l 568 959 l 568 817 l 251 817 l 251 959 m 407 592 q 299 530 334 592 q 268 373 268 474 q 299 216 268 266 q 409 154 338 154 q 515 216 476 154 q 546 373 546 267 q 515 528 546 475 q 407 592 477 592 m 644 98 q 407 -14 553 -14 q 170 98 261 -14 q 85 373 85 202 q 170 648 85 544 q 407 760 261 760 q 644 648 553 760 q 729 373 729 544 q 644 98 729 202 z "},"Ŏ":{"ha":814,"x_min":44,"x_max":770,"o":"m 212 1262 l 318 1262 q 406 1210 361 1210 q 496 1262 460 1210 l 601 1262 q 406 1073 561 1073 q 212 1262 244 1073 m 407 -14 q 119 153 214 -14 q 44 509 44 286 q 119 864 44 731 q 407 1031 214 1031 q 694 863 602 1031 q 770 509 770 727 q 694 154 770 291 q 407 -14 602 -14 m 407 866 q 277 775 330 866 q 227 509 227 691 q 276 243 227 323 q 407 151 332 151 q 537 242 484 151 q 587 509 587 328 q 537 776 587 690 q 407 866 485 866 z "},"ŏ":{"ha":814,"x_min":85,"x_max":729,"o":"m 212 987 l 318 987 q 406 935 361 935 q 496 987 460 935 l 601 987 q 406 798 561 798 q 212 987 244 798 m 407 592 q 299 530 334 592 q 268 373 268 474 q 299 216 268 266 q 409 154 338 154 q 515 216 476 154 q 546 373 546 267 q 515 528 546 475 q 407 592 477 592 m 644 98 q 407 -14 553 -14 q 170 98 261 -14 q 85 373 85 202 q 170 648 85 544 q 407 760 261 760 q 644 648 553 760 q 729 373 729 544 q 644 98 729 202 z "},"Ő":{"ha":814,"x_min":44,"x_max":770,"o":"m 534 1309 l 673 1221 l 536 1044 l 430 1109 l 534 1309 m 338 1309 l 478 1221 l 340 1044 l 235 1109 l 338 1309 m 407 -14 q 119 153 214 -14 q 44 509 44 286 q 119 864 44 731 q 407 1031 214 1031 q 694 863 602 1031 q 770 509 770 727 q 694 154 770 291 q 407 -14 602 -14 m 407 866 q 277 775 330 866 q 227 509 227 691 q 276 243 227 323 q 407 151 332 151 q 537 242 484 151 q 587 509 587 328 q 537 776 587 690 q 407 866 485 866 z "},"ő":{"ha":814,"x_min":85,"x_max":729,"o":"m 533 1031 l 673 943 l 535 766 l 429 831 l 533 1031 m 338 1031 l 477 943 l 340 766 l 234 831 l 338 1031 m 407 592 q 299 530 334 592 q 268 373 268 474 q 299 216 268 266 q 409 154 338 154 q 515 216 476 154 q 546 373 546 267 q 515 528 546 475 q 407 592 477 592 m 644 98 q 407 -14 553 -14 q 170 98 261 -14 q 85 373 85 202 q 170 648 85 544 q 407 760 261 760 q 644 648 553 760 q 729 373 729 544 q 644 98 729 202 z "},"Œ":{"ha":814,"x_min":74,"x_max":800,"o":"m 439 171 q 439 846 439 171 q 296 738 343 826 q 243 509 243 640 q 296 279 243 378 q 439 171 342 191 m 800 0 l 439 0 q 144 206 250 0 q 74 509 74 342 q 144 814 74 680 q 439 1017 250 1017 l 757 1017 l 757 848 l 609 848 l 609 593 l 709 593 l 709 424 l 609 424 l 609 170 l 800 170 l 800 0 z "},"œ":{"ha":814,"x_min":27,"x_max":787,"o":"m 787 257 q 725 60 787 131 q 557 -14 662 -14 q 404 51 459 -14 q 260 -14 343 -14 q 83 56 141 -14 q 27 237 27 125 l 27 508 q 93 694 27 624 q 260 760 154 760 q 408 694 349 760 q 556 760 467 760 q 724 693 662 760 q 787 513 787 627 l 787 382 l 489 263 l 489 248 q 501 176 489 196 q 557 145 521 145 q 613 179 595 145 q 626 257 626 203 l 787 257 m 558 602 q 505 571 528 602 q 489 488 489 549 l 489 414 l 626 464 l 626 488 q 612 568 626 547 q 558 602 591 602 m 266 145 q 321 183 303 145 q 330 257 330 201 l 330 488 q 314 568 330 543 q 259 602 292 602 q 206 572 227 602 q 193 488 193 553 l 193 257 q 207 178 193 200 q 266 145 228 145 z "},"Ŕ":{"ha":814,"x_min":71,"x_max":800,"o":"m 422 1309 l 594 1228 l 463 1044 l 333 1108 l 422 1309 m 254 852 l 254 473 l 370 473 q 503 519 457 473 q 559 663 559 574 q 501 805 559 751 q 370 852 450 852 l 254 852 m 71 0 l 71 1017 l 370 1017 q 621 934 519 1017 q 743 669 743 833 q 619 401 743 500 q 570 368 595 382 l 800 0 l 579 0 l 386 309 q 370 309 378 309 l 254 309 l 254 0 l 71 0 z "},"ŕ":{"ha":814,"x_min":96,"x_max":718,"o":"m 414 1031 l 587 950 l 455 766 l 326 830 l 414 1031 m 96 0 l 96 746 l 279 746 l 279 677 q 463 760 348 760 q 649 680 574 760 q 718 458 718 606 l 535 458 q 508 560 535 528 q 433 595 479 595 q 330 549 374 595 q 279 392 279 495 l 279 0 l 96 0 z "},"Ŗ":{"ha":814,"x_min":71,"x_max":800,"o":"m 378 -285 l 205 -204 l 337 -20 l 467 -84 l 378 -285 m 254 852 l 254 473 l 370 473 q 503 519 457 473 q 559 663 559 574 q 501 805 559 751 q 370 852 450 852 l 254 852 m 71 0 l 71 1017 l 370 1017 q 621 934 519 1017 q 743 669 743 833 q 619 401 743 500 q 570 368 595 382 l 800 0 l 579 0 l 386 309 q 370 309 378 309 l 254 309 l 254 0 l 71 0 z "},"ŗ":{"ha":814,"x_min":7,"x_max":718,"o":"m 179 -285 l 7 -204 l 138 -20 l 268 -84 l 179 -285 m 96 0 l 96 746 l 279 746 l 279 677 q 463 760 348 760 q 649 680 574 760 q 718 458 718 606 l 535 458 q 508 560 535 528 q 433 595 479 595 q 330 549 374 595 q 279 392 279 495 l 279 0 l 96 0 z "},"Ř":{"ha":814,"x_min":71,"x_max":800,"o":"m 318 1309 l 407 1183 l 494 1309 l 604 1244 l 460 1051 l 354 1051 l 210 1244 l 318 1309 m 254 852 l 254 473 l 370 473 q 503 519 457 473 q 559 663 559 574 q 501 805 559 751 q 370 852 450 852 l 254 852 m 71 0 l 71 1017 l 370 1017 q 621 934 519 1017 q 743 669 743 833 q 619 401 743 500 q 570 368 595 382 l 800 0 l 579 0 l 386 309 q 370 309 378 309 l 254 309 l 254 0 l 71 0 z "},"ř":{"ha":814,"x_min":96,"x_max":718,"o":"m 318 1031 l 407 905 l 494 1031 l 604 966 l 460 773 l 354 773 l 210 966 l 318 1031 m 96 0 l 96 746 l 279 746 l 279 677 q 463 760 348 760 q 649 680 574 760 q 718 458 718 606 l 535 458 q 508 560 535 528 q 433 595 479 595 q 330 549 374 595 q 279 392 279 495 l 279 0 l 96 0 z "},"Ś":{"ha":814,"x_min":71,"x_max":743,"o":"m 422 1309 l 594 1228 l 463 1044 l 333 1108 l 422 1309 m 71 325 l 254 325 q 290 203 254 248 q 407 151 331 151 q 523 204 478 151 q 559 301 559 248 q 488 412 559 378 l 250 524 q 104 763 104 593 q 189 954 104 879 q 402 1031 274 1031 q 616 949 530 1031 q 698 745 698 870 l 523 745 q 489 830 522 799 q 401 865 453 865 q 315 836 350 865 q 282 769 282 810 q 335 684 282 708 l 553 583 q 743 303 743 494 q 654 85 743 178 q 407 -14 561 -14 q 153 87 243 -14 q 71 325 71 178 z "},"ś":{"ha":814,"x_min":110,"x_max":704,"o":"m 414 1031 l 587 950 l 455 766 l 326 830 l 414 1031 m 110 273 l 285 273 q 319 187 285 218 q 410 153 357 153 q 490 177 461 153 q 522 235 522 202 q 463 297 522 278 l 299 350 q 134 545 134 404 q 229 713 134 647 q 398 760 296 760 q 595 675 522 760 q 656 508 656 606 l 480 508 q 458 570 480 545 q 393 600 431 600 q 331 586 355 600 q 308 549 308 573 q 376 494 308 516 l 516 449 q 704 238 704 388 q 618 58 704 133 q 406 -14 538 -14 q 187 66 268 -14 q 110 273 110 143 z "},"Ŝ":{"ha":814,"x_min":71,"x_max":743,"o":"m 353 1309 l 459 1309 l 603 1116 l 494 1051 l 406 1177 l 317 1051 l 210 1116 l 353 1309 m 71 325 l 254 325 q 290 203 254 248 q 407 151 331 151 q 523 204 478 151 q 559 301 559 248 q 488 412 559 378 l 250 524 q 104 763 104 593 q 189 954 104 879 q 402 1031 274 1031 q 616 949 530 1031 q 698 745 698 870 l 523 745 q 489 830 522 799 q 401 865 453 865 q 315 836 350 865 q 282 769 282 810 q 335 684 282 708 l 553 583 q 743 303 743 494 q 654 85 743 178 q 407 -14 561 -14 q 153 87 243 -14 q 71 325 71 178 z "},"ŝ":{"ha":814,"x_min":110,"x_max":704,"o":"m 354 1031 l 460 1031 l 604 838 l 494 773 l 407 899 l 318 773 l 210 838 l 354 1031 m 110 273 l 285 273 q 319 187 285 218 q 410 153 357 153 q 490 177 461 153 q 522 235 522 202 q 463 297 522 278 l 299 350 q 134 545 134 404 q 229 713 134 647 q 398 760 296 760 q 595 675 522 760 q 656 508 656 606 l 480 508 q 458 570 480 545 q 393 600 431 600 q 331 586 355 600 q 308 549 308 573 q 376 494 308 516 l 516 449 q 704 238 704 388 q 618 58 704 133 q 406 -14 538 -14 q 187 66 268 -14 q 110 273 110 143 z "},"Ş":{"ha":814,"x_min":71,"x_max":743,"o":"m 71 325 l 254 325 q 290 203 254 248 q 407 151 331 151 q 523 204 478 151 q 559 301 559 248 q 488 412 559 378 l 250 524 q 104 763 104 593 q 189 954 104 878 q 402 1031 275 1031 q 616 949 530 1031 q 698 745 698 870 l 523 745 q 489 830 522 799 q 401 865 453 865 q 315 836 350 865 q 282 769 282 810 q 335 684 282 708 l 553 583 q 743 303 743 494 q 654 85 743 177 q 486 -6 586 13 q 516 -114 516 -53 q 309 -278 516 -278 l 309 -144 q 376 -67 376 -144 q 354 -11 376 -36 q 153 87 228 3 q 71 325 71 178 z "},"ş":{"ha":814,"x_min":110,"x_max":704,"o":"m 110 273 l 285 273 q 319 187 285 218 q 410 153 357 153 q 490 177 461 153 q 522 235 522 202 q 463 297 522 278 l 299 350 q 134 545 134 404 q 229 713 134 647 q 398 760 296 760 q 595 675 522 760 q 656 508 656 606 l 480 508 q 458 570 480 545 q 393 600 431 600 q 331 586 355 600 q 308 549 308 573 q 376 494 308 516 l 516 449 q 704 238 704 388 q 618 58 704 132 q 486 -6 564 9 q 516 -114 516 -53 q 309 -278 516 -278 l 309 -144 q 376 -67 376 -144 q 353 -10 376 -36 q 187 66 252 2 q 110 273 110 143 z "},"Š":{"ha":814,"x_min":71,"x_max":743,"o":"m 318 1309 l 407 1183 l 494 1309 l 604 1244 l 460 1051 l 354 1051 l 210 1244 l 318 1309 m 71 325 l 254 325 q 290 203 254 248 q 407 151 331 151 q 523 204 478 151 q 559 301 559 248 q 488 412 559 378 l 250 524 q 104 763 104 593 q 189 954 104 879 q 402 1031 274 1031 q 616 949 530 1031 q 698 745 698 870 l 523 745 q 489 830 522 799 q 401 865 453 865 q 315 836 350 865 q 282 769 282 810 q 335 684 282 708 l 553 583 q 743 303 743 494 q 654 85 743 178 q 407 -14 561 -14 q 153 87 243 -14 q 71 325 71 178 z "},"š":{"ha":814,"x_min":110,"x_max":704,"o":"m 318 1031 l 407 905 l 494 1031 l 604 966 l 460 773 l 354 773 l 210 966 l 318 1031 m 110 273 l 285 273 q 319 187 285 218 q 410 153 357 153 q 490 177 461 153 q 522 235 522 202 q 463 297 522 278 l 299 350 q 134 545 134 404 q 229 713 134 647 q 398 760 296 760 q 595 675 522 760 q 656 508 656 606 l 480 508 q 458 570 480 545 q 393 600 431 600 q 331 586 355 600 q 308 549 308 573 q 376 494 308 516 l 516 449 q 704 238 704 388 q 618 58 704 133 q 406 -14 538 -14 q 187 66 268 -14 q 110 273 110 143 z "},"Ţ":{"ha":814,"x_min":71,"x_max":743,"o":"m 315 0 l 315 848 l 71 848 l 71 1017 l 743 1017 l 743 848 l 498 848 l 498 68 q 614 -114 614 5 q 406 -278 614 -278 l 406 -144 q 474 -67 474 -144 q 441 0 474 -30 l 315 0 z "},"ţ":{"ha":814,"x_min":96,"x_max":803,"o":"m 707 206 l 803 77 q 621 -13 734 -4 q 647 -114 647 -57 q 439 -278 647 -278 l 439 -144 q 507 -67 507 -144 q 460 10 507 -22 q 381 66 414 30 q 315 281 315 137 l 315 576 l 96 576 l 96 746 l 315 746 l 315 1017 l 498 1017 l 498 746 l 718 746 l 718 576 l 498 576 l 498 292 q 524 183 498 213 q 600 151 551 151 q 707 206 660 151 z "},"Ť":{"ha":814,"x_min":71,"x_max":743,"o":"m 318 1309 l 407 1183 l 494 1309 l 604 1244 l 460 1051 l 354 1051 l 210 1244 l 318 1309 m 315 0 l 315 848 l 71 848 l 71 1017 l 743 1017 l 743 848 l 498 848 l 498 0 l 315 0 z "},"ť":{"ha":814,"x_min":96,"x_max":803,"o":"m 629 1031 l 802 950 l 670 766 l 541 830 l 629 1031 m 803 77 q 593 -14 726 -14 q 381 66 455 -14 q 315 281 315 136 l 315 576 l 96 576 l 96 746 l 315 746 l 315 1017 l 498 1017 l 498 746 l 718 746 l 718 576 l 498 576 l 498 292 q 524 183 498 213 q 600 151 551 151 q 707 206 660 151 l 803 77 z "},"Ŧ":{"ha":814,"x_min":71,"x_max":743,"o":"m 315 0 l 315 363 l 180 363 l 180 505 l 315 505 l 315 848 l 71 848 l 71 1017 l 743 1017 l 743 848 l 498 848 l 498 505 l 633 505 l 633 363 l 498 363 l 498 0 l 315 0 z "},"ŧ":{"ha":814,"x_min":96,"x_max":803,"o":"m 803 77 q 593 -14 726 -14 q 381 66 455 -14 q 315 281 315 136 l 315 317 l 180 317 l 180 460 l 315 460 l 315 576 l 96 576 l 96 746 l 315 746 l 315 1017 l 498 1017 l 498 746 l 718 746 l 718 576 l 498 576 l 498 460 l 633 460 l 633 317 l 498 317 l 498 292 q 524 183 498 213 q 600 151 551 151 q 707 206 660 151 l 803 77 z "},"Ũ":{"ha":814,"x_min":71,"x_max":743,"o":"m 203 1090 q 347 1278 229 1278 q 428 1230 399 1278 q 465 1190 452 1190 q 511 1250 502 1190 l 608 1250 q 464 1062 583 1062 q 382 1114 412 1062 q 347 1153 361 1153 q 300 1090 311 1153 l 203 1090 m 71 1017 l 254 1017 l 254 313 q 292 203 254 247 q 407 151 335 151 q 522 204 475 151 q 559 313 559 246 l 559 1017 l 743 1017 l 743 306 q 654 85 743 178 q 407 -14 559 -14 q 158 85 257 -14 q 71 306 71 172 l 71 1017 z "},"ũ":{"ha":814,"x_min":96,"x_max":718,"o":"m 203 821 q 347 1009 229 1009 q 428 962 399 1009 q 465 921 452 921 q 511 981 502 921 l 608 981 q 464 793 583 793 q 382 846 412 793 q 347 884 361 884 q 300 821 311 884 l 203 821 m 718 0 l 535 0 l 535 69 q 351 -14 466 -14 q 165 66 240 -14 q 96 279 96 140 l 96 746 l 279 746 l 279 288 q 306 186 279 218 q 380 151 335 151 q 484 197 440 151 q 535 354 535 251 l 535 746 l 718 746 l 718 0 z "},"Ū":{"ha":814,"x_min":71,"x_max":743,"o":"m 251 1241 l 568 1241 l 568 1099 l 251 1099 l 251 1241 m 71 1017 l 254 1017 l 254 313 q 292 203 254 247 q 407 151 335 151 q 522 204 475 151 q 559 313 559 246 l 559 1017 l 743 1017 l 743 306 q 654 85 743 178 q 407 -14 559 -14 q 158 85 257 -14 q 71 306 71 172 l 71 1017 z "},"ū":{"ha":814,"x_min":96,"x_max":718,"o":"m 251 959 l 568 959 l 568 817 l 251 817 l 251 959 m 718 0 l 535 0 l 535 69 q 351 -14 466 -14 q 165 66 240 -14 q 96 279 96 140 l 96 746 l 279 746 l 279 288 q 306 186 279 218 q 380 151 335 151 q 484 197 440 151 q 535 354 535 251 l 535 746 l 718 746 l 718 0 z "},"Ŭ":{"ha":814,"x_min":71,"x_max":743,"o":"m 212 1262 l 318 1262 q 406 1210 361 1210 q 496 1262 460 1210 l 601 1262 q 406 1073 561 1073 q 212 1262 244 1073 m 71 1017 l 254 1017 l 254 313 q 292 203 254 247 q 407 151 335 151 q 522 204 475 151 q 559 313 559 246 l 559 1017 l 743 1017 l 743 306 q 654 85 743 178 q 407 -14 559 -14 q 158 85 257 -14 q 71 306 71 172 l 71 1017 z "},"ŭ":{"ha":814,"x_min":96,"x_max":718,"o":"m 212 987 l 318 987 q 406 935 361 935 q 496 987 460 935 l 601 987 q 406 798 561 798 q 212 987 244 798 m 718 0 l 535 0 l 535 69 q 351 -14 466 -14 q 165 66 240 -14 q 96 279 96 140 l 96 746 l 279 746 l 279 288 q 306 186 279 218 q 380 151 335 151 q 484 197 440 151 q 535 354 535 251 l 535 746 l 718 746 l 718 0 z "},"Ů":{"ha":814,"x_min":71,"x_max":743,"o":"m 405 1226 q 366 1211 382 1226 q 348 1171 348 1194 q 366 1130 348 1147 q 405 1114 382 1114 q 445 1131 427 1114 q 462 1171 462 1147 q 446 1211 462 1194 q 405 1226 431 1226 m 405 1309 q 504 1270 466 1309 q 545 1171 545 1226 q 505 1072 545 1111 q 405 1031 464 1031 q 307 1070 347 1031 q 264 1171 264 1112 q 306 1270 264 1230 q 405 1309 348 1309 m 71 1017 l 254 1017 l 254 313 q 292 203 254 247 q 407 151 335 151 q 522 204 475 151 q 559 313 559 246 l 559 1017 l 743 1017 l 743 306 q 654 85 743 178 q 407 -14 559 -14 q 158 85 257 -14 q 71 306 71 172 l 71 1017 z "},"ů":{"ha":814,"x_min":96,"x_max":718,"o":"m 407 968 q 368 953 385 968 q 350 913 350 937 q 368 872 350 889 q 407 857 384 857 q 447 873 429 857 q 464 913 464 889 q 448 953 464 936 q 407 968 433 968 m 407 1051 q 506 1012 468 1051 q 547 913 547 968 q 507 814 547 853 q 407 774 466 774 q 309 812 349 774 q 267 913 267 854 q 308 1012 267 972 q 407 1051 350 1051 m 718 0 l 535 0 l 535 69 q 351 -14 466 -14 q 165 66 240 -14 q 96 279 96 140 l 96 746 l 279 746 l 279 288 q 306 186 279 218 q 380 151 335 151 q 484 197 440 151 q 535 354 535 251 l 535 746 l 718 746 l 718 0 z "},"Ű":{"ha":814,"x_min":71,"x_max":743,"o":"m 534 1309 l 673 1221 l 536 1044 l 430 1109 l 534 1309 m 338 1309 l 478 1221 l 340 1044 l 235 1109 l 338 1309 m 71 1017 l 254 1017 l 254 313 q 292 203 254 247 q 407 151 335 151 q 522 204 475 151 q 559 313 559 246 l 559 1017 l 743 1017 l 743 306 q 654 85 743 178 q 407 -14 559 -14 q 158 85 257 -14 q 71 306 71 172 l 71 1017 z "},"ű":{"ha":814,"x_min":96,"x_max":718,"o":"m 533 1031 l 673 943 l 535 766 l 429 831 l 533 1031 m 338 1031 l 477 943 l 340 766 l 234 831 l 338 1031 m 718 0 l 535 0 l 535 69 q 351 -14 466 -14 q 165 66 240 -14 q 96 279 96 140 l 96 746 l 279 746 l 279 288 q 306 186 279 218 q 380 151 335 151 q 484 197 440 151 q 535 354 535 251 l 535 746 l 718 746 l 718 0 z "},"Ų":{"ha":814,"x_min":71,"x_max":743,"o":"m 71 1017 l 254 1017 l 254 313 q 292 203 254 247 q 407 151 335 151 q 522 204 475 151 q 559 313 559 246 l 559 1017 l 743 1017 l 743 306 q 654 85 743 178 q 547 12 607 37 q 498 -67 498 -22 q 566 -144 498 -144 l 566 -278 q 358 -114 358 -278 q 385 -13 358 -57 q 158 85 250 -6 q 71 306 71 172 l 71 1017 z "},"ų":{"ha":814,"x_min":96,"x_max":718,"o":"m 718 0 l 669 0 q 635 -67 635 -30 q 703 -144 635 -144 l 703 -278 q 496 -114 496 -278 q 535 5 496 -45 l 535 69 q 351 -14 466 -14 q 165 66 240 -14 q 96 279 96 140 l 96 746 l 279 746 l 279 288 q 306 186 279 218 q 380 151 335 151 q 484 197 440 151 q 535 354 535 251 l 535 746 l 718 746 l 718 0 z "},"Ŵ":{"ha":814,"x_min":7,"x_max":807,"o":"m 170 0 q 7 1017 41 503 l 190 1017 q 249 289 190 646 q 323 703 323 512 l 481 703 q 566 273 481 507 q 624 1017 624 639 l 807 1017 q 644 0 769 506 l 505 0 q 401 420 431 221 q 309 0 374 225 l 170 0 m 353 1309 l 459 1309 l 603 1116 l 494 1051 l 406 1177 l 317 1051 l 210 1116 l 353 1309 z "},"ŵ":{"ha":814,"x_min":13,"x_max":801,"o":"m 180 0 q 13 746 59 368 l 196 746 q 267 200 208 439 q 329 567 329 383 l 486 567 q 547 200 486 382 q 618 746 604 422 l 801 746 q 635 0 754 368 l 465 0 q 408 254 433 106 q 349 0 383 109 l 180 0 m 354 1031 l 460 1031 l 604 838 l 494 773 l 407 899 l 318 773 l 210 838 l 354 1031 z "},"Ŷ":{"ha":814,"x_min":37,"x_max":777,"o":"m 353 1309 l 459 1309 l 603 1116 l 494 1051 l 406 1177 l 317 1051 l 210 1116 l 353 1309 m 315 0 l 315 401 q 37 1017 139 726 l 220 1017 q 408 577 306 779 q 593 1017 514 778 l 777 1017 q 498 401 679 726 l 498 0 l 315 0 z "},"ŷ":{"ha":814,"x_min":96,"x_max":718,"o":"m 354 1031 l 460 1031 l 604 838 l 494 773 l 407 899 l 318 773 l 210 838 l 354 1031 m 96 746 l 279 746 l 279 288 q 306 186 279 218 q 380 151 335 151 q 484 197 440 151 q 535 354 535 251 l 535 746 l 718 746 l 718 114 q 640 -166 718 -64 q 392 -285 549 -285 q 125 -133 235 -285 l 271 -38 q 404 -117 319 -117 q 515 -50 477 -117 q 534 67 534 -14 q 351 -14 466 -14 q 165 66 240 -14 q 96 279 96 140 l 96 746 z "},"Ÿ":{"ha":814,"x_min":37,"x_max":777,"o":"m 541 1289 q 617 1258 587 1289 q 650 1181 650 1225 q 618 1103 650 1135 q 541 1072 585 1072 q 464 1103 495 1072 q 431 1181 431 1134 q 464 1258 431 1227 q 541 1289 496 1289 m 278 1289 q 355 1258 324 1289 q 387 1181 387 1225 q 355 1104 387 1135 q 278 1072 323 1072 q 202 1103 234 1072 q 169 1181 169 1134 q 202 1258 169 1227 q 278 1289 234 1289 m 315 0 l 315 401 q 37 1017 139 726 l 220 1017 q 408 577 306 779 q 593 1017 514 778 l 777 1017 q 498 401 679 726 l 498 0 l 315 0 z "},"Ź":{"ha":814,"x_min":71,"x_max":743,"o":"m 422 1309 l 594 1228 l 463 1044 l 333 1108 l 422 1309 m 71 0 l 71 170 q 498 848 370 487 l 117 848 l 117 1017 l 741 1017 q 301 170 608 547 l 743 171 l 743 0 l 71 0 z "},"ź":{"ha":814,"x_min":96,"x_max":718,"o":"m 414 1031 l 587 950 l 455 766 l 326 830 l 414 1031 m 96 0 l 96 170 q 463 576 352 364 l 120 576 l 120 746 l 718 746 q 346 170 639 429 l 718 170 l 718 0 l 96 0 z "},"Ż":{"ha":814,"x_min":71,"x_max":743,"o":"m 407 1302 q 492 1268 460 1302 q 528 1182 528 1232 q 493 1097 528 1131 q 407 1062 458 1062 q 322 1095 356 1062 q 286 1182 286 1131 q 322 1268 286 1234 q 407 1302 358 1302 m 71 0 l 71 170 q 498 848 370 487 l 117 848 l 117 1017 l 741 1017 q 301 170 608 547 l 743 171 l 743 0 l 71 0 z "},"ż":{"ha":814,"x_min":96,"x_max":718,"o":"m 407 1031 q 492 997 460 1031 q 528 911 528 960 q 493 825 528 860 q 407 791 458 791 q 322 824 356 791 q 286 911 286 859 q 322 997 286 962 q 407 1031 358 1031 m 96 0 l 96 170 q 463 576 352 364 l 120 576 l 120 746 l 718 746 q 346 170 639 429 l 718 170 l 718 0 l 96 0 z "},"Ž":{"ha":814,"x_min":71,"x_max":743,"o":"m 318 1309 l 407 1183 l 494 1309 l 604 1244 l 460 1051 l 354 1051 l 210 1244 l 318 1309 m 71 0 l 71 170 q 498 848 370 487 l 117 848 l 117 1017 l 741 1017 q 301 170 608 547 l 743 171 l 743 0 l 71 0 z "},"ž":{"ha":814,"x_min":96,"x_max":718,"o":"m 318 1031 l 407 905 l 494 1031 l 604 966 l 460 773 l 354 773 l 210 966 l 318 1031 m 96 0 l 96 170 q 463 576 352 364 l 120 576 l 120 746 l 718 746 q 346 170 639 429 l 718 170 l 718 0 l 96 0 z "},"ſ":{"ha":814,"x_min":96,"x_max":803,"o":"m 315 0 l 315 505 l 96 505 l 96 663 l 315 663 l 315 736 q 381 951 315 881 q 593 1031 455 1031 q 803 941 726 1031 l 707 811 q 600 866 660 866 q 524 834 555 866 q 498 725 498 809 l 498 0 l 315 0 z "},"ƀ":{"ha":814,"x_min":13,"x_max":729,"o":"m 414 592 q 307 528 343 592 q 277 373 277 475 q 309 216 277 267 q 412 154 347 154 q 515 216 478 154 q 546 373 546 269 q 515 528 546 473 q 414 592 479 592 m 96 0 l 96 814 l 13 814 l 14 956 l 96 956 l 96 1017 l 279 1017 l 279 956 l 466 956 l 466 814 l 279 814 l 279 689 q 435 760 341 760 q 644 648 553 760 q 729 373 729 544 q 644 98 729 202 q 435 -14 553 -14 q 279 54 342 -14 l 279 0 l 96 0 z "},"Ɓ":{"ha":814,"x_min":0,"x_max":766,"o":"m 163 0 l 163 904 q 128 751 128 904 l 0 751 q 163 1017 0 1017 l 359 1017 q 606 940 519 1017 q 690 764 690 865 q 579 578 690 642 q 766 317 766 498 q 661 83 766 170 q 393 0 561 0 l 163 0 m 346 852 l 346 641 l 359 641 q 481 671 445 641 q 516 747 516 700 q 477 825 516 793 q 359 852 441 852 l 346 852 m 346 476 l 346 165 l 393 165 q 545 211 490 165 q 589 321 589 249 q 543 431 589 386 q 393 476 498 476 l 346 476 z "},"Ƃ":{"ha":814,"x_min":71,"x_max":743,"o":"m 71 0 l 71 1017 l 634 1017 l 634 848 l 254 848 l 254 709 l 370 709 q 619 626 519 709 q 743 354 743 524 q 621 85 743 187 q 370 0 519 0 l 71 0 m 370 165 q 502 212 450 165 q 559 355 559 265 q 503 498 559 443 q 370 544 457 544 l 254 544 l 254 165 l 370 165 z "},"ƃ":{"ha":814,"x_min":96,"x_max":729,"o":"m 96 0 l 96 1017 l 634 1017 l 634 848 l 279 848 l 279 689 q 435 760 341 760 q 644 648 553 760 q 729 373 729 544 q 644 98 729 202 q 435 -14 553 -14 q 279 54 342 -14 l 279 0 l 96 0 m 414 592 q 307 528 343 592 q 277 373 277 475 q 309 216 277 267 q 412 154 347 154 q 515 216 478 154 q 546 373 546 269 q 515 528 546 473 q 414 592 479 592 z "},"Ƅ":{"ha":814,"x_min":-3,"x_max":770,"o":"m 397 165 q 529 212 477 165 q 587 355 587 265 q 530 498 587 443 q 397 544 484 544 l 281 544 l 281 165 l 397 165 m 98 0 l 98 760 l -3 760 l 98 1017 l 281 1017 l 281 709 l 397 709 q 646 626 546 709 q 770 354 770 524 q 648 85 770 187 q 397 0 547 0 l 98 0 z "},"ƅ":{"ha":814,"x_min":0,"x_max":735,"o":"m 420 592 q 313 528 349 592 q 283 373 283 475 q 315 216 283 267 q 418 154 353 154 q 521 216 484 154 q 552 373 552 269 q 522 528 552 473 q 420 592 485 592 m 102 0 l 102 760 l 0 760 l 102 1017 l 285 1017 l 285 689 q 441 760 347 760 q 650 648 559 760 q 735 373 735 544 q 650 98 735 202 q 441 -14 559 -14 q 285 54 348 -14 l 285 0 l 102 0 z "},"Ɔ":{"ha":814,"x_min":77,"x_max":770,"o":"m 77 258 q 268 258 77 258 q 277 242 272 250 q 407 151 334 151 q 538 243 482 151 q 587 509 587 323 q 537 775 587 691 q 407 866 484 866 q 277 775 330 866 q 268 760 270 764 q 77 760 268 760 q 119 863 94 817 q 407 1031 212 1031 q 694 864 600 1031 q 770 509 770 729 q 694 153 770 288 q 407 -14 600 -14 q 119 154 212 -14 q 77 258 94 201 z "},"Ƈ":{"ha":814,"x_min":44,"x_max":814,"o":"m 737 258 q 694 154 720 201 q 407 -14 602 -14 q 119 153 214 -14 q 44 509 44 288 q 119 864 44 731 q 407 1031 214 1031 q 638 942 552 1031 q 814 1031 693 1031 l 814 871 q 720 760 720 871 l 546 760 q 537 775 544 764 q 407 866 484 866 q 277 775 330 866 q 227 509 227 691 q 276 243 227 323 q 407 151 332 151 q 537 242 479 151 q 546 258 542 250 l 737 258 z "},"ƈ":{"ha":814,"x_min":85,"x_max":814,"o":"m 715 247 q 644 98 695 161 q 407 -14 553 -14 q 170 98 261 -14 q 85 373 85 202 q 170 648 85 544 q 407 760 261 760 q 627 667 540 760 q 814 760 680 760 l 814 600 q 715 499 715 600 l 528 499 q 515 528 522 515 q 407 592 477 592 q 299 530 333 592 q 268 373 268 474 q 299 216 268 266 q 409 154 338 154 q 515 216 477 154 q 529 247 523 229 l 715 247 z "},"Ɖ":{"ha":814,"x_min":14,"x_max":770,"o":"m 71 0 l 71 438 l 14 438 l 14 581 l 71 581 l 71 1017 l 373 1017 q 694 850 602 1017 q 770 509 770 715 q 695 167 770 292 q 374 0 595 0 l 71 0 m 254 438 l 254 165 l 374 165 q 538 255 488 165 q 587 509 587 344 q 537 762 587 678 q 373 852 484 852 l 254 852 l 254 581 l 467 581 l 467 438 l 254 438 z "},"Ɗ":{"ha":814,"x_min":0,"x_max":770,"o":"m 163 0 l 163 904 q 128 751 128 904 l 0 751 q 163 1017 0 1017 l 373 1017 q 694 850 601 1017 q 770 509 770 715 q 695 167 770 292 q 374 0 595 0 l 163 0 m 346 852 l 345 165 l 374 165 q 538 255 488 165 q 587 509 587 344 q 537 762 587 678 q 373 852 484 852 l 346 852 z "},"Ƌ":{"ha":814,"x_min":71,"x_max":743,"o":"m 743 0 l 444 0 q 193 85 294 0 q 71 354 71 187 q 195 626 71 524 q 444 709 294 709 l 559 709 l 559 848 l 180 848 l 180 1017 l 743 1017 l 743 0 m 444 165 q 559 165 444 165 l 559 544 l 444 544 q 311 498 357 544 q 254 355 254 443 q 312 212 254 265 q 444 165 363 165 z "},"ƌ":{"ha":814,"x_min":85,"x_max":718,"o":"m 718 0 l 535 0 l 535 54 q 378 -14 472 -14 q 170 98 261 -14 q 85 373 85 202 q 170 648 85 544 q 378 760 261 760 q 535 689 473 760 l 535 848 l 180 848 l 180 1017 l 718 1017 l 718 0 m 399 592 q 298 528 335 592 q 268 373 268 473 q 299 216 268 269 q 402 154 336 154 q 505 216 467 154 q 536 373 536 267 q 507 528 536 475 q 399 592 471 592 z "},"ƍ":{"ha":814,"x_min":85,"x_max":729,"o":"m 170 648 q 407 760 261 760 q 644 648 553 760 q 729 373 729 544 q 644 98 729 202 q 524 7 593 35 q 576 -113 576 -43 q 527 -229 576 -187 q 406 -271 477 -271 l 193 -271 l 193 -102 l 345 -102 q 394 -88 379 -102 q 409 -56 409 -75 q 394 -26 408 -37 q 346 -8 374 -12 q 170 98 241 11 q 85 373 85 201 q 170 648 85 544 m 407 154 q 515 216 479 154 q 546 373 546 270 q 515 530 546 480 q 405 592 475 592 q 299 530 338 592 q 268 373 268 479 q 299 218 268 271 q 407 154 337 154 z "},"Ǝ":{"ha":814,"x_min":96,"x_max":718,"o":"m 96 0 l 96 170 l 535 170 l 535 424 l 227 424 l 227 593 l 535 593 l 535 848 l 142 848 l 142 1017 l 718 1017 l 718 0 l 96 0 z "},"Ə":{"ha":814,"x_min":45,"x_max":770,"o":"m 77 760 q 119 863 94 817 q 407 1031 212 1031 q 694 863 602 1031 q 770 509 770 727 q 694 154 770 291 q 407 -14 602 -14 q 119 153 214 -14 q 45 488 56 266 l 578 646 q 537 776 566 727 q 407 866 484 866 q 277 775 330 866 q 268 760 270 764 l 77 760 m 587 486 q 235 377 587 486 q 276 243 248 290 q 407 151 332 151 q 537 242 485 151 q 587 486 583 322 z "},"Ɛ":{"ha":814,"x_min":81,"x_max":745,"o":"m 744 74 q 417 -14 560 -14 q 170 85 262 -14 q 81 306 81 180 q 119 452 81 387 q 228 559 156 516 q 126 760 126 632 q 211 954 126 877 q 425 1031 296 1031 q 644 989 524 1031 l 644 812 q 425 866 530 866 q 338 832 376 866 q 305 749 305 802 q 345 665 305 699 q 460 638 378 638 l 460 472 q 311 425 356 472 q 264 310 264 375 q 303 203 264 245 q 417 151 350 151 q 745 267 572 151 l 744 74 z "},"Ƒ":{"ha":814,"x_min":17,"x_max":695,"o":"m 17 -285 q 17 -120 17 -285 q 94 -88 65 -120 q 119 0 119 -60 l 119 1017 l 695 1017 l 695 848 l 302 848 l 302 593 l 610 593 l 610 424 l 302 424 l 302 0 q 236 -205 302 -135 q 17 -285 162 -285 z "},"ƒ":{"ha":814,"x_min":11,"x_max":803,"o":"m 11 -195 q 106 -65 11 -195 q 214 -120 154 -120 q 290 -88 261 -120 q 315 0 315 -60 l 315 505 l 96 505 l 96 663 l 315 663 l 315 736 q 381 951 315 881 q 593 1031 455 1031 q 803 941 726 1031 l 707 811 q 600 866 660 866 q 524 834 551 866 q 498 725 498 804 l 498 663 l 718 663 l 718 505 l 498 505 l 498 0 q 433 -205 498 -135 q 221 -285 359 -285 q 11 -195 87 -285 z "},"Ɠ":{"ha":814,"x_min":44,"x_max":814,"o":"m 407 -14 q 119 153 214 -14 q 44 509 44 288 q 119 864 44 729 q 407 1031 214 1031 q 638 942 552 1031 q 814 1031 693 1031 l 814 871 q 720 760 720 871 l 546 760 q 537 775 544 764 q 407 866 484 866 q 277 775 330 866 q 227 509 227 691 q 276 243 227 323 q 407 151 332 151 q 537 242 485 151 q 584 424 575 306 l 372 424 l 372 593 l 769 593 l 769 509 q 694 154 769 290 q 407 -14 603 -14 z "},"Ɣ":{"ha":814,"x_min":37,"x_max":777,"o":"m 37 1017 q 220 1017 37 1017 q 406 574 308 782 q 593 1017 508 780 l 777 1017 q 505 413 671 726 q 665 28 597 237 q 680 -61 680 -16 q 631 -201 680 -136 q 407 -285 570 -285 q 182 -201 246 -285 q 134 -61 134 -138 q 149 28 134 -18 q 309 413 216 243 q 37 1017 147 726 m 406 248 q 321 16 350 119 q 311 -47 311 -18 q 333 -92 311 -73 q 410 -119 363 -119 q 481 -92 454 -119 q 503 -47 503 -71 q 493 16 503 -15 q 406 248 460 127 z "},"ƕ":{"ha":814,"x_min":71,"x_max":774,"o":"m 71 0 l 71 1017 l 248 1017 l 248 699 q 367 760 296 760 q 457 726 419 760 q 511 645 496 692 q 529 471 529 591 l 529 247 q 537 165 529 182 q 568 145 547 145 q 597 171 589 145 q 604 258 604 190 l 604 482 l 774 482 l 774 258 q 721 58 774 125 q 568 -14 665 -14 q 412 45 465 -14 q 353 233 353 109 l 353 457 q 348 549 353 526 q 309 591 339 591 q 259 539 275 591 q 248 446 248 501 l 248 0 l 71 0 z "},"Ɩ":{"ha":814,"x_min":96,"x_max":803,"o":"m 803 77 q 593 -14 726 -14 q 381 66 455 -14 q 315 281 315 136 l 315 848 l 96 848 l 96 1017 l 718 1017 l 718 848 l 498 848 l 498 292 q 524 183 498 213 q 600 151 551 151 q 707 206 660 151 l 803 77 z "},"Ɨ":{"ha":814,"x_min":96,"x_max":718,"o":"m 96 0 l 96 170 l 315 170 l 315 438 l 180 438 l 181 581 l 315 581 l 315 848 l 96 848 l 96 1017 l 718 1017 l 718 848 l 498 848 l 498 581 l 633 581 l 633 438 l 498 438 l 498 170 l 718 170 l 718 0 l 96 0 z "},"Ƙ":{"ha":814,"x_min":71,"x_max":814,"o":"m 71 0 l 71 1017 l 254 1017 l 254 500 q 475 885 408 732 q 646 1031 540 1031 q 814 881 764 1031 l 690 817 q 668 861 690 861 q 650 846 657 861 q 456 510 573 671 q 743 0 634 282 l 558 0 q 352 380 469 210 q 254 269 307 324 l 254 0 l 71 0 z "},"ƙ":{"ha":814,"x_min":96,"x_max":718,"o":"m 96 0 l 96 746 q 162 945 96 878 q 397 1031 247 1031 l 397 883 q 309 840 342 883 q 279 746 279 800 l 279 304 q 522 746 457 483 l 705 746 q 538 374 657 548 q 718 0 645 212 l 534 0 q 424 237 487 134 q 279 106 362 172 l 279 0 l 96 0 z "},"ƚ":{"ha":814,"x_min":96,"x_max":803,"o":"m 803 77 q 593 -14 726 -14 q 381 66 455 -14 q 315 281 315 136 l 315 438 l 180 438 l 181 581 l 315 581 l 315 848 l 96 848 l 96 1017 l 498 1017 l 498 581 l 633 581 l 633 438 l 498 438 l 498 292 q 524 183 498 213 q 600 151 551 151 q 707 206 660 151 l 803 77 z "},"ƛ":{"ha":814,"x_min":37,"x_max":777,"o":"m 37 0 l 264 727 l 155 690 l 99 833 l 205 869 q 94 1017 158 937 l 295 1017 q 365 924 330 973 l 500 970 l 559 827 l 450 791 q 777 0 636 475 l 593 0 q 383 544 499 294 l 220 0 l 37 0 z "},"Ɯ":{"ha":814,"x_min":74,"x_max":740,"o":"m 740 0 l 584 0 l 584 69 q 453 -14 541 -14 q 344 73 376 -14 q 218 -14 311 -14 q 98 65 139 -14 q 74 227 74 113 l 74 1017 l 230 1017 l 230 237 q 236 186 230 201 q 279 152 250 152 q 322 184 310 152 q 330 237 330 205 l 330 1017 l 484 1017 l 484 237 q 490 186 484 201 q 533 152 504 152 q 576 184 564 152 q 584 237 584 205 l 584 1017 l 740 1017 l 740 0 z "},"Ɲ":{"ha":814,"x_min":0,"x_max":743,"o":"m 743 0 l 573 0 q 241 774 429 495 l 241 0 q 195 -179 241 -118 q 0 -278 120 -278 l 0 -133 q 52 -96 28 -133 q 71 0 71 -68 l 71 1017 l 254 1017 q 573 441 470 761 l 573 1017 l 743 1017 l 743 0 z "},"ƞ":{"ha":814,"x_min":96,"x_max":718,"o":"m 96 0 l 96 746 l 279 746 l 279 677 q 463 760 348 760 q 649 680 574 760 q 718 467 718 606 l 718 -271 l 535 -271 l 535 458 q 508 560 535 528 q 433 595 479 595 q 330 549 374 595 q 279 392 279 495 l 279 0 l 96 0 z "},"Ɵ":{"ha":814,"x_min":44,"x_max":770,"o":"m 407 866 q 277 775 330 866 q 229 581 237 709 l 585 581 q 537 776 576 708 q 407 866 485 866 m 407 -14 q 119 153 214 -14 q 44 509 44 286 q 119 864 44 731 q 407 1031 214 1031 q 694 863 602 1031 q 770 509 770 727 q 694 154 770 291 q 407 -14 602 -14 m 585 438 l 229 438 q 276 243 237 307 q 407 151 331 151 q 537 242 484 151 q 585 438 576 310 z "},"Ơ":{"ha":814,"x_min":44,"x_max":807,"o":"m 407 866 q 277 775 330 866 q 227 509 227 691 q 276 243 227 323 q 407 151 332 151 q 537 242 484 151 q 587 509 587 328 q 537 776 587 690 q 407 866 485 866 m 407 -14 q 119 153 214 -14 q 44 509 44 286 q 119 864 44 731 q 407 1031 214 1031 q 654 924 563 1031 q 659 1017 659 960 l 807 1017 q 731 779 807 836 q 770 509 770 665 q 694 154 770 291 q 407 -14 602 -14 z "},"ơ":{"ha":814,"x_min":85,"x_max":807,"o":"m 407 592 q 299 530 334 592 q 268 373 268 474 q 299 216 268 266 q 409 154 338 154 q 515 216 476 154 q 546 373 546 267 q 515 528 546 475 q 407 592 477 592 m 644 98 q 407 -14 553 -14 q 170 98 261 -14 q 85 373 85 202 q 170 648 85 549 q 407 760 266 760 q 651 639 555 760 q 659 746 659 677 l 807 746 q 716 497 807 547 q 729 373 729 440 q 644 98 729 202 z "},"Ƣ":{"ha":814,"x_min":20,"x_max":785,"o":"m 286 149 q 319 157 306 149 q 345 184 332 165 q 372 296 361 210 q 383 510 383 383 q 372 722 383 632 q 345 833 361 811 q 286 868 319 868 q 228 832 251 868 q 201 723 212 808 q 191 510 191 637 q 201 296 191 387 q 229 184 212 212 q 254 157 241 164 q 286 149 267 149 m 785 0 l 622 0 l 622 850 l 534 771 q 553 509 553 666 q 526 204 553 315 q 462 66 503 116 q 287 -14 395 -14 q 112 67 179 -14 q 42 234 64 125 q 20 509 20 343 q 42 784 20 675 q 112 950 64 892 q 287 1031 179 1031 q 462 951 394 1031 q 494 901 480 929 l 622 1017 l 785 1017 l 785 0 z "},"ƣ":{"ha":814,"x_min":17,"x_max":783,"o":"m 286 149 q 324 157 309 149 q 351 182 338 164 q 382 373 382 230 q 351 564 382 515 q 324 589 340 581 q 286 597 309 597 q 226 563 250 597 q 202 496 212 543 q 193 373 193 451 q 202 252 193 302 q 226 183 211 203 q 286 149 252 149 m 783 746 l 783 -271 l 621 -271 l 621 579 l 545 513 q 559 374 559 451 q 467 64 559 170 q 286 -14 399 -14 q 109 66 182 -14 q 17 373 17 167 q 109 680 17 581 q 286 760 182 760 q 467 682 402 760 q 500 636 485 661 l 621 746 l 783 746 z "},"Ƥ":{"ha":814,"x_min":0,"x_max":743,"o":"m 163 0 l 163 904 q 128 751 128 904 l 0 751 q 163 1017 0 1017 l 370 1017 q 621 932 519 1017 q 743 663 743 830 q 619 391 743 493 q 370 309 519 309 l 346 309 l 346 0 l 163 0 m 370 852 l 346 852 l 346 473 l 370 473 q 503 519 457 473 q 559 663 559 574 q 502 805 559 752 q 370 852 450 852 z "},"ƥ":{"ha":814,"x_min":96,"x_max":729,"o":"m 414 154 q 515 218 479 154 q 546 373 546 273 q 515 530 546 477 q 412 592 478 592 q 309 530 347 592 q 277 373 277 479 q 307 218 277 271 q 414 154 343 154 m 96 -271 l 96 746 q 162 945 96 878 q 397 1031 247 1031 l 397 883 q 309 840 342 883 q 279 746 279 800 l 279 692 q 435 760 342 760 q 644 648 553 760 q 729 373 729 544 q 644 98 729 202 q 435 -14 553 -14 q 279 57 341 -14 l 279 -271 l 96 -271 z "},"Ʀ":{"ha":814,"x_min":96,"x_max":814,"o":"m 96 0 l 96 1017 l 279 1017 l 279 746 l 353 746 q 591 684 503 746 q 694 481 694 611 q 606 284 694 363 q 581 263 592 271 l 814 -271 l 610 -271 l 418 195 q 353 189 376 189 l 279 189 l 279 0 l 96 0 m 279 581 l 279 353 l 353 353 q 467 382 431 353 q 511 469 511 416 q 462 559 511 529 q 353 581 427 581 l 279 581 z "},"Ƨ":{"ha":814,"x_min":71,"x_max":743,"o":"m 743 325 q 661 87 743 178 q 407 -14 571 -14 q 159 85 253 -14 q 71 303 71 178 q 261 583 71 494 l 479 684 q 532 769 532 708 q 499 836 532 810 q 413 865 464 865 q 325 830 361 865 q 291 745 292 799 l 116 745 q 198 949 116 870 q 412 1031 283 1031 q 625 954 540 1031 q 710 763 710 879 q 564 524 710 593 l 326 412 q 254 301 254 378 q 291 204 254 248 q 407 151 336 151 q 524 203 483 151 q 559 325 559 248 l 743 325 z "},"ƨ":{"ha":814,"x_min":110,"x_max":704,"o":"m 704 273 q 627 66 704 143 q 408 -14 546 -14 q 195 58 276 -14 q 110 238 110 133 q 298 449 110 388 l 437 494 q 506 549 506 516 q 483 586 506 573 q 421 600 459 600 q 355 570 383 600 q 334 508 334 545 l 158 508 q 219 675 158 606 q 416 760 292 760 q 585 713 518 760 q 680 545 680 647 q 515 350 680 404 l 351 297 q 292 235 292 278 q 323 177 292 202 q 404 153 353 153 q 495 187 457 153 q 529 273 529 218 l 704 273 z "},"Ʃ":{"ha":814,"x_min":71,"x_max":743,"o":"m 71 0 l 71 109 q 391 523 223 363 q 71 1017 223 708 l 695 1017 l 695 848 l 347 848 q 608 522 463 666 q 300 170 418 344 l 743 170 l 743 0 l 71 0 z "},"ƪ":{"ha":814,"x_min":85,"x_max":803,"o":"m 284 878 q 255 866 266 878 q 243 831 243 854 q 256 800 243 812 q 286 787 268 787 l 315 787 l 315 833 q 309 865 315 857 q 284 878 298 878 m 315 631 q 142 690 200 631 q 85 831 85 748 q 143 972 85 914 q 292 1031 201 1031 q 440 972 382 1031 q 498 831 498 914 l 498 787 l 632 787 l 632 631 l 498 631 l 498 22 q 527 -90 498 -52 q 600 -120 550 -120 q 694 -73 654 -120 l 803 -195 q 593 -285 726 -285 q 385 -199 464 -285 q 315 16 315 -123 l 315 631 z "},"ƫ":{"ha":814,"x_min":96,"x_max":718,"o":"m 315 1017 l 498 1017 l 498 746 l 718 746 l 718 576 l 498 576 l 498 292 q 524 183 498 213 q 600 151 551 151 q 707 206 660 151 l 707 7 q 641 -193 707 -125 q 406 -278 556 -278 l 406 -130 q 500 -91 471 -130 q 524 -8 524 -58 q 381 66 435 7 q 315 281 315 136 l 315 576 l 96 576 l 96 746 l 315 746 l 315 1017 z "},"Ƭ":{"ha":814,"x_min":31,"x_max":743,"o":"m 315 0 l 315 848 q 216 807 256 848 q 178 715 178 768 l 31 715 q 116 951 31 866 q 315 1017 183 1017 l 743 1017 l 743 848 l 498 848 l 498 0 l 315 0 z "},"ƭ":{"ha":814,"x_min":96,"x_max":803,"o":"m 803 77 q 593 -14 726 -14 q 381 66 455 -14 q 315 281 315 136 l 315 576 l 96 576 l 96 746 l 315 746 q 382 945 315 878 q 617 1031 467 1031 l 617 883 q 528 840 562 883 q 498 746 498 800 l 718 746 l 718 576 l 498 576 l 498 292 q 524 183 498 213 q 600 151 551 151 q 707 206 660 151 l 803 77 z "},"Ʈ":{"ha":814,"x_min":71,"x_max":743,"o":"m 315 0 q 315 848 315 0 l 71 848 l 71 1017 l 743 1017 l 743 848 l 498 848 l 498 0 q 528 -87 498 -47 q 617 -130 560 -130 l 617 -278 q 382 -193 467 -278 q 315 0 315 -125 z "},"Ư":{"ha":814,"x_min":34,"x_max":807,"o":"m 34 1017 l 217 1017 l 217 313 q 244 203 217 241 q 339 151 280 151 q 435 203 404 151 q 461 307 461 249 l 461 1017 l 644 1017 l 644 865 q 679 1017 679 865 l 807 1017 q 644 751 807 751 l 644 307 q 564 81 644 165 q 339 -14 472 -14 q 113 82 203 -14 q 34 306 34 166 l 34 1017 z "},"ư":{"ha":814,"x_min":54,"x_max":807,"o":"m 644 0 l 461 0 l 461 69 q 309 -14 392 -14 q 123 66 199 -14 q 54 279 54 140 l 54 746 l 237 746 l 237 288 q 264 186 237 218 q 339 151 294 151 q 417 199 381 151 q 461 354 461 259 l 461 746 l 644 746 l 644 593 q 679 746 679 593 l 807 746 q 644 480 807 480 l 644 0 z "},"Ʊ":{"ha":814,"x_min":44,"x_max":770,"o":"m 55 1031 l 376 1031 l 376 843 q 276 753 315 815 q 227 527 227 675 q 277 257 227 342 q 407 165 330 165 q 537 257 485 165 q 587 527 587 343 q 537 753 587 666 q 437 844 496 827 l 437 1031 l 759 1031 l 759 861 l 644 861 q 679 818 663 842 q 770 522 770 686 q 694 168 770 304 q 407 0 602 0 q 119 167 214 0 q 44 522 44 300 q 138 825 44 688 q 167 861 151 844 l 55 861 l 55 1031 z "},"Ʋ":{"ha":814,"x_min":71,"x_max":749,"o":"m 71 1017 l 254 1017 l 254 288 q 258 198 254 212 q 321 151 271 151 q 481 270 411 151 q 567 578 567 414 q 415 1017 567 834 l 607 1017 q 749 574 749 825 q 627 148 749 327 q 304 -14 517 -14 q 138 52 206 -14 q 71 227 71 117 l 71 1017 z "},"Ƴ":{"ha":814,"x_min":0,"x_max":821,"o":"m 278 0 l 278 401 q 0 1017 102 726 l 183 1017 q 370 577 269 779 q 492 886 457 749 q 653 1031 515 1031 q 821 881 770 1031 l 697 817 q 675 861 697 861 q 656 846 664 861 q 461 401 594 631 l 461 0 l 278 0 z "},"ƴ":{"ha":814,"x_min":0,"x_max":821,"o":"m 0 746 q 183 746 0 746 q 371 182 248 447 q 492 614 441 357 q 653 760 515 760 q 821 610 770 760 l 697 546 q 675 590 697 590 q 656 575 664 590 q 301 -271 543 23 l 100 -271 q 273 0 199 -140 q 0 746 121 259 z "},"Ƶ":{"ha":814,"x_min":71,"x_max":743,"o":"m 71 0 l 71 170 q 288 438 194 300 l 214 438 l 214 581 l 376 581 q 498 848 450 711 l 117 848 l 117 1017 l 741 1017 q 570 581 676 788 l 667 581 l 667 438 l 490 438 q 301 170 406 298 l 743 171 l 743 0 l 71 0 z "},"ƶ":{"ha":814,"x_min":96,"x_max":718,"o":"m 96 0 l 96 170 q 249 300 180 234 l 193 300 l 193 442 l 376 442 q 463 576 427 509 l 120 576 l 120 746 l 718 746 q 585 442 678 587 l 646 442 l 646 300 l 476 300 q 346 170 418 233 l 718 170 l 718 0 l 96 0 z "},"Ʒ":{"ha":814,"x_min":69,"x_max":743,"o":"m 69 267 q 397 151 242 151 q 511 203 464 151 q 549 310 549 245 q 503 425 549 375 q 354 472 458 472 l 354 638 q 494 848 434 728 l 153 848 l 153 1017 l 743 1017 q 529 598 663 747 q 677 486 619 568 q 732 306 732 406 q 644 85 732 180 q 397 -14 549 -14 q 70 74 252 -14 l 69 267 z "},"Ƹ":{"ha":814,"x_min":71,"x_max":745,"o":"m 745 267 q 744 74 745 267 q 417 -14 562 -14 q 170 85 262 -14 q 81 306 81 180 q 137 486 81 406 q 285 598 195 568 q 71 1017 151 747 l 661 1017 l 661 848 l 320 848 q 460 638 380 728 l 460 472 q 311 425 356 472 q 264 310 264 375 q 303 203 264 245 q 417 151 350 151 q 745 267 572 151 z "},"ƹ":{"ha":814,"x_min":105,"x_max":779,"o":"m 779 -4 q 778 -197 779 -4 q 451 -285 595 -285 q 203 -186 297 -285 q 115 35 115 -92 q 171 214 115 135 q 319 327 229 297 q 105 746 184 476 l 661 746 l 661 576 l 354 576 q 494 367 414 457 l 494 201 q 345 153 390 201 q 298 39 298 104 q 337 -68 298 -26 q 451 -120 384 -120 q 779 -4 606 -120 z "},"ƺ":{"ha":814,"x_min":88,"x_max":701,"o":"m 173 746 l 695 746 q 522 439 642 553 q 701 244 701 373 q 618 57 701 127 q 372 -14 536 -14 q 290 -25 321 -14 q 257 -70 257 -37 q 416 -123 257 -123 l 416 -278 q 88 -73 88 -278 q 146 83 88 28 q 372 151 218 151 q 495 180 459 151 q 524 244 524 203 q 493 301 524 283 q 350 319 461 319 l 350 486 q 446 576 411 524 l 173 576 l 173 746 z "},"ƻ":{"ha":814,"x_min":71,"x_max":769,"o":"m 71 0 l 71 130 q 212 353 73 243 l 320 438 l 248 438 l 248 581 l 496 581 q 559 704 559 643 q 524 816 559 772 q 407 866 482 866 q 292 811 336 866 q 254 692 254 764 l 71 692 q 158 926 71 833 q 407 1031 258 1031 q 658 933 567 1031 q 743 715 743 842 q 708 581 743 645 l 769 581 l 769 438 l 579 438 l 312 229 q 260 170 274 199 l 743 170 l 743 0 l 71 0 z "},"Ƽ":{"ha":814,"x_min":71,"x_max":743,"o":"m 71 325 l 254 325 q 288 207 254 248 q 407 151 333 152 q 522 211 477 151 q 559 349 559 262 q 520 475 559 422 q 407 536 476 536 q 289 463 335 536 l 129 551 l 178 848 l 98 848 l 98 1017 l 680 1017 l 680 848 l 355 848 l 327 686 q 411 701 367 701 q 650 604 564 701 q 743 348 743 500 q 661 100 743 201 q 407 -14 570 -14 q 152 94 250 -14 q 71 325 71 182 z "},"ƽ":{"ha":814,"x_min":71,"x_max":743,"o":"m 71 54 l 254 54 q 288 -64 254 -23 q 407 -120 333 -119 q 522 -60 477 -120 q 559 78 559 -9 q 520 204 559 151 q 407 264 476 264 q 289 192 335 264 l 129 279 l 178 576 l 98 576 l 98 746 l 680 746 l 680 576 l 355 576 l 327 414 q 411 429 367 429 q 650 332 564 429 q 743 77 743 229 q 661 -172 743 -71 q 407 -285 570 -285 q 152 -178 250 -285 q 71 54 71 -89 z "},"ƾ":{"ha":814,"x_min":96,"x_max":718,"o":"m 326 1017 l 500 1017 l 501 746 l 718 746 l 718 576 l 510 576 q 600 465 531 513 q 704 271 704 394 q 619 77 704 154 q 406 0 534 0 q 192 82 277 0 q 110 286 110 161 l 285 286 q 319 201 286 232 q 407 166 355 166 q 489 191 458 166 q 527 267 527 222 q 462 377 527 328 q 332 576 353 459 l 96 576 l 96 746 l 326 746 l 326 1017 z "},"ƿ":{"ha":814,"x_min":136,"x_max":711,"o":"m 136 746 l 319 746 l 319 684 q 472 760 384 760 q 616 715 558 760 q 711 502 711 642 q 555 171 711 336 l 319 -71 l 319 -271 l 136 -271 l 136 746 m 514 498 q 492 583 514 557 q 453 604 474 604 q 363 534 408 604 q 319 311 319 463 l 319 132 l 441 294 q 514 498 514 395 z "},"ǀ":{"ha":814,"x_min":315,"x_max":498,"o":"m 498 0 l 315 0 l 315 1017 l 498 1017 l 498 0 z "},"ǁ":{"ha":814,"x_min":173,"x_max":641,"o":"m 641 0 l 458 0 l 458 1017 l 641 1017 l 641 0 m 356 0 l 173 0 l 173 1017 l 356 1017 l 356 0 z "},"ǂ":{"ha":814,"x_min":96,"x_max":718,"o":"m 322 0 l 322 227 l 96 227 l 96 396 l 322 396 l 322 621 l 96 621 l 96 791 l 322 791 l 322 1017 l 492 1017 l 492 791 l 718 791 l 718 621 l 492 621 l 492 396 l 718 396 l 718 227 l 492 227 l 492 0 l 322 0 z "},"ǃ":{"ha":814,"x_min":286,"x_max":528,"o":"m 407 -14 q 322 20 357 -14 q 286 106 286 55 q 322 193 286 158 q 407 227 358 227 q 492 193 459 227 q 528 106 528 156 q 492 21 528 56 q 407 -14 456 -14 m 498 251 l 315 251 l 315 1017 l 498 1017 l 498 251 z "},"Ǆ":{"ha":814,"x_min":19,"x_max":841,"o":"m 555 1309 l 644 1183 l 732 1309 l 841 1244 l 697 1051 l 591 1051 l 448 1244 l 555 1309 m 431 0 l 431 156 q 627 861 606 511 l 477 861 l 477 1017 l 802 1017 q 610 157 771 513 l 804 157 l 804 0 l 431 0 m 19 0 l 19 1017 l 189 1017 q 370 937 303 1017 q 440 770 416 882 q 462 522 462 654 q 440 248 462 357 q 370 81 418 138 q 189 0 303 0 l 19 0 m 176 868 l 176 148 q 244 171 224 148 q 281 296 269 198 q 292 510 292 384 q 281 723 292 637 q 254 832 270 808 q 176 868 231 868 z "},"ǅ":{"ha":814,"x_min":19,"x_max":807,"o":"m 576 1031 l 637 905 l 698 1031 l 807 966 l 690 773 l 585 773 l 468 966 l 576 1031 m 431 0 l 431 156 q 627 590 606 381 l 477 590 l 477 746 l 802 746 q 610 157 787 399 l 804 157 l 804 0 l 431 0 m 19 0 l 19 1017 l 189 1017 q 370 937 303 1017 q 440 770 416 882 q 462 522 462 654 q 440 248 462 357 q 370 81 418 138 q 189 0 303 0 l 19 0 m 176 868 l 176 148 q 244 171 224 148 q 281 296 269 198 q 292 510 292 384 q 281 723 292 637 q 254 832 270 808 q 176 868 231 868 z "},"ǆ":{"ha":814,"x_min":14,"x_max":807,"o":"m 576 1031 l 637 905 l 698 1031 l 807 966 l 690 773 l 585 773 l 468 966 l 576 1031 m 452 0 l 296 0 l 296 56 q 194 -14 262 -14 q 75 71 130 -14 q 14 351 14 165 q 81 675 14 576 q 217 760 137 760 q 296 730 262 760 l 296 1017 l 452 1017 l 452 0 m 270 171 q 296 374 296 218 q 270 574 296 521 q 235 610 252 610 q 197 577 209 610 q 176 374 176 515 q 198 167 176 209 q 235 136 215 136 q 270 171 250 136 m 476 0 l 476 156 q 647 590 612 389 l 477 590 l 477 746 l 802 746 q 631 157 777 382 l 804 157 l 804 0 l 476 0 z "},"Ǉ":{"ha":814,"x_min":41,"x_max":773,"o":"m 465 1017 l 773 1017 l 773 277 q 716 67 773 138 q 566 -12 652 -12 q 403 75 465 -12 q 361 277 361 154 l 504 277 q 519 188 505 213 q 556 161 534 161 q 594 192 581 161 q 604 277 604 214 l 604 848 l 465 848 l 465 1017 m 353 0 l 41 0 l 41 1017 l 210 1017 l 210 170 l 353 170 l 353 0 z "},"ǈ":{"ha":814,"x_min":81,"x_max":751,"o":"m 630 1031 q 715 997 683 1031 q 751 911 751 960 q 716 825 751 860 q 630 791 681 791 q 545 824 579 791 q 509 911 509 859 q 545 997 509 962 q 630 1031 581 1031 m 414 746 l 735 746 l 735 10 q 665 -205 735 -132 q 465 -285 591 -285 q 261 -195 338 -285 l 357 -65 q 464 -120 404 -120 q 541 -88 513 -120 q 566 21 566 -60 l 566 576 l 414 576 l 414 746 m 462 0 l 81 0 l 81 1017 l 251 1017 l 251 170 l 462 170 l 462 0 z "},"ǉ":{"ha":814,"x_min":27,"x_max":724,"o":"m 409 -14 q 197 66 271 -14 q 145 281 145 136 l 145 848 l 27 848 l 27 1017 l 315 1017 l 315 292 q 340 183 315 213 q 409 151 368 151 l 409 -14 m 603 1031 q 688 997 656 1031 q 724 911 724 960 q 689 825 724 860 q 603 791 654 791 q 518 824 552 791 q 481 911 481 859 q 518 997 481 962 q 603 1031 554 1031 m 387 746 l 708 746 l 708 10 q 639 -206 708 -133 q 444 -285 564 -285 q 234 -195 311 -285 l 330 -65 q 437 -120 377 -120 q 513 -88 486 -120 q 538 21 538 -60 l 538 576 l 387 576 l 387 746 z "},"Ǌ":{"ha":814,"x_min":47,"x_max":766,"o":"m 526 1017 l 766 1017 l 766 281 q 701 66 766 136 q 509 -14 627 -14 l 509 132 q 590 183 559 132 q 610 292 610 217 l 610 875 l 526 875 l 526 1017 m 47 0 l 47 1017 l 203 1017 q 323 571 279 762 l 323 1017 l 466 1017 l 466 0 l 323 0 q 190 641 298 305 l 190 0 l 47 0 z "},"ǋ":{"ha":814,"x_min":68,"x_max":751,"o":"m 68 0 l 68 1017 l 224 1017 q 344 571 299 762 l 344 1017 l 486 1017 l 486 0 l 344 0 q 210 641 319 305 l 210 0 l 68 0 m 630 1031 q 715 997 683 1031 q 751 911 751 960 q 716 825 751 860 q 630 791 681 791 q 545 824 579 791 q 509 911 509 859 q 545 997 509 962 q 630 1031 581 1031 m 509 746 l 749 746 l 749 10 q 683 -205 749 -135 q 498 -285 609 -285 q 288 -195 365 -285 l 384 -84 q 491 -139 431 -139 q 572 -88 542 -139 q 593 21 593 -54 l 593 604 l 509 604 l 509 746 z "},"ǌ":{"ha":814,"x_min":74,"x_max":751,"o":"m 630 1031 q 715 997 683 1031 q 751 911 751 960 q 716 825 751 860 q 630 791 681 791 q 545 824 579 791 q 509 911 509 859 q 545 997 509 962 q 630 1031 581 1031 m 509 746 l 749 746 l 749 10 q 683 -205 749 -135 q 498 -285 609 -285 q 288 -195 365 -285 l 384 -84 q 491 -139 431 -139 q 572 -88 542 -139 q 593 21 593 -54 l 593 604 l 509 604 l 509 746 m 74 0 l 74 746 l 230 746 l 230 677 q 347 760 273 760 q 467 663 436 760 q 484 509 484 610 l 484 0 l 330 0 l 330 509 q 323 560 330 545 q 281 594 310 594 q 237 562 250 594 q 230 509 230 541 l 230 0 l 74 0 z "},"Ǎ":{"ha":814,"x_min":3,"x_max":810,"o":"m 318 1309 l 407 1183 l 494 1309 l 604 1244 l 460 1051 l 354 1051 l 210 1244 l 318 1309 m 3 0 q 315 1017 94 488 l 498 1017 q 810 0 728 488 l 627 0 q 534 424 591 216 l 281 424 q 186 0 224 218 l 3 0 m 497 580 q 407 865 464 711 q 317 580 351 711 l 497 580 z "},"ǎ":{"ha":814,"x_min":92,"x_max":710,"o":"m 318 1031 l 407 905 l 494 1031 l 604 966 l 460 773 l 354 773 l 210 966 l 318 1031 m 710 0 l 527 0 l 527 68 q 348 -14 459 -14 q 153 62 222 -14 q 92 219 92 131 q 198 418 92 347 q 394 473 281 473 l 523 473 q 506 545 520 524 q 415 593 474 593 q 280 522 338 593 l 151 639 q 419 760 260 760 q 656 646 573 760 q 710 439 710 572 l 710 0 m 526 313 l 396 313 q 298 286 334 313 q 269 225 269 264 q 299 171 269 194 q 372 151 325 151 q 468 191 432 151 q 526 313 517 245 z "},"Ǐ":{"ha":814,"x_min":96,"x_max":718,"o":"m 318 1309 l 407 1183 l 494 1309 l 604 1244 l 460 1051 l 354 1051 l 210 1244 l 318 1309 m 718 0 l 96 0 l 96 170 l 315 170 l 315 848 l 96 848 l 96 1017 l 718 1017 l 718 848 l 498 848 l 498 170 l 718 170 l 718 0 z "},"ǐ":{"ha":814,"x_min":96,"x_max":803,"o":"m 318 1031 l 407 905 l 494 1031 l 604 966 l 460 773 l 354 773 l 210 966 l 318 1031 m 803 77 q 593 -14 726 -14 q 381 66 455 -14 q 315 281 315 136 l 315 576 l 96 576 l 96 746 l 498 746 l 498 292 q 524 183 498 213 q 600 151 551 151 q 707 206 660 151 l 803 77 z "},"Ǒ":{"ha":814,"x_min":44,"x_max":770,"o":"m 318 1309 l 407 1183 l 494 1309 l 604 1244 l 460 1051 l 354 1051 l 210 1244 l 318 1309 m 407 -14 q 119 153 214 -14 q 44 509 44 286 q 119 864 44 731 q 407 1031 214 1031 q 694 863 602 1031 q 770 509 770 727 q 694 154 770 291 q 407 -14 602 -14 m 407 866 q 277 775 330 866 q 227 509 227 691 q 276 243 227 323 q 407 151 332 151 q 537 242 484 151 q 587 509 587 328 q 537 776 587 690 q 407 866 485 866 z "},"ǒ":{"ha":814,"x_min":85,"x_max":729,"o":"m 318 1031 l 407 905 l 494 1031 l 604 966 l 460 773 l 354 773 l 210 966 l 318 1031 m 407 592 q 299 530 334 592 q 268 373 268 474 q 299 216 268 266 q 409 154 338 154 q 515 216 476 154 q 546 373 546 267 q 515 528 546 475 q 407 592 477 592 m 644 98 q 407 -14 553 -14 q 170 98 261 -14 q 85 373 85 202 q 170 648 85 544 q 407 760 261 760 q 644 648 553 760 q 729 373 729 544 q 644 98 729 202 z "},"Ǔ":{"ha":814,"x_min":71,"x_max":743,"o":"m 318 1309 l 407 1183 l 494 1309 l 604 1244 l 460 1051 l 354 1051 l 210 1244 l 318 1309 m 71 1017 l 254 1017 l 254 313 q 292 203 254 247 q 407 151 335 151 q 522 204 475 151 q 559 313 559 246 l 559 1017 l 743 1017 l 743 306 q 654 85 743 178 q 407 -14 559 -14 q 158 85 257 -14 q 71 306 71 172 l 71 1017 z "},"ǔ":{"ha":814,"x_min":96,"x_max":718,"o":"m 318 1031 l 407 905 l 494 1031 l 604 966 l 460 773 l 354 773 l 210 966 l 318 1031 m 718 0 l 535 0 l 535 69 q 351 -14 466 -14 q 165 66 240 -14 q 96 279 96 140 l 96 746 l 279 746 l 279 288 q 306 186 279 218 q 380 151 335 151 q 484 197 440 151 q 535 354 535 251 l 535 746 l 718 746 l 718 0 z "},"Ǖ":{"ha":814,"x_min":71,"x_max":743,"o":"m 541 950 q 464 981 496 950 q 431 1058 431 1012 q 464 1136 431 1105 q 541 1166 495 1166 q 618 1135 585 1166 q 650 1058 650 1104 q 617 981 650 1013 q 541 950 587 950 m 278 950 q 202 981 234 950 q 169 1058 169 1012 q 202 1136 169 1105 q 278 1166 234 1166 q 355 1135 323 1166 q 387 1058 387 1103 q 355 981 387 1013 q 278 950 324 950 m 248 1198 l 248 1340 l 566 1340 l 566 1198 l 248 1198 m 71 916 l 254 916 l 254 313 q 292 203 254 247 q 407 151 335 151 q 522 204 475 151 q 559 313 559 246 l 559 916 l 743 916 l 743 306 q 654 85 743 178 q 407 -14 559 -14 q 158 85 257 -14 q 71 306 71 172 l 71 916 z "},"ǖ":{"ha":814,"x_min":96,"x_max":718,"o":"m 541 780 q 464 810 496 780 q 431 888 431 842 q 464 966 431 935 q 541 996 495 996 q 618 965 585 996 q 650 888 650 934 q 617 810 650 843 q 541 780 587 780 m 278 780 q 202 810 234 780 q 169 888 169 842 q 202 966 169 935 q 278 996 234 996 q 355 965 323 996 q 387 888 387 933 q 355 810 387 843 q 278 780 324 780 m 248 1027 l 248 1170 l 566 1170 l 566 1027 l 248 1027 m 718 0 l 535 0 l 535 69 q 351 -14 466 -14 q 165 66 240 -14 q 96 279 96 140 l 96 746 l 279 746 l 279 288 q 306 186 279 218 q 380 151 335 151 q 484 197 440 151 q 535 354 535 251 l 535 746 l 718 746 l 718 0 z "},"Ǘ":{"ha":814,"x_min":71,"x_max":743,"o":"m 71 916 l 254 916 l 254 313 q 292 203 254 247 q 407 151 335 151 q 522 204 475 151 q 559 313 559 246 l 559 916 l 743 916 l 743 306 q 654 85 743 178 q 407 -14 559 -14 q 158 85 257 -14 q 71 306 71 172 l 71 916 m 419 1369 l 556 1294 l 424 1104 l 323 1158 l 419 1369 m 538 1149 q 614 1119 584 1149 q 647 1042 647 1086 q 615 964 647 996 q 538 933 583 933 q 461 964 492 933 q 429 1042 429 995 q 461 1119 429 1088 q 538 1149 494 1149 m 275 1149 q 352 1119 321 1149 q 385 1042 385 1086 q 353 965 385 996 q 275 933 321 933 q 199 964 231 933 q 166 1042 166 995 q 199 1119 166 1088 q 275 1149 231 1149 z "},"ǘ":{"ha":814,"x_min":96,"x_max":718,"o":"m 419 1205 l 556 1131 l 424 941 l 323 995 l 419 1205 m 538 986 q 614 956 584 986 q 647 878 647 923 q 615 801 647 832 q 538 770 583 770 q 461 800 492 770 q 429 878 429 831 q 461 956 429 924 q 538 986 494 986 m 275 986 q 352 956 321 986 q 385 878 385 923 q 353 801 385 833 q 275 770 321 770 q 199 800 231 770 q 166 878 166 831 q 199 956 166 924 q 275 986 231 986 m 718 0 l 535 0 l 535 69 q 351 -14 466 -14 q 165 66 240 -14 q 96 279 96 140 l 96 746 l 279 746 l 279 288 q 306 186 279 218 q 380 151 335 151 q 484 197 440 151 q 535 354 535 251 l 535 746 l 718 746 l 718 0 z "},"Ǚ":{"ha":814,"x_min":71,"x_max":743,"o":"m 538 1149 q 614 1119 584 1149 q 647 1042 647 1086 q 615 964 647 996 q 538 933 583 933 q 461 964 492 933 q 429 1042 429 995 q 461 1119 429 1088 q 538 1149 494 1149 m 275 1149 q 352 1119 321 1149 q 385 1042 385 1086 q 353 965 385 996 q 275 933 321 933 q 199 964 231 933 q 166 1042 166 995 q 199 1119 166 1088 q 275 1149 231 1149 m 71 916 l 254 916 l 254 313 q 292 203 254 247 q 407 151 335 151 q 522 204 475 151 q 559 313 559 246 l 559 916 l 743 916 l 743 306 q 654 85 743 178 q 407 -14 559 -14 q 158 85 257 -14 q 71 306 71 172 l 71 916 m 402 1259 l 521 1343 l 600 1260 l 455 1146 l 349 1146 l 205 1260 l 283 1343 l 402 1259 z "},"ǚ":{"ha":814,"x_min":96,"x_max":718,"o":"m 402 1096 l 521 1179 l 600 1097 l 455 983 l 349 983 l 205 1097 l 283 1179 l 402 1096 m 275 986 q 352 956 319 986 q 385 878 385 924 q 352 800 385 831 q 275 770 321 770 q 198 801 231 770 q 166 878 166 832 q 199 956 166 923 q 275 986 229 986 m 538 986 q 614 956 582 986 q 647 878 647 924 q 614 800 647 831 q 538 770 582 770 q 460 801 492 770 q 429 878 429 833 q 461 956 429 923 q 538 986 492 986 m 718 0 l 535 0 l 535 69 q 351 -14 466 -14 q 165 66 240 -14 q 96 279 96 140 l 96 746 l 279 746 l 279 288 q 306 186 279 218 q 380 151 335 151 q 484 197 440 151 q 535 354 535 251 l 535 746 l 718 746 l 718 0 z "},"Ǜ":{"ha":814,"x_min":71,"x_max":743,"o":"m 394 1369 l 490 1158 l 389 1104 l 257 1294 l 394 1369 m 275 1149 q 352 1119 319 1149 q 385 1042 385 1088 q 352 964 385 995 q 275 933 321 933 q 198 964 231 933 q 166 1042 166 996 q 199 1119 166 1086 q 275 1149 229 1149 m 538 1149 q 614 1119 582 1149 q 647 1042 647 1088 q 614 964 647 995 q 538 933 582 933 q 460 965 492 933 q 429 1042 429 996 q 461 1119 429 1086 q 538 1149 492 1149 m 71 916 l 254 916 l 254 313 q 292 203 254 247 q 407 151 335 151 q 522 204 475 151 q 559 313 559 246 l 559 916 l 743 916 l 743 306 q 654 85 743 178 q 407 -14 559 -14 q 158 85 257 -14 q 71 306 71 172 l 71 916 z "},"ǜ":{"ha":814,"x_min":96,"x_max":718,"o":"m 394 1205 l 490 995 l 389 941 l 257 1131 l 394 1205 m 275 986 q 352 956 319 986 q 385 878 385 924 q 352 800 385 831 q 275 770 321 770 q 198 801 231 770 q 166 878 166 832 q 199 956 166 923 q 275 986 229 986 m 538 986 q 614 956 582 986 q 647 878 647 924 q 614 800 647 831 q 538 770 582 770 q 460 801 492 770 q 429 878 429 833 q 461 956 429 923 q 538 986 492 986 m 718 0 l 535 0 l 535 69 q 351 -14 466 -14 q 165 66 240 -14 q 96 279 96 140 l 96 746 l 279 746 l 279 288 q 306 186 279 218 q 380 151 335 151 q 484 197 440 151 q 535 354 535 251 l 535 746 l 718 746 l 718 0 z "},"ǝ":{"ha":814,"x_min":85,"x_max":729,"o":"m 98 499 q 170 648 119 585 q 407 760 261 760 q 644 648 553 760 q 729 373 729 544 q 644 98 729 202 q 407 -14 553 -14 q 170 98 261 -14 q 85 363 85 202 l 536 478 q 515 530 528 509 q 405 592 477 592 q 299 530 336 592 q 285 499 291 517 l 98 499 m 545 338 l 281 269 q 299 218 288 241 q 407 154 333 154 q 515 216 481 154 q 545 338 541 262 z "},"Ǟ":{"ha":814,"x_min":3,"x_max":810,"o":"m 541 950 q 464 981 496 950 q 431 1058 431 1012 q 464 1136 431 1105 q 541 1166 495 1166 q 618 1135 585 1166 q 650 1058 650 1104 q 617 981 650 1013 q 541 950 587 950 m 278 950 q 202 981 234 950 q 169 1058 169 1012 q 202 1136 169 1105 q 278 1166 234 1166 q 355 1135 323 1166 q 387 1058 387 1103 q 355 981 387 1013 q 278 950 324 950 m 248 1198 l 248 1340 l 566 1340 l 566 1198 l 248 1198 m 3 0 q 315 916 117 444 l 498 916 q 810 0 695 449 l 627 0 q 537 319 585 169 l 278 319 q 186 0 229 167 l 3 0 m 407 709 q 321 461 360 587 l 493 461 q 407 709 454 587 z "},"ǟ":{"ha":814,"x_min":92,"x_max":710,"o":"m 541 780 q 464 810 496 780 q 431 888 431 842 q 464 966 431 935 q 541 996 495 996 q 618 965 585 996 q 650 888 650 934 q 617 810 650 843 q 541 780 587 780 m 278 780 q 202 810 234 780 q 169 888 169 842 q 202 966 169 935 q 278 996 234 996 q 355 965 323 996 q 387 888 387 933 q 355 810 387 843 q 278 780 324 780 m 248 1027 l 248 1170 l 566 1170 l 566 1027 l 248 1027 m 710 0 l 527 0 l 527 68 q 348 -14 459 -14 q 153 62 222 -14 q 92 219 92 131 q 198 418 92 347 q 394 473 281 473 l 523 473 q 506 545 520 524 q 415 593 474 593 q 280 522 338 593 l 151 639 q 419 760 260 760 q 656 646 573 760 q 710 439 710 572 l 710 0 m 526 313 l 396 313 q 298 286 334 313 q 269 225 269 264 q 299 171 269 194 q 372 151 325 151 q 468 191 432 151 q 526 313 517 245 z "},"Ǡ":{"ha":814,"x_min":3,"x_max":810,"o":"m 248 1198 l 248 1340 l 566 1340 l 566 1198 l 248 1198 m 407 950 q 331 981 363 950 q 298 1058 298 1012 q 331 1136 298 1105 q 407 1166 363 1166 q 484 1135 452 1166 q 516 1058 516 1103 q 484 981 516 1013 q 407 950 453 950 m 3 0 q 315 916 117 444 l 498 916 q 810 0 695 449 l 627 0 q 537 319 585 169 l 278 319 q 186 0 229 167 l 3 0 m 407 709 q 321 461 360 587 l 493 461 q 407 709 454 587 z "},"ǡ":{"ha":814,"x_min":92,"x_max":710,"o":"m 407 780 q 331 810 363 780 q 298 888 298 842 q 331 966 298 935 q 407 996 363 996 q 484 965 452 996 q 516 888 516 933 q 484 810 516 843 q 407 780 453 780 m 248 1027 l 248 1170 l 566 1170 l 566 1027 l 248 1027 m 710 0 l 527 0 l 527 68 q 348 -14 459 -14 q 153 62 222 -14 q 92 219 92 131 q 198 418 92 347 q 394 473 281 473 l 523 473 q 506 545 520 524 q 415 593 474 593 q 280 522 338 593 l 151 639 q 419 760 260 760 q 656 646 573 760 q 710 439 710 572 l 710 0 m 526 313 l 396 313 q 298 286 334 313 q 269 225 269 264 q 299 171 269 194 q 372 151 325 151 q 468 191 432 151 q 526 313 517 245 z "},"Ǣ":{"ha":814,"x_min":7,"x_max":807,"o":"m 7 0 q 319 1017 106 549 l 764 1017 l 764 848 l 609 848 l 609 593 l 716 593 l 716 424 l 609 424 l 609 170 l 807 170 l 807 0 l 446 0 l 446 424 l 273 424 q 183 0 221 218 l 7 0 m 319 593 l 446 593 l 446 909 q 319 593 361 768 m 319 1241 l 636 1241 l 636 1099 l 319 1099 l 319 1241 z "},"ǣ":{"ha":814,"x_min":28,"x_max":786,"o":"m 786 257 q 724 60 786 132 q 553 -14 661 -14 q 457 0 494 -14 l 321 0 q 261 -14 295 -14 q 90 56 149 -14 q 28 243 28 127 q 95 427 28 351 q 275 498 159 498 l 332 498 l 332 517 q 317 571 332 548 q 256 606 294 606 q 193 583 218 606 q 157 541 168 560 l 33 631 q 77 696 50 669 q 261 760 139 760 q 408 699 347 760 q 553 760 467 760 q 724 693 663 760 q 786 513 786 625 l 786 382 l 485 262 l 485 248 q 499 172 485 195 q 553 144 516 144 q 612 177 589 144 q 632 257 632 209 l 786 257 m 485 414 l 632 467 l 632 488 q 615 566 632 541 q 557 602 591 602 q 503 572 522 602 q 485 488 485 546 l 485 414 m 332 334 l 275 334 q 204 304 224 334 q 187 243 187 279 q 204 180 187 203 q 267 144 230 144 q 319 171 296 144 q 332 231 332 186 l 332 334 m 251 959 l 568 959 l 568 817 l 251 817 l 251 959 z "},"Ǥ":{"ha":814,"x_min":44,"x_max":800,"o":"m 769 593 l 769 509 q 760 363 769 431 l 800 363 l 800 221 l 725 221 q 694 154 711 185 q 407 -14 604 -14 q 119 153 214 -14 q 44 509 44 288 q 119 864 44 729 q 407 1031 214 1031 q 694 863 602 1031 q 737 760 720 817 l 546 760 q 537 775 542 768 q 407 866 484 866 q 277 775 330 866 q 227 509 227 690 q 276 243 227 323 q 407 151 332 151 q 524 221 475 151 l 347 221 l 347 363 l 577 363 q 584 424 581 392 l 372 424 l 372 593 l 769 593 z "},"ǥ":{"ha":814,"x_min":85,"x_max":800,"o":"m 399 592 q 298 528 335 592 q 268 373 268 474 q 299 216 268 269 q 402 154 336 154 q 505 216 467 154 q 532 300 525 248 l 381 300 l 381 443 l 532 443 q 507 528 525 496 q 399 592 471 592 m 718 746 l 718 443 l 800 443 l 800 300 l 718 300 l 718 114 q 640 -166 718 -64 q 392 -285 549 -285 q 125 -133 235 -285 l 271 -38 q 404 -117 320 -117 q 515 -50 482 -117 q 533 54 533 -14 q 378 -14 463 -14 q 170 98 261 -14 q 85 373 85 202 q 170 648 85 544 q 378 760 261 760 q 535 689 473 760 l 535 746 l 718 746 z "},"Ǧ":{"ha":814,"x_min":44,"x_max":769,"o":"m 318 1309 l 407 1183 l 494 1309 l 604 1244 l 460 1051 l 354 1051 l 210 1244 l 318 1309 m 769 593 l 769 509 q 694 154 769 290 q 407 -14 603 -14 q 119 153 214 -14 q 44 509 44 288 q 119 864 44 729 q 407 1031 214 1031 q 694 863 602 1031 q 737 760 720 817 l 546 760 q 537 775 542 768 q 407 866 484 866 q 277 775 330 866 q 227 509 227 691 q 276 243 227 323 q 407 151 332 151 q 537 242 485 151 q 584 424 575 306 l 372 424 l 372 593 l 769 593 z "},"ǧ":{"ha":814,"x_min":85,"x_max":718,"o":"m 318 1031 l 407 905 l 494 1031 l 604 966 l 460 773 l 354 773 l 210 966 l 318 1031 m 399 592 q 298 528 335 592 q 268 373 268 473 q 299 216 268 269 q 402 154 336 154 q 505 216 467 154 q 536 373 536 267 q 507 528 536 475 q 399 592 471 592 m 718 746 l 718 114 q 640 -166 718 -64 q 392 -285 549 -285 q 125 -133 235 -285 l 271 -38 q 404 -117 320 -117 q 515 -50 482 -117 q 533 54 533 -14 q 378 -14 463 -14 q 170 98 261 -14 q 85 373 85 202 q 170 648 85 544 q 378 760 261 760 q 535 689 473 760 l 535 746 l 718 746 z "},"Ǩ":{"ha":814,"x_min":71,"x_max":743,"o":"m 318 1309 l 407 1183 l 494 1309 l 604 1244 l 460 1051 l 354 1051 l 210 1244 l 318 1309 m 71 0 l 71 1017 l 254 1017 l 254 500 q 536 1017 445 743 l 719 1017 q 456 510 616 731 q 743 0 634 282 l 558 0 q 352 380 469 210 q 254 269 307 324 l 254 0 l 71 0 z "},"ǩ":{"ha":814,"x_min":96,"x_max":718,"o":"m 318 1309 l 407 1183 l 494 1309 l 604 1244 l 460 1051 l 354 1051 l 210 1244 l 318 1309 m 96 0 l 96 1017 l 279 1017 l 279 304 q 522 746 457 483 l 705 746 q 538 374 657 548 q 718 0 645 212 l 534 0 q 424 237 487 134 q 279 106 362 172 l 279 0 l 96 0 z "},"Ǫ":{"ha":814,"x_min":44,"x_max":770,"o":"m 407 866 q 277 775 330 866 q 227 509 227 691 q 276 243 227 323 q 407 151 332 151 q 537 242 484 151 q 587 509 587 328 q 537 776 587 690 q 407 866 485 866 m 372 -12 q 119 153 205 2 q 44 509 44 286 q 119 864 44 731 q 407 1031 214 1031 q 694 863 602 1031 q 770 509 770 727 q 694 154 770 290 q 524 4 632 41 q 485 -67 485 -26 q 553 -144 485 -144 l 553 -278 q 345 -114 345 -278 q 372 -12 345 -57 z "},"ǫ":{"ha":814,"x_min":85,"x_max":729,"o":"m 407 592 q 299 530 334 592 q 268 373 268 474 q 299 216 268 266 q 409 154 338 154 q 515 216 476 154 q 546 373 546 267 q 515 528 546 475 q 407 592 477 592 m 372 -12 q 170 98 250 0 q 85 373 85 201 q 170 648 85 544 q 407 760 261 760 q 644 648 553 760 q 729 373 729 544 q 644 98 729 201 q 534 12 596 40 q 485 -67 485 -22 q 553 -144 485 -144 l 553 -278 q 345 -114 345 -278 q 372 -12 345 -56 z "},"Ǭ":{"ha":814,"x_min":44,"x_max":770,"o":"m 407 866 q 277 775 330 866 q 227 509 227 691 q 276 243 227 323 q 407 151 332 151 q 537 242 484 151 q 587 509 587 328 q 537 776 587 690 q 407 866 485 866 m 372 -12 q 119 153 205 2 q 44 509 44 286 q 119 864 44 731 q 407 1031 214 1031 q 694 863 602 1031 q 770 509 770 727 q 694 154 770 290 q 524 4 632 41 q 485 -67 485 -26 q 553 -144 485 -144 l 553 -278 q 345 -114 345 -278 q 372 -12 345 -57 m 251 1241 l 568 1241 l 568 1099 l 251 1099 l 251 1241 z "},"ǭ":{"ha":814,"x_min":85,"x_max":729,"o":"m 407 592 q 299 530 334 592 q 268 373 268 474 q 299 216 268 266 q 409 154 338 154 q 515 216 476 154 q 546 373 546 267 q 515 528 546 475 q 407 592 477 592 m 372 -12 q 170 98 250 0 q 85 373 85 201 q 170 648 85 544 q 407 760 261 760 q 644 648 553 760 q 729 373 729 544 q 644 98 729 201 q 534 12 596 40 q 485 -67 485 -22 q 553 -144 485 -144 l 553 -278 q 345 -114 345 -278 q 372 -12 345 -56 m 251 959 l 568 959 l 568 817 l 251 817 l 251 959 z "},"Ǯ":{"ha":814,"x_min":69,"x_max":743,"o":"m 69 267 q 397 151 242 151 q 511 203 464 151 q 549 310 549 245 q 503 425 549 375 q 354 472 458 472 l 354 638 q 494 848 434 728 l 153 848 l 153 1017 l 743 1017 q 529 598 663 747 q 677 486 619 568 q 732 306 732 406 q 644 85 732 180 q 397 -14 549 -14 q 70 74 252 -14 l 69 267 m 318 1309 l 407 1183 l 494 1309 l 604 1244 l 460 1051 l 354 1051 l 210 1244 l 318 1309 z "},"ǯ":{"ha":814,"x_min":35,"x_max":709,"o":"m 35 -4 q 363 -120 208 -120 q 477 -68 430 -120 q 515 39 515 -26 q 469 153 515 104 q 320 201 424 201 l 320 367 q 460 576 400 457 l 153 576 l 153 746 l 709 746 q 495 327 629 476 q 643 214 585 297 q 699 35 699 134 q 610 -186 699 -92 q 363 -285 515 -285 q 36 -197 218 -285 l 35 -4 m 318 1031 l 407 905 l 494 1031 l 604 966 l 460 773 l 354 773 l 210 966 l 318 1031 z "},"ǰ":{"ha":814,"x_min":85,"x_max":604,"o":"m 318 1031 l 407 905 l 494 1031 l 604 966 l 460 773 l 354 773 l 210 966 l 318 1031 m 170 746 l 572 746 l 572 10 q 507 -205 572 -135 q 295 -285 433 -285 q 85 -195 161 -285 l 180 -65 q 288 -120 228 -120 q 364 -88 337 -120 q 389 21 389 -60 l 389 576 l 170 576 l 170 746 z "},"Ǳ":{"ha":814,"x_min":19,"x_max":804,"o":"m 431 0 l 431 156 q 627 861 606 511 l 477 861 l 477 1017 l 802 1017 q 610 157 771 513 l 804 157 l 804 0 l 431 0 m 19 0 l 19 1017 l 189 1017 q 370 937 303 1017 q 440 770 416 882 q 462 522 462 654 q 440 248 462 357 q 370 81 418 138 q 189 0 303 0 l 19 0 m 176 868 l 176 148 q 244 171 224 148 q 281 296 269 198 q 292 510 292 384 q 281 723 292 637 q 254 832 270 808 q 176 868 231 868 z "},"ǲ":{"ha":814,"x_min":19,"x_max":804,"o":"m 431 0 l 431 156 q 627 590 606 381 l 477 590 l 477 746 l 802 746 q 610 157 787 399 l 804 157 l 804 0 l 431 0 m 19 0 l 19 1017 l 189 1017 q 370 937 303 1017 q 440 770 416 882 q 462 522 462 654 q 440 248 462 357 q 370 81 418 138 q 189 0 303 0 l 19 0 m 176 868 l 176 148 q 244 171 224 148 q 281 296 269 198 q 292 510 292 384 q 281 723 292 637 q 254 832 270 808 q 176 868 231 868 z "},"ǳ":{"ha":814,"x_min":14,"x_max":804,"o":"m 452 0 l 296 0 l 296 56 q 194 -14 262 -14 q 75 71 130 -14 q 14 351 14 165 q 81 675 14 576 q 217 760 137 760 q 296 730 262 760 l 296 1017 l 452 1017 l 452 0 m 270 171 q 296 374 296 218 q 270 574 296 521 q 235 610 252 610 q 197 577 209 610 q 176 374 176 515 q 198 167 176 209 q 235 136 215 136 q 270 171 250 136 m 476 0 l 476 156 q 647 590 612 389 l 477 590 l 477 746 l 802 746 q 631 157 777 382 l 804 157 l 804 0 l 476 0 z "},"Ǵ":{"ha":814,"x_min":44,"x_max":769,"o":"m 422 1309 l 594 1228 l 463 1044 l 333 1108 l 422 1309 m 769 593 l 769 509 q 694 154 769 290 q 407 -14 603 -14 q 119 153 214 -14 q 44 509 44 288 q 119 864 44 729 q 407 1031 214 1031 q 694 863 602 1031 q 737 760 720 817 l 546 760 q 537 775 542 768 q 407 866 484 866 q 277 775 330 866 q 227 509 227 691 q 276 243 227 323 q 407 151 332 151 q 537 242 485 151 q 584 424 575 306 l 372 424 l 372 593 l 769 593 z "},"ǵ":{"ha":814,"x_min":85,"x_max":718,"o":"m 414 1031 l 587 950 l 455 766 l 326 830 l 414 1031 m 399 592 q 298 528 335 592 q 268 373 268 473 q 299 216 268 269 q 402 154 336 154 q 505 216 467 154 q 536 373 536 267 q 507 528 536 475 q 399 592 471 592 m 718 746 l 718 114 q 640 -166 718 -64 q 392 -285 549 -285 q 125 -133 235 -285 l 271 -38 q 404 -117 320 -117 q 515 -50 482 -117 q 533 54 533 -14 q 378 -14 463 -14 q 170 98 261 -14 q 85 373 85 202 q 170 648 85 544 q 378 760 261 760 q 535 689 473 760 l 535 746 l 718 746 z "},"Ƕ":{"ha":814,"x_min":75,"x_max":772,"o":"m 75 0 l 75 1017 l 231 1017 l 231 593 l 351 593 l 351 1017 l 512 1017 l 512 257 q 522 169 512 192 q 570 137 537 137 q 614 172 601 137 q 621 254 621 190 q 621 573 621 254 l 772 573 l 772 235 q 716 54 772 125 q 577 -14 663 -14 q 411 46 474 -14 q 351 237 351 104 l 351 424 l 231 424 l 231 0 l 75 0 z "},"Ƿ":{"ha":814,"x_min":109,"x_max":739,"o":"m 109 1017 l 285 1017 l 285 935 q 470 1031 351 1031 q 664 930 589 1031 q 739 661 739 830 q 526 179 739 420 l 285 -71 l 285 -271 l 109 -271 l 109 1017 m 285 160 l 399 302 q 542 654 542 479 q 514 790 542 743 q 444 843 483 843 q 329 769 373 843 q 285 583 285 694 l 285 160 z "},"Ǹ":{"ha":814,"x_min":71,"x_max":743,"o":"m 374 1309 l 463 1108 l 334 1044 l 202 1228 l 374 1309 m 71 0 l 71 1017 l 254 1017 q 573 441 470 761 l 573 1017 l 743 1017 l 743 0 l 573 0 q 241 774 429 495 l 241 0 l 71 0 z "},"ǹ":{"ha":814,"x_min":96,"x_max":718,"o":"m 384 1031 l 473 830 l 343 766 l 212 950 l 384 1031 m 96 0 l 96 746 l 279 746 l 279 677 q 463 760 348 760 q 649 680 574 760 q 718 467 718 606 l 718 0 l 535 0 l 535 458 q 508 560 535 528 q 433 595 479 595 q 330 549 374 595 q 279 392 279 495 l 279 0 l 96 0 z "},"Ǻ":{"ha":814,"x_min":3,"x_max":810,"o":"m 301 1223 q 272 1212 284 1223 q 259 1182 259 1200 q 272 1152 259 1164 q 301 1141 283 1142 q 330 1153 317 1141 q 343 1182 342 1164 q 331 1212 344 1199 q 301 1223 319 1223 m 538 1302 l 675 1227 l 543 1038 l 442 1092 l 538 1302 m 301 1302 q 387 1268 354 1302 q 422 1182 422 1232 q 387 1097 422 1131 q 301 1062 352 1062 q 216 1095 250 1062 q 180 1182 180 1131 q 216 1268 180 1234 q 301 1302 252 1302 m 3 0 q 315 1017 94 488 l 498 1017 q 810 0 728 488 l 627 0 q 534 424 591 216 l 281 424 q 186 0 224 218 l 3 0 m 497 580 q 407 865 464 711 q 317 580 351 711 l 497 580 z "},"ǻ":{"ha":814,"x_min":92,"x_max":710,"o":"m 305 952 q 276 941 288 952 q 263 911 263 928 q 276 881 263 893 q 305 870 287 871 q 334 882 321 869 q 347 911 347 894 q 336 940 347 928 q 305 952 323 952 m 542 1031 l 679 956 l 547 766 l 446 821 l 542 1031 m 305 1031 q 391 997 358 1031 q 427 911 427 960 q 391 825 427 860 q 305 791 356 791 q 220 824 254 791 q 184 911 184 859 q 220 997 184 962 q 305 1031 256 1031 m 710 0 l 527 0 l 527 68 q 348 -14 459 -14 q 153 62 222 -14 q 92 219 92 131 q 198 418 92 347 q 394 473 281 473 l 523 473 q 506 545 520 524 q 415 593 474 593 q 280 522 338 593 l 151 639 q 419 760 260 760 q 656 646 573 760 q 710 439 710 572 l 710 0 m 526 313 l 396 313 q 298 286 334 313 q 269 225 269 264 q 299 171 269 194 q 372 151 325 151 q 468 191 432 151 q 526 313 517 245 z "},"Ǽ":{"ha":814,"x_min":7,"x_max":807,"o":"m 7 0 q 319 1017 106 549 l 764 1017 l 764 848 l 609 848 l 609 593 l 716 593 l 716 424 l 609 424 l 609 170 l 807 170 l 807 0 l 446 0 l 446 424 l 273 424 q 183 0 221 218 l 7 0 m 319 593 l 446 593 l 446 909 q 319 593 361 768 m 422 1309 l 594 1228 l 463 1044 l 333 1108 l 422 1309 z "},"ǽ":{"ha":814,"x_min":28,"x_max":786,"o":"m 786 257 q 724 60 786 132 q 553 -14 661 -14 q 457 0 494 -14 l 321 0 q 261 -14 295 -14 q 90 56 149 -14 q 28 243 28 127 q 95 427 28 351 q 275 498 159 498 l 332 498 l 332 517 q 317 571 332 548 q 256 606 294 606 q 193 583 218 606 q 157 541 168 560 l 33 631 q 77 696 50 669 q 261 760 139 760 q 408 699 347 760 q 553 760 467 760 q 724 693 663 760 q 786 513 786 625 l 786 382 l 485 262 l 485 248 q 499 172 485 195 q 553 144 516 144 q 612 177 589 144 q 632 257 632 209 l 786 257 m 485 414 l 632 467 l 632 488 q 615 566 632 541 q 557 602 591 602 q 503 572 522 602 q 485 488 485 546 l 485 414 m 332 334 l 275 334 q 204 304 224 334 q 187 243 187 279 q 204 180 187 203 q 267 144 230 144 q 319 171 296 144 q 332 231 332 186 l 332 334 m 414 1031 l 587 950 l 455 766 l 326 830 l 414 1031 z "},"Ǿ":{"ha":814,"x_min":44,"x_max":770,"o":"m 422 1309 l 594 1228 l 463 1044 l 333 1108 l 422 1309 m 519 804 q 407 866 471 866 q 277 775 330 866 q 227 509 227 691 q 243 328 227 401 l 519 804 m 142 -51 l 55 1 l 132 134 q 119 153 125 143 q 44 509 44 279 q 119 864 44 731 q 407 1031 214 1031 q 612 965 530 1031 l 671 1069 l 760 1018 l 682 884 q 694 863 688 874 q 770 509 770 730 q 694 154 770 291 q 407 -14 602 -14 q 202 53 285 -14 l 142 -51 m 296 214 q 407 151 345 151 q 537 242 484 151 q 587 509 587 328 q 570 689 587 615 l 296 214 z "},"ǿ":{"ha":814,"x_min":85,"x_max":729,"o":"m 414 1031 l 587 950 l 455 766 l 326 830 l 414 1031 m 464 578 q 407 592 439 592 q 299 530 333 592 q 268 373 268 474 q 280 260 268 305 l 464 578 m 218 -51 l 131 1 l 180 86 l 170 98 q 85 373 85 202 q 170 648 85 544 q 407 760 261 760 q 549 726 486 760 l 593 803 l 682 752 l 631 663 q 644 648 637 656 q 729 373 729 546 q 644 98 729 202 q 407 -14 553 -14 q 260 22 325 -14 l 218 -51 m 346 170 q 409 154 373 154 q 515 216 477 154 q 546 373 546 267 q 531 491 546 444 l 346 170 z "},"Ȁ":{"ha":814,"x_min":3,"x_max":810,"o":"m 271 1309 l 374 1109 l 269 1044 l 131 1221 l 271 1309 m 466 1309 l 570 1109 l 464 1044 l 326 1221 l 466 1309 m 3 0 q 315 1017 94 488 l 498 1017 q 810 0 728 488 l 627 0 q 534 424 591 216 l 281 424 q 186 0 224 218 l 3 0 m 497 580 q 407 865 464 711 q 317 580 351 711 l 497 580 z "},"ȁ":{"ha":814,"x_min":92,"x_max":710,"o":"m 283 1031 l 387 831 l 281 766 l 144 943 l 283 1031 m 479 1031 l 583 831 l 477 766 l 339 943 l 479 1031 m 710 0 l 527 0 l 527 68 q 348 -14 459 -14 q 153 62 222 -14 q 92 219 92 131 q 198 418 92 347 q 394 473 281 473 l 523 473 q 506 545 520 524 q 415 593 474 593 q 280 522 338 593 l 151 639 q 419 760 260 760 q 656 646 573 760 q 710 439 710 572 l 710 0 m 526 313 l 396 313 q 298 286 334 313 q 269 225 269 264 q 299 171 269 194 q 372 151 325 151 q 468 191 432 151 q 526 313 517 245 z "},"Ȃ":{"ha":814,"x_min":3,"x_max":810,"o":"m 212 1073 q 406 1262 244 1262 q 601 1073 561 1262 l 496 1073 q 406 1125 460 1125 q 318 1073 361 1125 l 212 1073 m 3 0 q 315 1017 94 488 l 498 1017 q 810 0 728 488 l 627 0 q 534 424 591 216 l 281 424 q 186 0 224 218 l 3 0 m 497 580 q 407 865 464 711 q 317 580 351 711 l 497 580 z "},"ȃ":{"ha":814,"x_min":92,"x_max":710,"o":"m 212 798 q 406 987 244 987 q 601 798 561 987 l 496 798 q 406 850 460 850 q 318 798 361 850 l 212 798 m 710 0 l 527 0 l 527 68 q 348 -14 459 -14 q 153 62 222 -14 q 92 219 92 131 q 198 418 92 347 q 394 473 281 473 l 523 473 q 506 545 520 524 q 415 593 474 593 q 280 522 338 593 l 151 639 q 419 760 260 760 q 656 646 573 760 q 710 439 710 572 l 710 0 m 526 313 l 396 313 q 298 286 334 313 q 269 225 269 264 q 299 171 269 194 q 372 151 325 151 q 468 191 432 151 q 526 313 517 245 z "},"Ȅ":{"ha":814,"x_min":96,"x_max":718,"o":"m 271 1309 l 374 1109 l 269 1044 l 131 1221 l 271 1309 m 466 1309 l 570 1109 l 464 1044 l 326 1221 l 466 1309 m 718 0 l 96 0 l 96 1017 l 672 1017 l 672 848 l 279 848 l 279 593 l 587 593 l 587 424 l 279 424 l 279 170 l 718 170 l 718 0 z "},"ȅ":{"ha":814,"x_min":85,"x_max":729,"o":"m 283 1031 l 387 831 l 281 766 l 144 943 l 283 1031 m 479 1031 l 583 831 l 477 766 l 339 943 l 479 1031 m 715 247 q 644 98 695 161 q 407 -14 553 -14 q 170 98 261 -14 q 85 373 85 202 q 170 648 85 544 q 407 760 261 760 q 644 648 553 760 q 729 382 729 544 l 278 268 q 299 216 286 237 q 409 154 337 154 q 515 216 477 154 q 529 247 523 229 l 715 247 m 269 408 l 533 477 q 515 528 526 505 q 407 592 481 592 q 299 530 333 592 q 269 408 273 484 z "},"Ȇ":{"ha":814,"x_min":96,"x_max":718,"o":"m 212 1073 q 406 1262 244 1262 q 601 1073 561 1262 l 496 1073 q 406 1125 460 1125 q 318 1073 361 1125 l 212 1073 m 718 0 l 96 0 l 96 1017 l 672 1017 l 672 848 l 279 848 l 279 593 l 587 593 l 587 424 l 279 424 l 279 170 l 718 170 l 718 0 z "},"ȇ":{"ha":814,"x_min":85,"x_max":729,"o":"m 212 798 q 406 987 244 987 q 601 798 561 987 l 496 798 q 406 850 460 850 q 318 798 361 850 l 212 798 m 715 247 q 644 98 695 161 q 407 -14 553 -14 q 170 98 261 -14 q 85 373 85 202 q 170 648 85 544 q 407 760 261 760 q 644 648 553 760 q 729 382 729 544 l 278 268 q 299 216 286 237 q 409 154 337 154 q 515 216 477 154 q 529 247 523 229 l 715 247 m 269 408 l 533 477 q 515 528 526 505 q 407 592 481 592 q 299 530 333 592 q 269 408 273 484 z "},"Ȉ":{"ha":814,"x_min":96,"x_max":718,"o":"m 271 1309 l 374 1109 l 269 1044 l 131 1221 l 271 1309 m 466 1309 l 570 1109 l 464 1044 l 326 1221 l 466 1309 m 718 0 l 96 0 l 96 170 l 315 170 l 315 848 l 96 848 l 96 1017 l 718 1017 l 718 848 l 498 848 l 498 170 l 718 170 l 718 0 z "},"ȉ":{"ha":814,"x_min":96,"x_max":803,"o":"m 283 1031 l 387 831 l 281 766 l 144 943 l 283 1031 m 479 1031 l 583 831 l 477 766 l 339 943 l 479 1031 m 803 77 q 593 -14 726 -14 q 381 66 455 -14 q 315 281 315 136 l 315 576 l 96 576 l 96 746 l 498 746 l 498 292 q 524 183 498 213 q 600 151 551 151 q 707 206 660 151 l 803 77 z "},"Ȋ":{"ha":814,"x_min":96,"x_max":718,"o":"m 212 1073 q 406 1262 244 1262 q 601 1073 561 1262 l 496 1073 q 406 1125 460 1125 q 318 1073 361 1125 l 212 1073 m 718 0 l 96 0 l 96 170 l 315 170 l 315 848 l 96 848 l 96 1017 l 718 1017 l 718 848 l 498 848 l 498 170 l 718 170 l 718 0 z "},"ȋ":{"ha":814,"x_min":96,"x_max":803,"o":"m 212 798 q 406 987 244 987 q 601 798 561 987 l 496 798 q 406 850 460 850 q 318 798 361 850 l 212 798 m 803 77 q 593 -14 726 -14 q 381 66 455 -14 q 315 281 315 136 l 315 576 l 96 576 l 96 746 l 498 746 l 498 292 q 524 183 498 213 q 600 151 551 151 q 707 206 660 151 l 803 77 z "},"Ȍ":{"ha":814,"x_min":44,"x_max":770,"o":"m 271 1309 l 374 1109 l 269 1044 l 131 1221 l 271 1309 m 466 1309 l 570 1109 l 464 1044 l 326 1221 l 466 1309 m 407 -14 q 119 153 214 -14 q 44 509 44 286 q 119 864 44 731 q 407 1031 214 1031 q 694 863 602 1031 q 770 509 770 727 q 694 154 770 291 q 407 -14 602 -14 m 407 866 q 277 775 330 866 q 227 509 227 691 q 276 243 227 323 q 407 151 332 151 q 537 242 484 151 q 587 509 587 328 q 537 776 587 690 q 407 866 485 866 z "},"ȍ":{"ha":814,"x_min":85,"x_max":729,"o":"m 283 1031 l 387 831 l 281 766 l 144 943 l 283 1031 m 479 1031 l 583 831 l 477 766 l 339 943 l 479 1031 m 407 592 q 299 530 334 592 q 268 373 268 474 q 299 216 268 266 q 409 154 338 154 q 515 216 476 154 q 546 373 546 267 q 515 528 546 475 q 407 592 477 592 m 644 98 q 407 -14 553 -14 q 170 98 261 -14 q 85 373 85 202 q 170 648 85 544 q 407 760 261 760 q 644 648 553 760 q 729 373 729 544 q 644 98 729 202 z "},"Ȏ":{"ha":814,"x_min":44,"x_max":770,"o":"m 212 1073 q 406 1262 244 1262 q 601 1073 561 1262 l 496 1073 q 406 1125 460 1125 q 318 1073 361 1125 l 212 1073 m 407 -14 q 119 153 214 -14 q 44 509 44 286 q 119 864 44 731 q 407 1031 214 1031 q 694 863 602 1031 q 770 509 770 727 q 694 154 770 291 q 407 -14 602 -14 m 407 866 q 277 775 330 866 q 227 509 227 691 q 276 243 227 323 q 407 151 332 151 q 537 242 484 151 q 587 509 587 328 q 537 776 587 690 q 407 866 485 866 z "},"ȏ":{"ha":814,"x_min":85,"x_max":729,"o":"m 212 798 q 406 987 244 987 q 601 798 561 987 l 496 798 q 406 850 460 850 q 318 798 361 850 l 212 798 m 407 592 q 299 530 334 592 q 268 373 268 474 q 299 216 268 266 q 409 154 338 154 q 515 216 476 154 q 546 373 546 267 q 515 528 546 475 q 407 592 477 592 m 644 98 q 407 -14 553 -14 q 170 98 261 -14 q 85 373 85 202 q 170 648 85 544 q 407 760 261 760 q 644 648 553 760 q 729 373 729 544 q 644 98 729 202 z "},"Ȑ":{"ha":814,"x_min":71,"x_max":800,"o":"m 271 1309 l 374 1109 l 269 1044 l 131 1221 l 271 1309 m 466 1309 l 570 1109 l 464 1044 l 326 1221 l 466 1309 m 254 852 l 254 473 l 370 473 q 503 519 457 473 q 559 663 559 574 q 501 805 559 751 q 370 852 450 852 l 254 852 m 71 0 l 71 1017 l 370 1017 q 621 934 519 1017 q 743 669 743 833 q 619 401 743 500 q 570 368 595 382 l 800 0 l 579 0 l 386 309 q 370 309 378 309 l 254 309 l 254 0 l 71 0 z "},"ȑ":{"ha":814,"x_min":96,"x_max":718,"o":"m 283 1031 l 387 831 l 281 766 l 144 943 l 283 1031 m 479 1031 l 583 831 l 477 766 l 339 943 l 479 1031 m 96 0 l 96 746 l 279 746 l 279 677 q 463 760 348 760 q 649 680 574 760 q 718 458 718 606 l 535 458 q 508 560 535 528 q 433 595 479 595 q 330 549 374 595 q 279 392 279 495 l 279 0 l 96 0 z "},"Ȓ":{"ha":814,"x_min":71,"x_max":800,"o":"m 212 1073 q 406 1262 244 1262 q 601 1073 561 1262 l 496 1073 q 406 1125 460 1125 q 318 1073 361 1125 l 212 1073 m 254 852 l 254 473 l 370 473 q 503 519 457 473 q 559 663 559 574 q 501 805 559 751 q 370 852 450 852 l 254 852 m 71 0 l 71 1017 l 370 1017 q 621 934 519 1017 q 743 669 743 833 q 619 401 743 500 q 570 368 595 382 l 800 0 l 579 0 l 386 309 q 370 309 378 309 l 254 309 l 254 0 l 71 0 z "},"ȓ":{"ha":814,"x_min":96,"x_max":718,"o":"m 212 798 q 406 987 244 987 q 601 798 561 987 l 496 798 q 406 850 460 850 q 318 798 361 850 l 212 798 m 96 0 l 96 746 l 279 746 l 279 677 q 463 760 348 760 q 649 680 574 760 q 718 458 718 606 l 535 458 q 508 560 535 528 q 433 595 479 595 q 330 549 374 595 q 279 392 279 495 l 279 0 l 96 0 z "},"Ȕ":{"ha":814,"x_min":71,"x_max":743,"o":"m 271 1309 l 374 1109 l 269 1044 l 131 1221 l 271 1309 m 466 1309 l 570 1109 l 464 1044 l 326 1221 l 466 1309 m 71 1017 l 254 1017 l 254 313 q 292 203 254 247 q 407 151 335 151 q 522 204 475 151 q 559 313 559 246 l 559 1017 l 743 1017 l 743 306 q 654 85 743 178 q 407 -14 559 -14 q 158 85 257 -14 q 71 306 71 172 l 71 1017 z "},"ȕ":{"ha":814,"x_min":96,"x_max":718,"o":"m 283 1031 l 387 831 l 281 766 l 144 943 l 283 1031 m 479 1031 l 583 831 l 477 766 l 339 943 l 479 1031 m 718 0 l 535 0 l 535 69 q 351 -14 466 -14 q 165 66 240 -14 q 96 279 96 140 l 96 746 l 279 746 l 279 288 q 306 186 279 218 q 380 151 335 151 q 484 197 440 151 q 535 354 535 251 l 535 746 l 718 746 l 718 0 z "},"Ȗ":{"ha":814,"x_min":71,"x_max":743,"o":"m 212 1073 q 406 1262 244 1262 q 601 1073 561 1262 l 496 1073 q 406 1125 460 1125 q 318 1073 361 1125 l 212 1073 m 71 1017 l 254 1017 l 254 313 q 292 203 254 247 q 407 151 335 151 q 522 204 475 151 q 559 313 559 246 l 559 1017 l 743 1017 l 743 306 q 654 85 743 178 q 407 -14 559 -14 q 158 85 257 -14 q 71 306 71 172 l 71 1017 z "},"ȗ":{"ha":814,"x_min":96,"x_max":718,"o":"m 212 798 q 406 987 244 987 q 601 798 561 987 l 496 798 q 406 850 460 850 q 318 798 361 850 l 212 798 m 718 0 l 535 0 l 535 69 q 351 -14 466 -14 q 165 66 240 -14 q 96 279 96 140 l 96 746 l 279 746 l 279 288 q 306 186 279 218 q 380 151 335 151 q 484 197 440 151 q 535 354 535 251 l 535 746 l 718 746 l 718 0 z "},"Ș":{"ha":814,"x_min":71,"x_max":743,"o":"m 378 -285 l 205 -204 l 337 -20 l 467 -84 l 378 -285 m 71 325 l 254 325 q 290 203 254 248 q 407 151 331 151 q 523 204 478 151 q 559 301 559 248 q 488 412 559 378 l 250 524 q 104 763 104 593 q 189 954 104 879 q 402 1031 274 1031 q 616 949 530 1031 q 698 745 698 870 l 523 745 q 489 830 522 799 q 401 865 453 865 q 315 836 350 865 q 282 769 282 810 q 335 684 282 708 l 553 583 q 743 303 743 494 q 654 85 743 178 q 407 -14 561 -14 q 153 87 243 -14 q 71 325 71 178 z "},"ș":{"ha":814,"x_min":110,"x_max":704,"o":"m 378 -285 l 205 -204 l 337 -20 l 467 -84 l 378 -285 m 110 273 l 285 273 q 319 187 285 218 q 410 153 357 153 q 490 177 461 153 q 522 235 522 202 q 463 297 522 278 l 299 350 q 134 545 134 404 q 229 713 134 647 q 398 760 296 760 q 595 675 522 760 q 656 508 656 606 l 480 508 q 458 570 480 545 q 393 600 431 600 q 331 586 355 600 q 308 549 308 573 q 376 494 308 516 l 516 449 q 704 238 704 388 q 618 58 704 133 q 406 -14 538 -14 q 187 66 268 -14 q 110 273 110 143 z "},"Ț":{"ha":814,"x_min":71,"x_max":743,"o":"m 378 -285 l 205 -204 l 337 -20 l 467 -84 l 378 -285 m 315 0 l 315 848 l 71 848 l 71 1017 l 743 1017 l 743 848 l 498 848 l 498 0 l 315 0 z "},"ț":{"ha":814,"x_min":96,"x_max":803,"o":"m 378 -285 l 205 -204 l 337 -20 l 467 -84 l 378 -285 m 803 77 q 593 -14 726 -14 q 381 66 455 -14 q 315 281 315 136 l 315 576 l 96 576 l 96 746 l 315 746 l 315 1017 l 498 1017 l 498 746 l 718 746 l 718 576 l 498 576 l 498 292 q 524 183 498 213 q 600 151 551 151 q 707 206 660 151 l 803 77 z "},"Ȝ":{"ha":814,"x_min":105,"x_max":711,"o":"m 105 972 q 368 1031 228 1031 q 581 954 496 1031 q 666 760 666 877 q 564 539 666 617 q 673 442 635 503 q 711 304 711 382 q 623 84 711 186 q 454 -67 568 20 q 114 -285 304 -181 l 114 -99 q 342 44 254 -18 q 488 187 428 104 q 528 316 528 243 q 492 397 528 370 q 421 420 463 420 q 202 253 319 420 l 202 469 q 402 621 315 551 q 486 760 486 689 q 454 833 486 803 q 364 866 419 866 q 105 791 248 866 l 105 972 z "},"ȝ":{"ha":814,"x_min":203,"x_max":706,"o":"m 212 722 q 417 760 317 760 q 587 710 518 760 q 679 537 679 644 q 602 396 679 453 q 706 227 706 345 q 625 41 706 126 q 458 -105 561 -26 q 203 -285 342 -194 l 203 -102 q 373 24 302 -37 q 507 157 441 83 q 531 224 531 185 q 505 283 531 267 q 449 296 484 296 q 328 247 388 296 l 328 397 q 433 444 384 420 q 496 491 483 467 q 507 536 507 512 q 483 581 507 564 q 416 595 464 595 q 212 551 318 595 l 212 722 z "},"Ȟ":{"ha":814,"x_min":71,"x_max":743,"o":"m 318 1309 l 407 1183 l 494 1309 l 604 1244 l 460 1051 l 354 1051 l 210 1244 l 318 1309 m 71 0 l 71 1017 l 254 1017 l 254 593 l 559 593 l 559 1017 l 743 1017 l 743 0 l 559 0 l 559 424 l 254 424 l 254 0 l 71 0 z "},"ȟ":{"ha":814,"x_min":96,"x_max":718,"o":"m 318 1309 l 407 1183 l 494 1309 l 604 1244 l 460 1051 l 354 1051 l 210 1244 l 318 1309 m 96 0 l 96 1017 l 279 1017 l 279 677 q 463 760 348 760 q 649 680 574 760 q 718 467 718 606 l 718 0 l 535 0 l 535 458 q 508 560 535 528 q 433 595 479 595 q 330 549 374 595 q 279 392 279 495 l 279 0 l 96 0 z "},"Ƞ":{"ha":814,"x_min":71,"x_max":743,"o":"m 71 0 l 71 1017 l 254 1017 l 254 948 q 463 1031 323 1031 q 673 951 598 1031 q 743 739 743 878 l 743 -271 l 559 -271 l 559 729 q 531 829 559 799 q 433 866 495 866 q 313 812 366 866 q 254 663 254 751 l 254 0 l 71 0 z "},"ȡ":{"ha":814,"x_min":61,"x_max":760,"o":"m 535 155 q 574 136 551 136 q 609 151 595 136 q 625 194 625 168 q 612 237 625 219 q 574 257 596 257 q 533 235 549 257 q 522 195 522 218 q 535 155 522 171 m 357 1017 l 513 1017 l 513 362 q 576 387 538 387 q 704 330 649 387 q 760 189 760 271 q 703 45 760 104 q 558 -14 646 -14 q 417 81 469 -14 q 283 -14 366 -14 q 136 71 190 -14 q 61 351 61 187 q 142 675 61 555 q 278 760 198 760 q 357 730 323 760 l 357 1017 m 331 171 q 357 374 357 218 q 331 574 357 521 q 289 610 313 610 q 252 577 269 610 q 223 374 223 520 q 252 167 223 222 q 289 136 269 136 q 331 171 311 136 z "},"Ȣ":{"ha":814,"x_min":71,"x_max":743,"o":"m 408 466 q 291 416 332 466 q 254 308 254 372 q 290 201 254 243 q 408 151 333 151 q 524 201 480 151 q 560 309 560 243 q 522 418 560 373 q 408 466 480 466 m 201 954 l 326 836 q 292 749 292 802 q 327 662 292 696 q 407 630 361 630 q 489 663 456 630 q 522 749 522 696 q 490 831 522 799 l 613 954 q 698 760 698 877 q 583 559 698 631 q 743 306 743 483 q 658 86 743 174 q 406 -14 562 -14 q 157 85 249 -14 q 71 306 71 178 q 231 559 71 477 q 116 760 116 620 q 201 954 116 877 z "},"ȣ":{"ha":814,"x_min":138,"x_max":675,"o":"m 408 139 q 486 170 456 139 q 510 239 510 197 q 484 307 510 279 q 408 337 456 337 q 329 307 355 337 q 304 237 304 278 q 328 170 304 195 q 408 139 356 139 m 241 742 l 355 633 q 333 576 333 611 q 355 513 333 536 q 407 489 378 489 q 460 513 439 489 q 481 576 481 536 q 460 630 481 609 l 572 742 q 642 585 642 680 q 566 434 642 491 q 675 241 675 372 q 608 66 675 137 q 406 -14 531 -14 q 208 66 281 -14 q 138 241 138 140 q 246 433 138 367 q 172 585 172 484 q 241 742 172 680 z "},"Ȥ":{"ha":814,"x_min":71,"x_max":743,"o":"m 71 0 l 71 170 q 498 848 370 487 l 117 848 l 117 1017 l 741 1017 q 301 170 608 547 l 743 170 l 743 0 q 676 -193 743 -125 q 441 -278 591 -278 l 441 -130 q 535 -91 507 -130 q 560 0 560 -56 l 71 0 z "},"ȥ":{"ha":814,"x_min":96,"x_max":718,"o":"m 96 0 l 96 170 q 463 576 352 364 l 120 576 l 120 746 l 718 746 q 346 170 639 429 l 718 170 l 718 0 q 652 -193 718 -125 q 416 -278 567 -278 l 416 -130 q 511 -91 482 -130 q 536 0 536 -56 l 96 0 z "},"Ȧ":{"ha":814,"x_min":3,"x_max":810,"o":"m 407 1302 q 492 1268 460 1302 q 528 1182 528 1232 q 493 1097 528 1131 q 407 1062 458 1062 q 322 1095 356 1062 q 286 1182 286 1131 q 322 1268 286 1234 q 407 1302 358 1302 m 3 0 q 315 1017 94 488 l 498 1017 q 810 0 728 488 l 627 0 q 534 424 591 216 l 281 424 q 186 0 224 218 l 3 0 m 497 580 q 407 865 464 711 q 317 580 351 711 l 497 580 z "},"ȧ":{"ha":814,"x_min":92,"x_max":710,"o":"m 407 1031 q 492 997 460 1031 q 528 911 528 960 q 493 825 528 860 q 407 791 458 791 q 322 824 356 791 q 286 911 286 859 q 322 997 286 962 q 407 1031 358 1031 m 710 0 l 527 0 l 527 68 q 348 -14 459 -14 q 153 62 222 -14 q 92 219 92 131 q 198 418 92 347 q 394 473 281 473 l 523 473 q 506 545 520 524 q 415 593 474 593 q 280 522 338 593 l 151 639 q 419 760 260 760 q 656 646 573 760 q 710 439 710 572 l 710 0 m 526 313 l 396 313 q 298 286 334 313 q 269 225 269 264 q 299 171 269 194 q 372 151 325 151 q 468 191 432 151 q 526 313 517 245 z "},"Ȩ":{"ha":814,"x_min":96,"x_max":718,"o":"m 96 0 l 96 1017 l 672 1017 l 672 848 l 279 848 l 279 593 l 587 593 l 587 424 l 279 424 l 279 170 l 718 170 l 718 0 l 481 0 q 516 -114 516 -49 q 309 -278 516 -278 l 309 -144 q 376 -67 376 -144 q 343 0 376 -30 l 96 0 z "},"ȩ":{"ha":814,"x_min":85,"x_max":729,"o":"m 269 408 l 533 477 q 515 528 526 505 q 407 592 481 592 q 299 530 333 592 q 269 408 273 484 m 715 247 q 644 98 695 161 q 484 -5 578 18 q 516 -114 516 -52 q 309 -278 516 -278 l 309 -144 q 376 -67 376 -144 q 353 -9 376 -35 q 170 98 243 8 q 85 373 85 202 q 170 648 85 544 q 407 760 261 760 q 644 648 553 760 q 729 382 729 544 l 278 268 q 299 216 286 237 q 409 154 337 154 q 515 216 477 154 q 529 247 523 229 l 715 247 z "},"Ȫ":{"ha":814,"x_min":44,"x_max":770,"o":"m 541 950 q 464 981 496 950 q 431 1058 431 1012 q 464 1136 431 1105 q 541 1166 495 1166 q 618 1135 585 1166 q 650 1058 650 1104 q 617 981 650 1013 q 541 950 587 950 m 278 950 q 202 981 234 950 q 169 1058 169 1012 q 202 1136 169 1105 q 278 1166 234 1166 q 355 1135 323 1166 q 387 1058 387 1103 q 355 981 387 1013 q 278 950 324 950 m 248 1198 l 248 1340 l 566 1340 l 566 1198 l 248 1198 m 407 -14 q 119 153 214 -14 q 44 458 44 286 q 119 762 44 629 q 407 929 214 929 q 694 762 602 929 q 770 458 770 625 q 694 154 770 291 q 407 -14 602 -14 m 407 764 q 277 673 330 764 q 227 458 227 589 q 276 243 227 323 q 407 151 332 151 q 537 242 484 151 q 587 458 587 328 q 537 674 587 589 q 407 764 485 764 z "},"ȫ":{"ha":814,"x_min":85,"x_max":729,"o":"m 541 780 q 464 810 496 780 q 431 888 431 842 q 464 966 431 935 q 541 996 495 996 q 618 965 585 996 q 650 888 650 934 q 617 810 650 843 q 541 780 587 780 m 278 780 q 202 810 234 780 q 169 888 169 842 q 202 966 169 935 q 278 996 234 996 q 355 965 323 996 q 387 888 387 933 q 355 810 387 843 q 278 780 324 780 m 248 1027 l 248 1170 l 566 1170 l 566 1027 l 248 1027 m 407 592 q 299 530 334 592 q 268 373 268 474 q 299 216 268 266 q 409 154 338 154 q 515 216 476 154 q 546 373 546 267 q 515 528 546 475 q 407 592 477 592 m 644 98 q 407 -14 553 -14 q 170 98 261 -14 q 85 373 85 202 q 170 648 85 544 q 407 760 261 760 q 644 648 553 760 q 729 373 729 544 q 644 98 729 202 z "},"Ȭ":{"ha":814,"x_min":44,"x_max":770,"o":"m 248 1198 l 248 1340 l 566 1340 l 566 1198 l 248 1198 m 203 977 q 347 1165 229 1165 q 428 1118 399 1165 q 465 1077 452 1077 q 511 1137 502 1077 l 608 1137 q 464 949 583 949 q 382 1002 412 949 q 347 1040 361 1040 q 300 977 311 1040 l 203 977 m 407 -14 q 119 153 214 -14 q 44 458 44 286 q 119 762 44 629 q 407 929 214 929 q 694 762 602 929 q 770 458 770 625 q 694 154 770 291 q 407 -14 602 -14 m 407 764 q 277 673 330 764 q 227 458 227 589 q 276 243 227 323 q 407 151 332 151 q 537 242 484 151 q 587 458 587 328 q 537 674 587 589 q 407 764 485 764 z "},"ȭ":{"ha":814,"x_min":85,"x_max":729,"o":"m 203 807 q 347 995 229 995 q 428 947 399 995 q 465 907 452 907 q 511 967 502 907 l 608 967 q 464 779 583 779 q 382 831 412 779 q 347 870 361 870 q 300 807 311 870 l 203 807 m 248 1027 l 248 1170 l 566 1170 l 566 1027 l 248 1027 m 407 592 q 299 530 334 592 q 268 373 268 474 q 299 216 268 266 q 409 154 338 154 q 515 216 476 154 q 546 373 546 267 q 515 528 546 475 q 407 592 477 592 m 644 98 q 407 -14 553 -14 q 170 98 261 -14 q 85 373 85 202 q 170 648 85 544 q 407 760 261 760 q 644 648 553 760 q 729 373 729 544 q 644 98 729 202 z "},"Ȯ":{"ha":814,"x_min":44,"x_max":770,"o":"m 407 1302 q 492 1268 460 1302 q 528 1182 528 1232 q 493 1097 528 1131 q 407 1062 458 1062 q 322 1095 356 1062 q 286 1182 286 1131 q 322 1268 286 1234 q 407 1302 358 1302 m 407 -14 q 119 153 214 -14 q 44 509 44 286 q 119 864 44 731 q 407 1031 214 1031 q 694 863 602 1031 q 770 509 770 727 q 694 154 770 291 q 407 -14 602 -14 m 407 866 q 277 775 330 866 q 227 509 227 691 q 276 243 227 323 q 407 151 332 151 q 537 242 484 151 q 587 509 587 328 q 537 776 587 690 q 407 866 485 866 z "},"ȯ":{"ha":814,"x_min":85,"x_max":729,"o":"m 407 1031 q 492 997 460 1031 q 528 911 528 960 q 493 825 528 860 q 407 791 458 791 q 322 824 356 791 q 286 911 286 859 q 322 997 286 962 q 407 1031 358 1031 m 407 592 q 299 530 334 592 q 268 373 268 474 q 299 216 268 266 q 409 154 338 154 q 515 216 476 154 q 546 373 546 267 q 515 528 546 475 q 407 592 477 592 m 644 98 q 407 -14 553 -14 q 170 98 261 -14 q 85 373 85 202 q 170 648 85 544 q 407 760 261 760 q 644 648 553 760 q 729 373 729 544 q 644 98 729 202 z "},"Ȱ":{"ha":814,"x_min":44,"x_max":770,"o":"m 248 1198 l 248 1340 l 566 1340 l 566 1198 l 248 1198 m 407 -14 q 119 153 214 -14 q 44 458 44 286 q 119 762 44 629 q 407 929 214 929 q 694 762 602 929 q 770 458 770 625 q 694 154 770 291 q 407 -14 602 -14 m 407 764 q 277 673 330 764 q 227 458 227 589 q 276 243 227 323 q 407 151 332 151 q 537 242 484 151 q 587 458 587 328 q 537 674 587 589 q 407 764 485 764 m 407 950 q 331 981 363 950 q 298 1058 298 1012 q 331 1136 298 1105 q 407 1166 363 1166 q 484 1135 452 1166 q 516 1058 516 1103 q 484 981 516 1013 q 407 950 453 950 z "},"ȱ":{"ha":814,"x_min":85,"x_max":729,"o":"m 407 780 q 331 810 363 780 q 298 888 298 842 q 331 966 298 935 q 407 996 363 996 q 484 965 452 996 q 516 888 516 933 q 484 810 516 843 q 407 780 453 780 m 248 1027 l 248 1170 l 566 1170 l 566 1027 l 248 1027 m 407 592 q 299 530 334 592 q 268 373 268 474 q 299 216 268 266 q 409 154 338 154 q 515 216 476 154 q 546 373 546 267 q 515 528 546 475 q 407 592 477 592 m 644 98 q 407 -14 553 -14 q 170 98 261 -14 q 85 373 85 202 q 170 648 85 544 q 407 760 261 760 q 644 648 553 760 q 729 373 729 544 q 644 98 729 202 z "},"Ȳ":{"ha":814,"x_min":37,"x_max":777,"o":"m 251 1241 l 568 1241 l 568 1099 l 251 1099 l 251 1241 m 315 0 l 315 401 q 37 1017 139 726 l 220 1017 q 408 577 306 779 q 593 1017 514 778 l 777 1017 q 498 401 679 726 l 498 0 l 315 0 z "},"ȳ":{"ha":814,"x_min":96,"x_max":718,"o":"m 251 959 l 568 959 l 568 817 l 251 817 l 251 959 m 96 746 l 279 746 l 279 288 q 306 186 279 218 q 380 151 335 151 q 484 197 440 151 q 535 354 535 251 l 535 746 l 718 746 l 718 114 q 640 -166 718 -64 q 392 -285 549 -285 q 125 -133 235 -285 l 271 -38 q 404 -117 319 -117 q 515 -50 477 -117 q 534 67 534 -14 q 351 -14 466 -14 q 165 66 240 -14 q 96 279 96 140 l 96 746 z "},"ȴ":{"ha":814,"x_min":96,"x_max":766,"o":"m 96 1017 l 498 1017 l 498 362 q 589 387 531 387 q 723 319 665 387 q 766 189 766 270 q 702 43 766 101 q 544 -14 639 -14 q 377 60 443 -14 q 315 281 315 131 l 315 848 l 96 848 l 96 1017 m 521 155 q 559 136 536 136 q 595 151 581 136 q 611 194 611 168 q 597 237 611 219 q 560 257 582 257 q 519 235 534 257 q 507 195 507 218 q 521 155 507 171 z "},"ȵ":{"ha":814,"x_min":68,"x_max":785,"o":"m 547 155 q 586 136 563 136 q 621 151 608 136 q 637 194 637 168 q 624 237 637 219 q 587 257 608 257 q 545 235 561 257 q 534 195 534 218 q 547 155 534 171 m 68 0 l 68 746 l 237 746 l 237 677 q 370 760 280 760 q 511 665 463 760 q 538 509 538 611 l 538 362 q 615 387 564 387 q 737 330 690 387 q 785 189 785 271 q 728 45 785 103 q 570 -14 670 -14 q 370 221 370 -14 l 370 509 q 361 561 370 544 q 304 595 341 595 q 248 562 266 595 q 237 509 237 541 l 237 0 l 68 0 z "},"ȶ":{"ha":814,"x_min":96,"x_max":766,"o":"m 315 1017 l 498 1017 l 498 746 l 718 746 l 718 576 l 498 576 l 498 362 q 589 387 531 387 q 723 319 665 387 q 766 189 766 270 q 702 43 766 101 q 544 -14 639 -14 q 377 60 443 -14 q 315 281 315 131 l 315 576 l 96 576 l 96 746 l 315 746 l 315 1017 m 521 155 q 559 136 536 136 q 595 151 579 136 q 611 194 611 168 q 597 237 611 219 q 560 257 582 257 q 519 235 534 257 q 507 195 507 218 q 521 155 507 171 z "},"ȷ":{"ha":814,"x_min":85,"x_max":572,"o":"m 170 746 l 572 746 l 572 10 q 507 -205 572 -135 q 295 -285 433 -285 q 85 -195 161 -285 l 180 -65 q 288 -120 228 -120 q 364 -88 337 -120 q 389 21 389 -60 l 389 576 l 170 576 l 170 746 z "},"ȸ":{"ha":814,"x_min":27,"x_max":787,"o":"m 266 152 q 315 183 300 152 q 323 257 323 201 l 323 488 q 307 568 323 546 q 259 595 288 595 q 213 572 228 595 q 199 488 199 553 l 199 257 q 214 178 199 204 q 266 152 228 152 m 548 152 q 600 178 586 152 q 614 257 614 204 l 614 488 q 601 572 614 553 q 555 595 586 595 q 507 568 526 595 q 490 488 490 546 l 490 257 q 499 183 490 201 q 548 152 513 152 m 323 1017 l 490 1017 l 490 709 q 589 760 528 760 q 721 694 661 760 q 787 508 787 623 l 787 237 q 730 56 787 125 q 553 -14 673 -14 q 407 51 467 -14 q 260 -14 347 -14 q 83 56 141 -14 q 27 237 27 125 l 27 508 q 93 694 27 623 q 225 760 155 760 q 323 709 281 760 l 323 1017 z "},"ȹ":{"ha":814,"x_min":27,"x_max":787,"o":"m 548 594 q 499 563 513 594 q 490 489 490 545 l 490 258 q 507 178 490 200 q 555 151 526 151 q 601 174 586 151 q 614 258 614 193 l 614 489 q 600 568 614 542 q 548 594 586 594 m 266 594 q 214 568 228 594 q 199 489 199 542 l 199 258 q 213 174 199 193 q 259 151 228 151 q 307 178 288 151 q 323 258 323 200 l 323 489 q 315 563 323 545 q 266 594 300 594 m 490 -271 l 323 -271 l 323 37 q 224 -14 286 -14 q 79 54 130 -14 q 27 238 27 123 l 27 509 q 83 690 27 621 q 260 760 141 760 q 407 695 347 760 q 553 760 467 760 q 730 690 673 760 q 787 509 787 621 l 787 238 q 730 47 787 114 q 589 -14 677 -14 q 490 37 532 -14 l 490 -271 z "},"Ⱥ":{"ha":814,"x_min":3,"x_max":810,"o":"m 3 0 q 315 1017 94 488 l 498 1017 l 564 860 l 654 1017 l 772 1017 l 611 736 q 810 0 750 357 l 627 0 q 534 424 591 216 l 431 424 l 186 0 l 3 0 m 402 580 l 466 691 q 407 865 441 774 q 317 580 351 711 l 402 580 m 255 326 l 312 424 l 281 424 l 255 326 z "},"Ȼ":{"ha":814,"x_min":44,"x_max":760,"o":"m 737 258 q 694 154 720 201 q 407 -14 602 -14 q 203 52 286 -14 l 174 0 l 54 0 l 132 134 q 119 153 125 143 q 44 509 44 279 q 119 864 44 729 q 407 1031 214 1031 q 612 965 530 1031 l 642 1017 l 760 1017 l 682 884 q 694 863 689 873 q 737 760 722 813 l 611 760 l 296 213 q 407 151 345 151 q 537 242 479 151 q 546 258 542 250 l 737 258 m 243 328 l 518 804 q 407 866 471 866 q 277 775 330 866 q 227 509 227 691 q 243 328 227 401 z "},"ȼ":{"ha":814,"x_min":85,"x_max":715,"o":"m 715 247 q 644 98 695 161 q 407 -14 553 -14 q 260 22 326 -14 l 248 0 l 130 0 l 180 86 l 170 98 q 85 373 85 202 q 170 648 85 544 q 407 760 261 760 q 549 726 486 760 l 561 746 l 679 746 l 631 663 q 644 648 637 656 q 715 499 694 587 l 536 499 l 346 170 q 409 154 374 154 q 515 216 477 154 q 529 247 523 229 l 715 247 m 280 260 l 464 578 q 407 592 439 592 q 299 530 333 592 q 268 373 268 474 q 280 260 268 305 z "},"Ƚ":{"ha":814,"x_min":14,"x_max":718,"o":"m 96 0 l 96 393 l 14 393 l 14 536 l 96 536 l 96 1017 l 279 1017 l 279 536 l 467 536 l 467 393 l 279 393 l 279 170 l 718 170 l 718 0 l 96 0 z "},"Ⱦ":{"ha":814,"x_min":54,"x_max":760,"o":"m 498 769 l 544 848 l 498 848 l 498 769 m 54 0 l 315 452 l 315 848 l 71 848 l 71 1017 l 760 1017 l 743 988 l 743 848 l 662 848 l 498 564 l 498 0 l 315 0 l 315 246 l 174 0 l 54 0 z "},"ȿ":{"ha":814,"x_min":110,"x_max":704,"o":"m 110 273 q 285 273 110 273 q 319 187 285 218 q 410 153 357 153 q 490 177 460 153 q 522 235 522 202 q 463 297 522 278 l 299 350 q 134 545 134 403 q 229 713 134 647 q 398 760 296 760 q 595 675 522 760 q 656 508 656 606 l 480 508 q 458 570 480 545 q 393 600 431 600 q 331 586 355 600 q 308 549 308 573 q 376 494 308 515 l 516 449 q 704 238 704 389 q 618 58 704 133 q 484 -7 563 9 l 643 -94 l 582 -268 q 356 -95 413 -146 q 187 66 269 -18 q 110 273 110 146 z "},"ɀ":{"ha":814,"x_min":96,"x_max":757,"o":"m 96 0 l 96 170 q 463 576 352 364 l 120 576 l 120 746 l 718 746 q 332 162 640 429 q 442 79 398 143 q 757 -139 591 -139 l 678 -285 q 356 -66 507 -285 q 96 0 311 0 z "},"Ɂ":{"ha":814,"x_min":71,"x_max":743,"o":"m 320 0 l 320 260 q 455 531 320 426 q 559 699 559 612 q 524 810 559 766 q 407 866 477 866 q 292 811 336 866 q 254 692 254 764 l 71 692 q 158 926 71 833 q 407 1031 258 1031 q 659 925 566 1031 q 743 699 743 829 q 580 420 743 535 q 494 260 494 359 l 494 0 l 320 0 z "},"ɂ":{"ha":814,"x_min":110,"x_max":704,"o":"m 326 0 l 326 124 q 462 382 326 281 q 527 493 527 431 q 489 568 527 537 q 407 593 458 593 q 319 559 355 593 q 285 473 286 528 l 110 473 q 192 677 110 599 q 406 760 277 760 q 619 682 534 760 q 704 489 704 606 q 600 294 704 366 q 501 126 502 227 l 500 0 l 326 0 z "},"Ƀ":{"ha":814,"x_min":14,"x_max":743,"o":"m 254 852 l 254 641 l 336 641 q 458 671 422 641 q 493 747 493 700 q 454 825 493 793 q 336 852 418 852 l 254 852 m 71 0 l 71 252 l 14 252 l 15 395 l 71 395 l 71 1017 l 336 1017 q 583 940 496 1017 q 667 764 667 865 q 556 578 667 642 q 743 317 743 498 q 637 83 743 170 q 370 0 536 0 l 71 0 m 254 252 l 254 165 l 370 165 q 522 211 467 165 q 566 321 566 249 q 520 431 566 386 q 370 476 475 476 l 254 476 l 254 395 l 399 395 l 399 252 l 254 252 z "},"Ʉ":{"ha":814,"x_min":14,"x_max":800,"o":"m 71 1017 l 254 1017 l 254 564 l 559 564 l 559 1017 l 743 1017 l 743 564 l 800 564 l 800 422 l 743 422 l 743 306 q 654 85 743 178 q 407 -14 559 -14 q 158 85 257 -14 q 71 306 71 172 l 71 422 l 14 422 l 15 564 l 71 564 l 71 1017 m 559 422 l 254 422 l 254 313 q 292 203 254 247 q 407 151 335 151 q 522 204 475 151 q 559 313 559 246 l 559 422 z "},"Ʌ":{"ha":814,"x_min":3,"x_max":810,"o":"m 315 1017 q 498 1017 315 1017 q 810 0 720 488 l 627 0 q 407 811 553 427 q 186 0 258 420 l 3 0 q 315 1017 94 488 z "},"Ɇ":{"ha":814,"x_min":54,"x_max":760,"o":"m 279 389 l 299 424 l 279 424 l 279 389 m 397 593 l 544 848 l 279 848 l 279 593 l 397 593 m 54 0 l 96 72 l 96 1017 l 760 1017 l 515 593 l 587 593 l 587 424 l 418 424 l 279 182 l 279 170 l 718 170 l 718 0 l 54 0 z "},"ɇ":{"ha":814,"x_min":80,"x_max":732,"o":"m 715 247 q 644 98 695 161 q 407 -14 553 -14 q 228 42 304 -14 l 198 0 l 80 0 l 159 111 q 85 373 85 212 q 170 648 85 544 q 407 760 261 760 q 584 705 509 760 l 614 746 l 732 746 l 653 636 q 729 382 729 535 l 414 302 l 328 182 q 409 154 361 154 q 515 216 477 154 q 529 247 523 229 l 715 247 m 485 566 q 407 592 454 592 q 299 530 333 592 q 269 408 273 484 l 395 441 l 485 566 z "},"Ɉ":{"ha":814,"x_min":37,"x_max":800,"o":"m 37 325 l 220 325 q 254 205 220 249 q 373 151 297 151 q 488 202 446 151 q 526 325 526 248 l 526 425 l 347 425 l 347 567 l 526 567 l 526 848 l 159 848 l 159 1017 l 709 1017 l 709 567 l 800 567 l 800 425 l 709 425 l 709 306 q 619 83 709 180 q 373 -14 530 -14 q 121 91 220 -14 q 37 325 37 183 z "},"ɉ":{"ha":814,"x_min":85,"x_max":696,"o":"m 170 746 l 572 746 l 572 393 l 696 393 l 696 250 l 572 250 l 572 10 q 507 -205 572 -135 q 295 -285 433 -285 q 85 -195 161 -285 l 180 -65 q 288 -120 228 -120 q 364 -88 337 -120 q 389 21 389 -60 l 389 250 l 243 250 l 243 393 l 389 393 l 389 576 l 170 576 l 170 746 m 454 1031 q 539 997 507 1031 q 575 911 575 960 q 540 825 575 860 q 454 791 505 791 q 369 824 403 791 q 332 911 332 859 q 369 997 332 962 q 454 1031 405 1031 z "},"Ɋ":{"ha":814,"x_min":44,"x_max":848,"o":"m 546 1017 l 729 1017 l 729 0 q 759 -94 729 -56 q 848 -137 792 -137 l 848 -285 q 612 -199 697 -285 q 546 0 546 -132 l 546 58 q 381 -14 467 -14 q 119 153 214 -14 q 44 509 44 286 q 119 864 44 731 q 382 1031 214 1031 q 546 960 470 1031 l 546 1017 m 394 867 q 277 775 330 867 q 227 509 227 691 q 276 243 227 330 q 391 151 328 151 q 503 242 458 151 q 546 509 546 329 q 503 776 546 699 q 394 867 452 867 z "},"ɋ":{"ha":814,"x_min":62,"x_max":814,"o":"m 695 0 q 725 -94 695 -56 q 814 -137 758 -137 l 814 -285 q 578 -199 663 -285 q 512 0 512 -132 l 512 54 q 355 -14 449 -14 q 146 98 238 -14 q 62 373 62 202 q 146 648 62 544 q 355 760 238 760 q 512 689 450 760 l 512 746 l 695 746 l 695 0 m 376 592 q 275 528 312 592 q 245 373 245 473 q 276 216 245 269 q 379 154 313 154 q 482 216 444 154 q 513 373 513 267 q 484 528 513 475 q 376 592 448 592 z "},"Ɍ":{"ha":814,"x_min":0,"x_max":800,"o":"m 71 0 l 71 309 l 0 309 l 0 473 l 71 473 l 71 1017 l 370 1017 q 621 934 519 1017 q 743 669 743 833 q 619 401 743 500 q 570 368 595 382 l 800 0 l 579 0 l 386 309 l 254 309 l 254 0 l 71 0 m 370 473 q 503 519 457 473 q 559 663 559 574 q 501 805 559 751 q 370 852 450 852 l 254 852 l 254 473 l 370 473 z "},"ɍ":{"ha":814,"x_min":16,"x_max":718,"o":"m 96 0 l 96 252 l 16 252 l 17 395 l 96 395 l 96 746 l 279 746 l 279 677 q 463 760 348 760 q 649 680 574 760 q 718 458 718 606 l 535 458 q 508 560 535 528 q 433 595 479 595 q 330 549 374 595 q 279 395 279 496 l 469 395 l 469 252 l 279 252 l 279 0 l 96 0 z "},"Ɏ":{"ha":814,"x_min":14,"x_max":800,"o":"m 315 0 l 315 401 q 169 693 234 551 l 14 693 l 15 836 l 106 836 q 37 1017 68 928 l 220 1017 q 290 836 254 924 l 527 836 q 593 1017 562 924 l 777 1017 q 709 836 747 928 l 800 836 l 800 693 l 647 693 q 498 401 581 551 l 498 0 l 315 0 m 465 693 l 352 693 l 408 577 q 465 693 437 633 z "},"ɏ":{"ha":814,"x_min":14,"x_max":800,"o":"m 96 746 l 279 746 l 279 530 l 535 530 l 535 746 l 718 746 l 718 530 l 800 530 l 800 388 l 718 388 l 718 114 q 640 -166 718 -64 q 392 -285 549 -285 q 125 -133 235 -285 l 271 -38 q 404 -117 319 -117 q 515 -50 477 -117 q 534 67 534 -14 q 351 -14 466 -14 q 165 66 240 -14 q 96 279 96 140 l 96 388 l 14 388 l 15 530 l 96 530 l 96 746 m 535 388 l 279 388 l 279 288 q 306 186 279 218 q 380 151 335 151 q 484 197 440 151 q 535 354 535 251 l 535 388 z "},"ɐ":{"ha":814,"x_min":104,"x_max":722,"o":"m 104 746 l 287 746 l 287 678 q 466 760 355 760 q 661 684 592 760 q 722 527 722 615 q 616 328 722 399 q 420 273 532 273 l 291 273 q 308 201 294 222 q 399 153 340 153 q 534 224 475 153 l 663 107 q 395 -14 554 -14 q 157 100 241 -14 q 104 307 104 174 l 104 746 m 288 433 l 418 433 q 516 460 480 433 q 545 521 545 481 q 515 575 545 552 q 441 595 489 595 q 346 555 382 595 q 288 433 296 501 z "},"ɑ":{"ha":814,"x_min":85,"x_max":718,"o":"m 399 592 q 298 528 335 592 q 268 373 268 473 q 299 216 268 269 q 402 154 336 154 q 505 216 467 154 q 536 373 536 267 q 507 528 536 475 q 399 592 471 592 m 718 0 l 535 0 l 535 54 q 378 -14 472 -14 q 170 98 261 -14 q 85 373 85 202 q 170 648 85 544 q 378 760 261 760 q 535 689 473 760 l 535 746 l 718 746 l 718 0 z "},"ɒ":{"ha":814,"x_min":96,"x_max":729,"o":"m 414 592 q 307 528 343 592 q 277 373 277 475 q 309 216 277 267 q 412 154 347 154 q 515 216 478 154 q 546 373 546 269 q 515 528 546 473 q 414 592 479 592 m 96 0 l 96 746 l 279 746 l 279 689 q 435 760 341 760 q 644 648 553 760 q 729 373 729 544 q 644 98 729 202 q 435 -14 553 -14 q 279 54 342 -14 l 279 0 l 96 0 z "},"ɓ":{"ha":814,"x_min":96,"x_max":729,"o":"m 414 592 q 307 528 343 592 q 277 373 277 475 q 309 216 277 267 q 412 154 347 154 q 515 216 478 154 q 546 373 546 269 q 515 528 546 473 q 414 592 479 592 m 96 0 l 96 746 q 162 945 96 878 q 397 1031 247 1031 l 397 883 q 309 840 342 883 q 279 746 279 800 l 279 689 q 435 760 341 760 q 644 648 553 760 q 729 373 729 544 q 644 98 729 202 q 435 -14 553 -14 q 279 54 342 -14 l 279 0 l 96 0 z "},"ɔ":{"ha":814,"x_min":85,"x_max":715,"o":"m 85 247 q 271 247 85 247 q 286 216 277 229 q 391 154 323 154 q 501 216 462 154 q 532 373 532 266 q 501 530 532 474 q 393 592 467 592 q 286 528 323 592 q 272 499 278 515 l 85 499 q 156 648 105 585 q 393 760 248 760 q 631 648 539 760 q 715 373 715 544 q 631 98 715 202 q 393 -14 539 -14 q 156 98 248 -14 q 85 247 105 161 z "},"ɕ":{"ha":814,"x_min":85,"x_max":715,"o":"m 316 193 q 302 260 302 226 q 369 394 302 336 q 500 437 418 437 q 645 373 587 437 q 702 215 702 310 q 628 48 702 114 q 420 -14 557 -14 q 170 98 261 -14 q 85 373 85 202 q 170 648 85 544 q 407 760 261 760 q 644 648 553 760 q 715 499 695 585 l 528 499 q 515 528 522 515 q 407 592 477 592 q 299 530 333 592 q 268 373 268 474 q 299 216 268 262 q 316 193 307 203 m 534 192 q 553 231 553 208 q 537 266 553 252 q 494 282 521 282 q 452 269 469 282 q 431 231 431 253 q 454 190 431 205 q 493 178 470 178 q 534 192 517 178 z "},"ɖ":{"ha":814,"x_min":62,"x_max":814,"o":"m 695 0 q 725 -94 695 -54 q 814 -137 758 -137 l 814 -285 q 578 -199 663 -285 q 512 0 512 -132 l 512 54 q 355 -14 449 -14 q 146 98 238 -14 q 62 373 62 202 q 146 648 62 544 q 355 760 238 760 q 512 689 450 760 l 512 1017 l 695 1017 l 695 0 m 376 592 q 275 528 312 592 q 245 373 245 473 q 276 216 245 269 q 379 154 313 154 q 482 216 444 154 q 513 373 513 267 q 484 528 513 475 q 376 592 448 592 z "},"ɗ":{"ha":814,"x_min":62,"x_max":814,"o":"m 376 592 q 275 528 312 592 q 245 373 245 473 q 276 216 245 269 q 379 154 313 154 q 482 216 444 154 q 513 373 513 267 q 484 528 513 475 q 376 592 448 592 m 695 0 l 512 0 l 512 54 q 355 -14 449 -14 q 146 98 238 -14 q 62 373 62 202 q 146 648 62 544 q 355 760 238 760 q 512 689 450 760 l 512 746 q 578 945 512 878 q 814 1031 663 1031 l 814 883 q 725 840 758 883 q 695 746 695 800 l 695 0 z "},"ɘ":{"ha":814,"x_min":85,"x_max":729,"o":"m 98 247 q 285 247 98 247 q 299 216 291 229 q 405 154 336 154 q 515 216 477 154 q 536 268 528 237 l 85 382 q 170 648 85 544 q 407 760 261 760 q 644 648 553 760 q 729 373 729 544 q 644 98 729 202 q 407 -14 553 -14 q 170 98 261 -14 q 98 247 119 161 m 545 408 q 515 530 541 484 q 407 592 481 592 q 299 528 333 592 q 281 477 288 505 l 545 408 z "}}}
